<?xml version="1.0" encoding="UTF-8"?>
<!DOCTYPE svg PUBLIC "-//W3C//DTD SVG 1.1//EN" "http://www.w3.org/Graphics/SVG/1.1/DTD/svg11.dtd">
<!-- Creator: CorelDRAW 2020 (64-Bit) -->
<svg xmlns="http://www.w3.org/2000/svg" xml:space="preserve" width="210px" height="297px" version="1.1" style="shape-rendering:geometricPrecision; text-rendering:geometricPrecision; image-rendering:optimizeQuality; fill-rule:evenodd; clip-rule:evenodd"
viewBox="0 0 21000 29700"
 xmlns:xlink="http://www.w3.org/1999/xlink"
 xmlns:xodm="http://www.corel.com/coreldraw/odm/2003">
 <defs>
  <style type="text/css">
   <![CDATA[
    .str0 {stroke:#2B2A29;stroke-width:20;stroke-miterlimit:22.9256}
    .fil0 {fill:#61BFD6}
    .fil1 {fill:#D93F3F}
    .fil3 {fill:#333333;fill-rule:nonzero}
    .fil2 {fill:white;fill-rule:nonzero}
   ]]>
  </style>
   <clipPath id="id0">
    <rect x="7690.09" y="5602.32" width="7335.67" height="8553.19"/>
   </clipPath>
 </defs>
 <g id="layer_x0020_1">
  <metadata id="CorelCorpID_0Corel-Layer"/>
  <path class="fil0" d="M14286.67 10036.42c1944.76,0 3726.64,328.01 5110.62,872.75 -1251.09,-409.37 -2770.99,-594.9 -4409.44,-649.53 -9388.26,-313.06 -9672.87,6807.01 -348.66,7284.29 -116.91,2.39 -234.36,3.85 -352.52,3.85 -4404.28,0 -7974.67,-1681.48 -7974.67,-3755.68 0,-2074.2 3570.39,-3755.68 7974.67,-3755.68z"/>
  <g style="clip-path:url(#id0)">
   <image x="7690.09" y="5602.33" width="7335.66" height="8553.18" xlink:href="millLogo2_Images\millLogo2_ImgID1.png"/>
  </g>
  <rect class="fil1 str0" x="9600.72" y="13357.61" width="5476.91" height="1703.59"/>
  <path class="fil2" d="M10101.66 13780.25l-110.07 -18.35 0 -87.48 210.26 0c31.98,0 73.38,-1.89 124.18,-5.65 12.23,-0.94 26.81,-1.88 43.74,-2.82 16.94,-0.94 36.69,-1.41 59.27,-1.41 142.05,0 241.53,19.99 298.45,59.97 56.91,39.98 85.37,99.48 85.37,178.51 0,69.61 -20.93,127.7 -62.79,174.27 -41.87,46.56 -96.67,75.02 -164.4,85.37 93.13,-0.94 166.28,20.23 219.43,63.5 53.15,43.27 79.73,103.48 79.73,180.62 0,97.84 -34.34,176.39 -103.01,235.66 -68.68,59.26 -183.45,88.9 -344.31,88.9 -42.34,0 -81.38,-1.41 -117.13,-4.24 -9.4,0 -25.4,-0.7 -47.97,-2.11 -22.58,-1.41 -45.63,-2.12 -69.15,-2.12l-213.08 0 0 -84.67 111.48 -14.11 0 -843.84zm204.61 351.36c10.35,0.95 31.52,1.42 63.5,1.42l66.32 0c57.39,0 100.19,-17.88 128.42,-53.63 28.22,-35.74 42.33,-86.07 42.33,-150.98 0,-62.09 -14.58,-107.25 -43.75,-135.47 -29.16,-28.22 -77.61,-42.33 -145.34,-42.33 -17.87,0 -55.03,1.88 -111.48,5.64l0 375.35zm0 498.13c21.64,8.46 63.03,12.7 124.18,12.7 79.96,0 137.82,-18.82 173.57,-56.45 35.74,-37.63 53.62,-92.19 53.62,-163.69 0,-68.67 -16.23,-117.82 -48.68,-147.46 -32.46,-29.63 -83.97,-44.45 -154.52,-44.45 -79.02,0 -128.41,0.94 -148.17,2.82l0 396.53z"/>
  <path id="1" class="fil2" d="M10985.01 14638.2l111.48 -14.11 0 -843.84 -105.83 -19.76 0 -86.07 204.61 0c17.87,0 37.63,-0.48 59.27,-1.42 21.63,-0.94 38.1,-1.88 49.38,-2.82 48.92,-3.76 89.37,-5.64 121.36,-5.64 96.9,0 174.51,9.88 232.83,29.63 58.33,19.76 100.66,49.86 127,90.31 26.34,40.45 39.51,93.61 39.51,159.46 0,64.91 -17.4,125.12 -52.21,180.62 -34.8,55.5 -85.13,93.6 -150.99,114.3 37.63,15.99 71.03,45.15 100.19,87.49 29.17,42.33 60.21,97.36 93.14,165.1 23.51,46.09 41.62,79.26 54.32,99.48 12.7,20.23 25.17,31.75 37.4,34.57l46.56 14.11 0 83.26 -239.88 0c-15.06,0 -30.81,-15.29 -47.28,-45.86 -16.46,-30.58 -37.86,-78.79 -64.2,-144.64 -31.05,-77.14 -57.86,-137.35 -80.43,-180.62 -22.58,-43.28 -46.57,-70.09 -71.97,-80.44l-145.35 0 0 352.78 129.83 14.11 0 84.67 -448.74 0 0 -84.67zm448.74 -452.96c53.62,0 95.48,-19.29 125.59,-57.86 30.1,-38.57 45.15,-96.42 45.15,-173.56 0,-68.68 -14.82,-119.48 -44.45,-152.4 -29.63,-32.93 -80.67,-49.39 -153.1,-49.39 -26.35,0 -48.69,1.17 -67.03,3.52 -18.35,2.36 -30.34,3.53 -35.99,3.53l0 423.33c11.29,1.89 38.57,2.83 81.85,2.83l47.98 0z"/>
  <path id="2" class="fil2" d="M12332.62 13668.77l215.9 0 325.97 955.32 81.84 14.11 0 84.67 -416.27 0 0 -84.67 105.83 -14.11 -55.03 -183.44 -365.48 0 -55.03 184.85 114.3 12.7 0 84.67 -359.84 0 -1.41 -84.67 84.67 -14.11 324.55 -955.32zm97.37 238.48l-25.4 -110.07 -26.81 111.48 -125.59 433.21 310.44 0 -132.64 -434.62z"/>
  <polygon id="3" class="fil2" points="13122.85,13780.25 13002.9,13761.9 13002.9,13674.42 13454.46,13674.42 13454.46,13761.9 13330.28,13780.25 13330.28,14624.09 13454.46,14639.61 13454.46,14722.87 13002.9,14722.87 13002.9,14638.2 13122.85,14624.09 "/>
  <polygon id="4" class="fil2" points="13685.88,13780.25 13574.4,13761.9 13574.4,13674.42 13894.73,13674.42 14315.24,14309.41 14394.26,14470.28 14394.26,13780.25 14272.9,13761.9 14272.9,13674.42 14622.86,13674.42 14622.86,13761.9 14514.2,13780.25 14514.2,14722.87 14343.46,14722.87 13904.6,14055.41 13805.83,13869.15 13805.83,14624.09 13948.35,14638.2 13948.35,14722.87 13574.4,14722.87 13574.4,14638.2 13685.88,14624.09 "/>
  <path id="5" class="fil3" d="M15739.04 14738.39c-50.8,0 -96.43,-4.23 -136.88,-12.7 -40.45,-8.46 -85.61,-19.75 -135.46,-33.86 -32.93,-9.41 -55.04,-14.59 -66.33,-15.53l12.7 -261.05 114.3 0 31.05 182.03c12.23,13.17 34.1,24.93 65.61,35.28 31.52,10.35 67.5,15.52 107.95,15.52 63.03,0 110.31,-13.87 141.82,-41.63 31.52,-27.75 47.27,-66.55 47.27,-116.41 0,-32.93 -9.4,-61.39 -28.22,-85.38 -18.81,-23.98 -44.68,-45.62 -77.61,-64.91 -32.93,-19.28 -78.08,-41.62 -135.47,-67.02 -78.08,-35.75 -142.75,-78.32 -194.02,-127.71 -51.27,-49.39 -76.91,-116.42 -76.91,-201.08 0,-52.68 13.64,-100.43 40.92,-143.23 27.28,-42.8 67.97,-76.67 122.06,-101.6 54.1,-24.93 120.18,-37.39 198.26,-37.39 46.1,0 86.79,3.29 122.07,9.87 35.27,6.59 73.61,15.53 115,26.81 24.46,6.59 42.8,10.82 55.03,12.7l-8.46 246.95 -112.89 0 -29.63 -173.57c-8.47,-8.46 -25.4,-16.7 -50.8,-24.69 -25.4,-8 -53.63,-12 -84.67,-12 -56.45,0 -99.01,12.94 -127.71,38.81 -28.69,25.87 -43.04,60.44 -43.04,103.72 0,34.8 10.59,64.91 31.75,90.31 21.17,25.4 46.81,46.8 76.91,64.2 30.1,17.41 77.61,42.1 142.52,74.08 52.68,25.4 97.84,50.33 135.47,74.79 37.63,24.46 70.08,56.21 97.36,95.25 27.29,39.04 40.93,84.91 40.93,137.59 0,51.74 -12.94,101.13 -38.81,148.16 -25.87,47.04 -68.2,86.08 -127,117.13 -58.79,31.04 -133.82,46.56 -225.07,46.56z"/>
  <polygon id="6" class="fil3" points="16568.77,13767.55 16366.98,13774.6 16311.95,14082.23 16193.42,14082.23 16217.41,13674.42 17127.57,13674.42 17144.51,14082.23 17033.03,14082.23 16977.99,13774.6 16779.03,13767.55 16779.03,14624.09 16976.58,14638.2 16976.58,14722.87 16388.15,14722.87 16388.15,14638.2 16568.77,14624.09 "/>
  <path id="7" class="fil3" d="M17676.49 14738.39c-153.34,0 -268.11,-47.98 -344.31,-143.93 -76.2,-95.96 -114.3,-226.72 -114.3,-392.29 0,-108.18 19.99,-203.2 59.98,-285.04 39.98,-81.85 96.19,-144.88 168.62,-189.09 72.44,-44.22 155.7,-66.32 249.77,-66.32 155.22,0 271.64,45.86 349.25,137.58 77.61,91.72 116.42,219.9 116.42,384.53 0,109.12 -20.47,205.78 -61.39,289.98 -40.92,84.2 -98.07,149.34 -171.45,195.44 -73.37,46.09 -157.57,69.14 -252.59,69.14zm14.12 -990.6c-77.15,0 -137.35,38.1 -180.63,114.3 -43.27,76.2 -64.91,189.09 -64.91,338.67 0,147.7 20.93,259.88 62.8,336.55 41.86,76.67 101.83,115 179.91,115 76.2,0 135.94,-40.21 179.21,-120.65 43.28,-80.43 64.91,-196.37 64.91,-347.83 0,-146.76 -20.69,-256.12 -62.08,-328.09 -41.4,-71.96 -101.13,-107.95 -179.21,-107.95z"/>
  <path id="8" class="fil3" d="M18257.87 14638.2l111.48 -14.11 0 -843.84 -105.83 -19.76 0 -86.07 204.61 0c17.87,0 37.63,-0.48 59.27,-1.42 21.63,-0.94 38.1,-1.88 49.38,-2.82 48.92,-3.76 89.37,-5.64 121.36,-5.64 96.9,0 174.51,9.88 232.83,29.63 58.33,19.76 100.66,49.86 127,90.31 26.34,40.45 39.51,93.61 39.51,159.46 0,64.91 -17.4,125.12 -52.21,180.62 -34.8,55.5 -85.13,93.6 -150.99,114.3 37.63,15.99 71.03,45.15 100.19,87.49 29.17,42.33 60.21,97.36 93.14,165.1 23.51,46.09 41.62,79.26 54.32,99.48 12.7,20.23 25.17,31.75 37.4,34.57l46.56 14.11 0 83.26 -239.88 0c-15.06,0 -30.81,-15.29 -47.28,-45.86 -16.46,-30.58 -37.86,-78.79 -64.2,-144.64 -31.05,-77.14 -57.86,-137.35 -80.43,-180.62 -22.58,-43.28 -46.57,-70.09 -71.97,-80.44l-145.35 0 0 352.78 129.83 14.11 0 84.67 -448.74 0 0 -84.67zm448.74 -452.96c53.62,0 95.48,-19.29 125.59,-57.86 30.1,-38.57 45.15,-96.42 45.15,-173.56 0,-68.68 -14.82,-119.48 -44.45,-152.4 -29.63,-32.93 -80.67,-49.39 -153.1,-49.39 -26.35,0 -48.69,1.17 -67.03,3.52 -18.35,2.36 -30.34,3.53 -35.99,3.53l0 423.33c11.29,1.89 38.57,2.83 81.85,2.83l47.98 0z"/>
  <polygon id="9" class="fil3" points="19446.03,13780.25 19293.63,13761.9 19293.63,13674.42 19733.89,13674.42 19901.82,14281.19 19941.33,14446.29 19975.19,14281.19 20141.7,13674.42 20577.74,13674.42 20577.74,13761.9 20423.93,13780.25 20536.82,14622.68 20651.12,14638.2 20651.12,14722.87 20200.97,14722.87 20200.97,14638.2 20325.15,14624.09 20263.06,14006.03 20236.25,13747.79 20184.04,13965.1 19979.43,14679.13 19829.85,14679.13 19621.01,14001.79 19549.04,13747.79 19527.87,14006.03 19474.25,14624.09 19616.77,14638.2 19616.77,14722.87 19224.48,14722.87 19224.48,14638.2 19343.02,14624.09 "/>
  <path id="10" class="fil3" d="M9902.13 15469.96l-63.5 -11 0 -52.5 127.85 0c11.85,0 30.2,-0.56 55.03,-1.69 32.74,-2.26 62.38,-3.39 88.9,-3.39 58.71,0 105.13,7.2 139.28,21.59 34.15,14.4 58.42,35 72.82,61.81 14.39,26.81 21.59,60.82 21.59,102.02 0,71.13 -22.16,126.44 -66.47,165.95 -44.31,39.51 -105.69,59.27 -184.15,59.27 -31.04,0 -53.34,-0.85 -66.89,-2.54l0 166.79 113.46 8.47 0 50.8 -304.8 0 0 -50.8 66.88 -8.47 0 -506.31zm123.62 285.33c12.98,2.82 34.99,4.24 66.04,4.24 37.82,0 68.15,-13.13 91.01,-39.37 22.86,-26.25 34.29,-69.85 34.29,-130.82 0,-47.41 -10.3,-81.98 -30.9,-103.71 -20.6,-21.73 -52.07,-32.6 -94.4,-32.6 -15.81,0 -32.18,1.13 -49.11,3.39 -7.9,1.13 -13.55,1.69 -16.93,1.69l0 297.18z"/>
  <polygon id="11" class="fil3" points="10461.78,15469.96 10399.13,15458.96 10399.13,15406.46 10656.52,15406.46 10656.52,15458.96 10585.4,15469.96 10585.4,15682.48 10842.79,15682.48 10842.79,15469.96 10777.59,15458.96 10777.59,15406.46 11031.59,15406.46 11031.59,15458.96 10967.25,15469.96 10967.25,15976.27 11031.59,15984.74 11031.59,16035.54 10776.74,16035.54 10776.74,15984.74 10842.79,15976.27 10842.79,15746.83 10585.4,15746.83 10585.4,15976.27 10656.52,15984.74 10656.52,16035.54 10397.44,16035.54 10397.44,15984.74 10461.78,15976.27 "/>
  <path id="12" class="fil3" d="M11368.57 16044.85c-92.01,0 -160.87,-28.78 -206.59,-86.36 -45.72,-57.57 -68.58,-136.03 -68.58,-235.37 0,-64.91 11.99,-121.92 35.98,-171.03 23.99,-49.11 57.72,-86.92 101.18,-113.45 43.46,-26.53 93.42,-39.8 149.86,-39.8 93.13,0 162.99,27.52 209.55,82.55 46.57,55.04 69.85,131.94 69.85,230.72 0,65.48 -12.27,123.47 -36.83,173.99 -24.55,50.52 -58.84,89.61 -102.87,117.27 -44.03,27.65 -94.54,41.48 -151.55,41.48zm8.46 -594.36c-46.28,0 -82.4,22.86 -108.37,68.58 -25.96,45.72 -38.95,113.46 -38.95,203.2 0,88.62 12.56,155.93 37.68,201.93 25.12,46.01 61.1,69.01 107.95,69.01 45.72,0 81.56,-24.13 107.53,-72.39 25.96,-48.26 38.95,-117.83 38.95,-208.71 0,-88.05 -12.42,-153.67 -37.26,-196.85 -24.83,-43.18 -60.68,-64.77 -107.53,-64.77z"/>
  <polygon id="13" class="fil3" points="11785.13,15469.96 11718.25,15458.96 11718.25,15406.46 11910.44,15406.46 12162.75,15787.47 12210.16,15883.99 12210.16,15469.96 12137.35,15458.96 12137.35,15406.46 12347.32,15406.46 12347.32,15458.96 12282.13,15469.96 12282.13,16035.54 12179.68,16035.54 11916.37,15635.07 11857.1,15523.3 11857.1,15976.27 11942.61,15984.74 11942.61,16035.54 11718.25,16035.54 11718.25,15984.74 11785.13,15976.27 "/>
  <polygon id="14" class="fil3" points="12464.17,15469.96 12396.43,15458.96 12396.43,15406.46 12847.71,15406.46 12858.72,15548.7 12799.45,15548.7 12771.51,15464.88 12588.63,15457.26 12588.63,15685.02 12706.31,15682.48 12719.86,15613.05 12774.05,15613.05 12774.05,15817.95 12719.86,15817.95 12706.31,15745.13 12588.63,15742.59 12588.63,15981.35 12793.52,15971.19 12842.63,15862.82 12906.13,15880.6 12884.12,16035.54 12397.28,16035.54 12397.28,15984.74 12464.17,15976.27 "/>
  <path id="15" class="fil3" d="M13219.4 15469.96l-66.04 -11 0 -52.5 126.15 0c19.19,0 44.03,-1.12 74.51,-3.38 7.34,-0.57 16.08,-1.13 26.24,-1.7 10.16,-0.56 22.02,-0.84 35.56,-0.84 85.24,0 144.93,11.99 179.08,35.98 34.14,23.99 51.22,59.69 51.22,107.1 0,41.77 -12.56,76.63 -37.68,104.57 -25.12,27.94 -57.99,45.01 -98.64,51.22 55.89,-0.56 99.77,12.14 131.66,38.1 31.89,25.97 47.84,62.09 47.84,108.38 0,58.7 -20.6,105.83 -61.81,141.39 -41.2,35.56 -110.07,53.34 -206.59,53.34 -25.4,0 -48.82,-0.85 -70.27,-2.54 -5.64,0 -15.24,-0.42 -28.79,-1.27 -13.54,-0.85 -27.37,-1.27 -41.48,-1.27l-127.85 0 0 -50.8 66.89 -8.47 0 -506.31zm122.76 210.83c6.21,0.56 18.91,0.84 38.1,0.84l39.8 0c34.43,0 60.11,-10.72 77.04,-32.17 16.94,-21.45 25.4,-51.65 25.4,-90.6 0,-37.25 -8.74,-64.34 -26.24,-81.28 -17.5,-16.93 -46.57,-25.4 -87.21,-25.4 -10.72,0 -33.02,1.13 -66.89,3.39l0 225.22zm0 298.87c12.99,5.08 37.82,7.62 74.51,7.62 47.98,0 82.69,-11.29 104.14,-33.87 21.45,-22.57 32.18,-55.31 32.18,-98.21 0,-41.21 -9.74,-70.7 -29.22,-88.48 -19.47,-17.78 -50.37,-26.67 -92.71,-26.67 -47.41,0 -77.04,0.57 -88.9,1.7l0 237.91z"/>
  <path id="16" class="fil3" d="M14016.96 16044.85c-92.01,0 -160.87,-28.78 -206.59,-86.36 -45.72,-57.57 -68.58,-136.03 -68.58,-235.37 0,-64.91 11.99,-121.92 35.98,-171.03 23.99,-49.11 57.72,-86.92 101.18,-113.45 43.46,-26.53 93.42,-39.8 149.86,-39.8 93.13,0 162.99,27.52 209.55,82.55 46.57,55.04 69.85,131.94 69.85,230.72 0,65.48 -12.27,123.47 -36.83,173.99 -24.55,50.52 -58.84,89.61 -102.87,117.27 -44.03,27.65 -94.54,41.48 -151.55,41.48zm8.46 -594.36c-46.28,0 -82.4,22.86 -108.37,68.58 -25.96,45.72 -38.95,113.46 -38.95,203.2 0,88.62 12.56,155.93 37.68,201.93 25.12,46.01 61.1,69.01 107.95,69.01 45.72,0 81.56,-24.13 107.53,-72.39 25.96,-48.26 38.95,-117.83 38.95,-208.71 0,-88.05 -12.42,-153.67 -37.26,-196.85 -24.83,-43.18 -60.68,-64.77 -107.53,-64.77z"/>
  <path id="17" class="fil3" d="M14633.34 16044.85c-92.01,0 -160.87,-28.78 -206.59,-86.36 -45.72,-57.57 -68.58,-136.03 -68.58,-235.37 0,-64.91 11.99,-121.92 35.98,-171.03 23.99,-49.11 57.72,-86.92 101.18,-113.45 43.46,-26.53 93.42,-39.8 149.86,-39.8 93.13,0 162.99,27.52 209.55,82.55 46.57,55.04 69.85,131.94 69.85,230.72 0,65.48 -12.27,123.47 -36.83,173.99 -24.55,50.52 -58.84,89.61 -102.87,117.27 -44.03,27.65 -94.54,41.48 -151.55,41.48zm8.46 -594.36c-46.28,0 -82.4,22.86 -108.37,68.58 -25.96,45.72 -38.95,113.46 -38.95,203.2 0,88.62 12.56,155.93 37.68,201.93 25.12,46.01 61.1,69.01 107.95,69.01 45.72,0 81.56,-24.13 107.53,-72.39 25.96,-48.26 38.95,-117.83 38.95,-208.71 0,-88.05 -12.42,-153.67 -37.26,-196.85 -24.83,-43.18 -60.68,-64.77 -107.53,-64.77z"/>
  <path id="18" class="fil3" d="M15431.75 16035.54c-8.46,0 -19.47,-10.87 -33.02,-32.6 -13.54,-21.73 -32.45,-56.3 -56.73,-103.71 -20.88,-40.64 -38.38,-73.38 -52.49,-98.22 -14.11,-24.83 -27.66,-45.44 -40.64,-61.8l-75.35 86.36 0 150.7 72.81 9.32 0 49.95 -263.31 0 0 -50.8 66.88 -8.47 0 -506.31 -66.04 -11 0 -52.5 254.85 0 0 52.5 -65.19 11 0 276.02 222.67 -276.02 -69.43 -11 0 -52.5 228.61 0 0 52.5 -70.28 11 -164.25 184.58c19.75,18.06 40.64,43.6 62.65,76.62 22.02,33.02 48.83,76.06 80.44,129.12 23.14,38.95 40.64,67.31 52.49,85.09 11.85,17.78 20.88,28.08 27.09,30.9l39.8 9.32 0 49.95 -151.56 0z"/>
  <path id="19" class="fil3" d="M15882.18 15469.96l-63.5 -11 0 -52.5 127.85 0c11.85,0 30.2,-0.56 55.03,-1.69 32.74,-2.26 62.38,-3.39 88.9,-3.39 58.71,0 105.13,7.2 139.28,21.59 34.15,14.4 58.42,35 72.82,61.81 14.39,26.81 21.59,60.82 21.59,102.02 0,71.13 -22.16,126.44 -66.47,165.95 -44.31,39.51 -105.69,59.27 -184.15,59.27 -31.04,0 -53.34,-0.85 -66.89,-2.54l0 166.79 113.46 8.47 0 50.8 -304.8 0 0 -50.8 66.88 -8.47 0 -506.31zm123.62 285.33c12.98,2.82 34.99,4.24 66.04,4.24 37.82,0 68.15,-13.13 91.01,-39.37 22.86,-26.25 34.29,-69.85 34.29,-130.82 0,-47.41 -10.3,-81.98 -30.9,-103.71 -20.6,-21.73 -52.07,-32.6 -94.4,-32.6 -15.81,0 -32.18,1.13 -49.11,3.39 -7.9,1.13 -13.55,1.69 -16.93,1.69l0 297.18z"/>
  <path id="20" class="fil3" d="M16374.1 15984.74l66.89 -8.47 0 -506.31 -63.5 -11.85 0 -51.65 122.76 0c10.73,0 22.58,-0.28 35.56,-0.84 12.99,-0.57 22.86,-1.13 29.64,-1.7 29.35,-2.25 53.62,-3.38 72.81,-3.38 58.14,0 104.71,5.92 139.7,17.78 35,11.85 60.4,29.91 76.2,54.18 15.81,24.28 23.71,56.17 23.71,95.68 0,38.94 -10.44,75.07 -31.33,108.37 -20.88,33.3 -51.08,56.16 -90.59,68.58 22.58,9.6 42.61,27.1 60.11,52.5 17.5,25.4 36.13,58.42 55.88,99.06 14.11,27.65 24.98,47.55 32.6,59.69 7.62,12.13 15.1,19.05 22.44,20.74l27.94 8.47 0 49.95 -143.94 0c-9.03,0 -18.48,-9.17 -28.36,-27.52 -9.88,-18.34 -22.72,-47.27 -38.53,-86.78 -18.62,-46.29 -34.71,-82.41 -48.26,-108.37 -13.54,-25.97 -27.94,-42.06 -43.18,-48.26l-87.2 0 0 211.66 77.89 8.47 0 50.8 -269.24 0 0 -50.8zm269.24 -271.78c32.17,0 57.29,-11.57 75.35,-34.71 18.07,-23.15 27.1,-57.86 27.1,-104.15 0,-41.2 -8.89,-71.68 -26.67,-91.44 -17.78,-19.75 -48.4,-29.63 -91.87,-29.63 -15.8,0 -29.21,0.71 -40.21,2.12 -11.01,1.41 -18.21,2.11 -21.59,2.11l0 254.01c6.77,1.12 23.14,1.69 49.1,1.69l28.79 0z"/>
  <path id="21" class="fil3" d="M17252.1 16044.85c-92.01,0 -160.87,-28.78 -206.59,-86.36 -45.72,-57.57 -68.58,-136.03 -68.58,-235.37 0,-64.91 11.99,-121.92 35.98,-171.03 23.99,-49.11 57.72,-86.92 101.18,-113.45 43.46,-26.53 93.42,-39.8 149.86,-39.8 93.13,0 162.99,27.52 209.55,82.55 46.57,55.04 69.85,131.94 69.85,230.72 0,65.48 -12.27,123.47 -36.83,173.99 -24.55,50.52 -58.84,89.61 -102.87,117.27 -44.03,27.65 -94.54,41.48 -151.55,41.48zm8.46 -594.36c-46.28,0 -82.4,22.86 -108.37,68.58 -25.96,45.72 -38.95,113.46 -38.95,203.2 0,88.62 12.56,155.93 37.68,201.93 25.12,46.01 61.1,69.01 107.95,69.01 45.72,0 81.56,-24.13 107.53,-72.39 25.96,-48.26 38.95,-117.83 38.95,-208.71 0,-88.05 -12.42,-153.67 -37.26,-196.85 -24.83,-43.18 -60.68,-64.77 -107.53,-64.77z"/>
  <path id="22" class="fil3" d="M17556.9 16150.69c22.58,-7.34 43.61,-20.32 63.08,-38.95 19.47,-18.63 33.73,-42.05 42.76,-70.27 6.21,-19.19 10.72,-42.2 13.54,-69.01 2.83,-26.81 4.24,-64.48 4.24,-113.03l0 -388.62 -76.2 -11.85 0 -52.5 270.93 0 0 52.5 -71.12 11 0 332.75c0,60.39 -0.7,107.1 -2.12,140.12 -1.41,33.02 -4.37,59.41 -8.89,79.16 -11.85,45.72 -36.12,83.68 -72.81,113.88 -36.69,30.2 -81.84,49.81 -135.47,58.84l-27.94 -44.02z"/>
  <polygon id="23" class="fil3" points="17998.87,15469.96 17931.13,15458.96 17931.13,15406.46 18382.41,15406.46 18393.42,15548.7 18334.15,15548.7 18306.21,15464.88 18123.33,15457.26 18123.33,15685.02 18241.01,15682.48 18254.56,15613.05 18308.75,15613.05 18308.75,15817.95 18254.56,15817.95 18241.01,15745.13 18123.33,15742.59 18123.33,15981.35 18328.22,15971.19 18377.33,15862.82 18440.83,15880.6 18418.82,16035.54 17931.98,16035.54 17931.98,15984.74 17998.87,15976.27 "/>
  <path id="24" class="fil3" d="M18774.42 16044.85c-95.96,0 -169.34,-28.64 -220.14,-85.93 -50.8,-57.29 -76.2,-135.61 -76.2,-234.95 0,-65.48 13.41,-122.63 40.22,-171.46 26.81,-48.82 63.64,-86.5 110.49,-113.03 46.85,-26.52 99.91,-39.79 159.17,-39.79 24.84,0 48.83,1.55 71.97,4.66 23.14,3.1 50.52,7.19 82.13,12.27 23.71,3.96 36.69,5.93 38.95,5.93l-9.32 174.41 -77.89 0 -26.25 -121.07c-6.21,-6.21 -16.93,-11.29 -32.17,-15.24 -15.24,-3.95 -34.72,-5.93 -58.42,-5.93 -47.98,0 -86.5,22.16 -115.57,66.47 -29.07,44.31 -43.61,108.51 -43.61,192.62 0,81.28 13.83,147.6 41.49,198.96 27.66,51.37 68.02,77.05 121.07,77.05 25.4,0 45.02,-2.4 58.85,-7.2 13.83,-4.79 25.54,-11.71 35.13,-20.74l37.26 -87.21 71.12 6.78 -16.93 131.23c-11.86,1.13 -23.57,3.25 -35.14,6.35 -11.57,3.1 -18.77,4.94 -21.59,5.5 -22.58,6.21 -43.61,11.15 -63.08,14.82 -19.47,3.67 -43.32,5.5 -71.54,5.5z"/>
  <polygon id="25" class="fil3" points="19249.4,15462.34 19128.33,15466.58 19095.31,15651.15 19024.19,15651.15 19038.58,15406.46 19584.68,15406.46 19594.84,15651.15 19527.96,15651.15 19494.94,15466.58 19375.55,15462.34 19375.55,15976.27 19494.09,15984.74 19494.09,16035.54 19141.03,16035.54 19141.03,15984.74 19249.4,15976.27 "/>
 </g>
</svg>
