<svg xmlns="http://www.w3.org/2000/svg" xml:space="preserve" width="210px" height="297px" style="shape-rendering:geometricPrecision;text-rendering:geometricPrecision;image-rendering:optimizeQuality;fill-rule:evenodd;clip-rule:evenodd" viewBox="0 0 21000 29700"><defs><style>.fil1{fill:#000}.fil3{fill:#fefefe}.fil6,.fil7,.fil8{fill:#000;fill-rule:nonzero}.fil6,.fil7{fill:#333}.fil6{fill:#fff}</style></defs><g id="Layer_x0020_1"><path d="M14286.67 10036.42c1944.76 0 3726.64 328.01 5110.62 872.75-1251.09-409.37-2770.99-594.9-4409.44-649.53-9388.26-313.06-9672.87 6807.01-348.66 7284.29-116.91 2.39-234.36 3.85-352.52 3.85-4404.28 0-7974.67-1681.48-7974.67-3755.68s3570.39-3755.68 7974.67-3755.68z" style="fill:#61bfd6"/><g id="_1949436601808"><path d="m10218.32 13191.94-53.66 1283.33 4241.04 21.1c-9.31-119.21-108.45-1262.83-118.14-1274.22-15.13-16.32-159.82-51.31-186.3-58.63-65.16-18-152.48-29.34-230.4-29.76-30.94 26.12-104.06 99.18-131.92 116.04 9.42 16.16 18.7 24.38 33.27 38.54 7.74 7.53 23.07 19.61 23.69 29.94l-2.68 9.12c-25.02 3.17-188.34-189.18-216.57-214.03-18.48-16.28-44.14-11.62-101.78-17.11l-345.55-31.82c-72.19-5.4-175.4.75-250.77 2.01l-2267.86 34.69c-155.72 2.33-80.75 6.39-126.81 22.36-4.74 1.64-21.8 4.46-28.42 5.62-19.03 3.36-35.02 5.9-52.28 9.96-62.37 14.68-124.04 39.11-184.86 52.86zM9588.47 11936.02l173.62-.26c-2.34 87.08-15.31 187.61-24.86 275.39-9.87 90.64-16.06 182.35-25.32 273.16-9.17 89.99-50.99 493.84-46.64 552.3 82.49 23.83 722.41-14.59 860.16-21.22 715.14-34.44 1432.16-56.52 2147.28-93.3 141.47-7.27 293.06-15.3 434.65-18.74-8.92-62.34-13.82-281.33-34.36-305.87-49.23-58.85-403.15-396.46-476.44-469.07-227.35-225.25-498.55-463.89-741.76-681.34l-104.75-91.18c-46.32-45.06-153.28-127.25-207.78-174.54-125.28-108.73-94.69-95.09-195.46-78.67l-915.48 146.41c-119.91 20.11-242.37 40.67-364.51 58.06-66.92 9.53-40.06.8-117.68 76.93l-116.5 118.43c-11.45 17.85-2.66 10.16-7.6 25.87-.16.51-208.14 347.22-236.57 407.64z" class="fil1"/><path d="M10218.32 13191.94c60.82-13.75 122.49-38.18 184.86-52.86 17.26-4.06 33.25-6.6 52.28-9.96 6.62-1.16 23.68-3.98 28.42-5.62 46.06-15.97-28.91-20.03 126.81-22.36l2267.86-34.69c75.37-1.26 178.58-7.41 250.77-2.01l345.55 31.82c57.64 5.49 83.3.83 101.78 17.11 28.23 24.85 191.55 217.2 216.57 214.03l2.68-9.12c-.62-10.33-15.95-22.41-23.69-29.94-14.57-14.16-23.85-22.38-33.27-38.54 27.86-16.86 100.98-89.92 131.92-116.04 77.92.42 165.24 11.76 230.4 29.76 26.48 7.32 171.17 42.31 186.3 58.63 9.69 11.39 108.83 1155.01 118.14 1274.22l-4241.04-21.1 53.66-1283.33zm4764.55-1242.36v.06c-27.81 0-151.11-16.45-167.4-22.27l66.01 935.33c1.23 78.17 11.71 140.15 11.71 218.46l-286.97 8.91c-101.88-.05-187.63 4.45-292.94 4.45-.33 11.05-7.39 55.27-11.96 62.37 12.19 6.08 64 33.06 68.92 42.2.37.69 8.52 82.7 8.83 86.97 4.47 61.71 1.45 116.53 5.92 178.23 3.94 54.36 12.35 114.54 11.99 173.72l29.85 530.14c-.31 36.04 6.33 53 6.06 89.04-.55 71.57 11.91 171.7 11.91 262.87h-4298.46c-7.97-2.42-12.05-8.36-12.82-21.71-2.86-49.02 7.12-88.31 6.77-138.64l5.92-285.15c-.14-29.43 4.36-43.79 6.03-66.78 3.26-44.94-.32-96.99-.24-142.73.06-28.16 6.49-37.03 6.33-66.57-.4-72.02 2.84-298.92 10.94-352.68 5.79-38.41.96-101.13.74-142.01-.17-29.53 6.27-38.4 6.32-66.56.04-23.79-.21-47.63-.21-71.43 44.62-17.59 119.6-26.66 172.11-36.58 7.73-1.46 17.08-2.74 28.98-5.14.34-.07 12.08-2.67 13.76-3.11 13.16-3.49 5.28-.83 12.34-4.17l-539.14-43.75c-282.17-23.37-218.44 22.42-220.08-107.67-.64-50.99 8.34-106.35 11.93-155.94 1.34-18.58-1.76-39.25.29-57.7 2.01-18.18 6-24.95 5.79-49.14-.44-52.4 8.19-109.71 11.86-160.45 1.25-17.28-1.31-36.21-.06-53.5l8.53-105.01c11.01-54.2 7.11-109.19 9.24-162.4.9-22.44 6.03-24.66 6.41-48.68 1.17-74.05 11.72-140.42 11.72-214.01-200.14 0-206.42 26.55-125.55-93.55 20.24-30.07 103.46-150.25 113.59-182.64-15.7 8.57-80.7 90.33-98.01 109.61-142.36 158.49-283 329.64-425.7 489.11l-236.74 269.09c-32.85 39.14-62.42 71.94-96.88 110.45l-285.76 321.65c-53.38 59.94-362.91 410.72-405.35 410.72-45.47 0-35.52-66.52-51.87-81.63-33.31-30.78-67.55-34.03-68.18-65.32-.24-12.5 3.29-21.56 2.8-26.85-.83-9.05.53.66-2.38-8.29l-280.09-259.55c-14.85-13.67-101.07-83.43-102.48-96.72v-.66l275.03-294c91.7-96.29 183.6-193.13 274.95-289.61l617.52-653.57c200.35-199.06 418.43-452.06 621-655.43 106.44-106.87 233.22-250.02 343.31-363.4 13.3-13.7 22.2-22.71 34.86-36.39 32.18-34.78 30.9-47.52 73.89-14.14l222.6 163.78c-21.2-67.81-58.53-45.36-23.15-124.16l328.81-743.96c36.15-81.58 67.28-44.95 106.86-85.2-10.12-10.29-61.35-39.48-77.72-49-27.1-15.77-51.39-31.14-79.1-47.98-51.95-31.59-104.36-66.79-160.04-94.58-6 3.89.87.35-10.26 5.72l-181.06 61.11-169.19-105.58c-13.06-8.24-16.35-8.64-29.6-18.04l-687.53-436.57c-13.34-9.47-15.87-10.24-29.27-18.28l-634.64-404.71c-35.33-22.27-204.99-120.31-213.44-143.88 10.18-10.35 219.31-84.62 245.12-89.1-2.6-23.29-21.32-20.63-29.89-44.55 1.67-10.96 181.99-189.26 194.77-202.34l49.17-52.46c16.32-17.84 29.44-31.5 46.57-49.94 22.99-24.76 71.87-86.33 98.1-100.64 19.58 3.89 52.89 22.82 70.06 32.43 23.44 13.12 44.81 22.44 67.42 34.4l535.74 277.94c47.02 23.27 88.07 46.9 133.9 69.51 45.51 22.44 86.47 46.11 133.91 69.49 180.4 88.93 359.56 184.84 535.69 277.98 132.5 70.07 272.28 135.42 402.22 208.14 24.52 13.72 221.85 106.79 229.36 125.13l3.45 13.72c.09.26 3.26 1.45 4.65 13.86-51.44 25.67-91.1 63.51-140.03 91.67l-306.76 203.54c-21.99 15.92-90.7 51.79-97.26 70.08 18.24 3.63 89.91 53.08 109.05 65.76l65.78 44.54c31.41 21.9 76.63 41.68 100.19 67.9 111.28-55.53 329.94-197.38 442.41-262.84 19.18-11.16 35.7-21.6 56.39-33.71l130.39-85.48c24.18-15.87 58.19-35.96 72.29-57.51 31.43-48.03 38.03-117.05 69.75-166.31 19.97 3.97 23.06 10.36 37.45 21.09 14.4 10.73 22.98 13.03 28.31 27.91h11.96c11.14-35.65 66.42-91.99 89.68-124.74-9.84-10-33.89-21.01-50.23-29.39l-153.04-81.98c5.9-18.89 23.18-32.06 38.44-47.09 102.9-101.35 278.29-330.73 384.83-448.28 13.85-15.29 24.08-29.22 37.01-43.7 78.85-88.25 149.99-181.69 229.61-269.94 159.56-176.85 299.08-363.23 459.19-539.89l153.07-179.96c180.96-208.89 352.8-421.9 535.73-629.87 14.02-15.94 27.27-31.88 39.1-46.59 109.96-136.87 234.2-266.61 342.96-403.76 19.64-24.76 207.16-252.23 231.26-264.25 21.81 4.34 50.3 26.04 67.33 38.92 79.71 60.27 80.71 13.95 296.36 33.22 63.48 5.67 202.58-18.4 325.56-6.6 36.76 3.53 73.24-1.18 90.46 17.24 53.97 57.72-118.37 307.79-163.08 390.05-43.85 80.67-101.19 159.92-153.36 237.66l-445.07 630.6c-7.84 10.05-11.98 18.16-20.17 29.52-8.46 11.75-11.51 13.45-19.98 25.2l-251.08 338.58c-55.17 77.1-111.36 146.46-167.33 222.79-101.78 138.78-230.22 310.53-340.22 445.89-60.89 74.93-112.57 147.79-172.55 223.36l-260.22 331.77c-15.09 19.65-28.94 36.15-43.99 56.31-68.72 92.05-147.51 180.36-213.38 273.12-87.15-5.4-331.96-133.06-412.52-164.83-17.47 19.44-40.4 38.47-60.57 57.33-16.31 15.25-52.69 40.88-59 58.5 37.85 6.57 400.68 179.46 459.22 205.76 216.85 97.4 509.09 226.49 719.72 327.94 15.4 7.42 28.34 12.95 44.86 20.03 21.79 9.35 28.07 9.45 37.19 25.75 44.88 80.23 8.22 76.24 114.07 128.83 109.1 54.2 238.63 129.5 352.66 173.79 92.4 35.9 71.94 17.03 145.47 109.89 35.96 45.42 76.04 86.8 111.4 130.82l115.07 132.55c20.1 22.47 37.33 41.65 57.4 64.14 20.38 22.85 37.72 39.92 58.58 63.27 24.5 27.42 220.23 234.93 229.58 261.04-22.2 7.94-164 13.37-203.27 13.37l24.11 307.23c1.7 44.83-8.88 48.15 31.46 83.48l340.58 289.7c15.11 11.57 17.63 17.49 32.74 29.06 71.3 54.57 131.03 116.34 200.3 171.5 15.31 12.18 19.46 15.42 33.55 28.46l133.87 114.08c22.8 17.08 57.57 40.28 58.32 63.39zm-1267.69 1278.85c-3.75-3.06-4.71-4.28-8.06-7.58-3.62-3.56-9.2-9.51-14.71-15.54l-91.18-97.72 240.33 21.67c-12.51 17.01-41.98 43.07-57.56 56.56-17.88 15.47-43.7 36.62-54.87 52.27l-13.95-9.66zm633-23.34c7.93 216.85 29.13 434.57 36.51 651.21 5.2 152.81 40.41 527.51 33.55 644.28l-115.6-1290.52c-187.47-40.77-181.03-73.66-420.68-85.31 15.75-21.97 116.57-110.81 137.18-141.39l847.11 78.52c-19.4 8.62-428.4 14.37-511.19 14.57-53.21.13-63.59-7.89-69.03 29.15-3.47 23.62-13.68 52.29 1.83 65.62 7.2 6.19 52.07 29.62 60.32 33.87zm-3980.58-173.16c163.23-6.14 326.78-15.77 489.98-21.5 323.6-11.37 656.94-24.78 979.93-42.59 162.94-8.98 327.7-13.13 491.11-21.09 162.12-7.9 328.19-16.61 490.34-21.4 81.06-2.39 164.71-6.9 245.82-10.49 65.7-2.9 45.37-5.71 55.68-10.49 6.62-3.07-15.21-6.62 24.29-4.65l138.95 13.64c125.55 11.89 104.93 3.43 164.96 68.07 34.46 37.12 73.01 73.19 107.41 112.84-141.27-11.93-292.79-31.86-432.86-39.67-74.15-4.13-165.89 1.4-241.78 2.5l-1174.79 18.3c-314 6.02-637.17 14.18-950.6 14.41-54.26.04-191.63-1.84-238.32 4.84-21.97 3.15-20.72 8.19-48.64 8.59l-162.28-12.91c-65.02-4.9-395.25-25.97-428.45-35.9l489.25-22.5zm3168.9 9.14c10.5-14.14 80.09-66.63 105.24-94.21l352.65 33.35c-18.57 23-45.75 47.69-68.79 70.44-97.31 96.06-34.72 72.22-259.56 53.35-58.62-4.92-85.27 4.31-129.54-62.93zm-14.99-15.89c-19.89-19.07-83.41-79.12-92.51-98.14l186.86 16.28-94.35 81.86zm-421.31-398.57c17.67 16.29 266.54 265.84 279.6 286.44l-259.67-25.46-19.93-260.98zm556.13 312.27c13.79-16.84 41.43-38.5 61.46-56.36l173.1-169.68c48.31-50.29 117.18-129.17 154.73-187.32 10.76-16.66 27.46-53.96 39.93-67.24l133.59 113.81c32.92 32.05 57.08 33.3 44.21 61.5-29.98 65.67-99.16 156.84-146.36 212.31-31.35 36.83-79.8 95.99-114.73 125.29l-345.93-32.31zm-287.26-71.55c80.54-156.63 370.52-400.37 467.58-617.93 25.85 24.12 226.06 183.92 227.48 194.73-32.75 85.06-138.29 203.75-197.45 264.19l-178.87 174.24c-77.29 72-39.73 53.83-218.45 38.83-45.36-3.81-62.27.96-100.29-54.06zm-341.18-345.95c-30.92-25.01-62.52-60.05-91.69-88.99-63.89-63.39-59.97-47.95-25.83-98.25l131.28-211.48c9.39 69.81 10.54 142.31 17.76 212.58 3.39 32.97 8.74 72.09 9.7 104.52.66 22.1-5.49 28.8-16.45 45.45-3.56 5.41-7.22 10.89-11.58 17.69l-13.19 18.48zm1434.85-286.99c27.99 9.01 149.16 110.19 179.48 128.3-3.75 18.06-64 111.81-78.19 124.99l-135.03-112.04c-14.44-13.48-26.96-21.78-45.38-33.9l79.12-107.35zm-1112.01 614.77c-13.68-10.38-31.11-29.99-43.53-42.85-87.97-91.1-106.83-82.76-72.94-137.52 83.68-135.21 254.5-322.7 352.27-472.17l58.09-95.78 94.52 67.36c33.08 24.73 57.05 51.59 89.11 71.5-25.03 12.44-17.63 14.72-29.65 39.25-26.25 53.58-44.34 74.13-80.61 122.47-59.74 79.61-180.51 218.46-249.88 295.08l-117.38 152.66zm1021.84-524.41c-28.86-12.83-102.43-80.56-133.53-106.15l-87.18-68.27c-11.68-9.22-34.45-24.56-31.75-37.64 1.6-7.78 44.58-91.21 49.68-97.59 20.65 6.89 20.67 10.42 39.98 25.03l234.81 175.2c-16.62 39.42-53.34 69.55-72.01 109.42zm-1582.74-37.29c-38.7-36.99-66.79-54.57-55.33-79.22 29.2-62.8 63.93-125.7 93.33-189.6l174.42-382.1c7.45 138.19 22.72 277.42 34.17 415.65 4.81 58-136.68 248.7-167.24 308.21l-79.35-72.94zm383.59 382.38c-74.28-77.96-84.93-61.93-85.65-181.4-.36-60.19 310.47-423.12 356.27-561.47l79.46 63.43c32.62 26.27 111.59 75.49 100.68 100.1-63.41 143.14-260.61 353.46-360.26 498.35-16.49 23.97-48.81 79.45-68.63 100.22l-21.87-19.23zm-89.11-235.75c-10.68-55.8-17.27-219.56-24.56-297.4-4.63-49.42-3.57-47.71 17.86-87.63 54.27-101.1 94.69-200.48 132.94-315.25 5.54 7.23 16.26 11.3 26.77 19.41l109.84 92.33c11.15 8.4 16.91 11.04 26.97 19.64 21.41 18.3 27.93 25.11 53.98 42.82-28.17 79.11-189.16 311.4-255.1 399.32-30.8 41.07-60.99 84.8-88.7 126.76zm707.63-701.83c60.19 44.91 302.98 229.05 360.88 264.35-13.09 25.57-36.98 84.29-54.77 105.81-8.56-3.76-3.3-.99-11.05-6l-138.32-111c-10.65-8.28-17.52-15.23-27.67-24.22-19-16.84-38.92-29.02-57.96-45.73l-144.6-114.89c-32.74-26.21-45.04-42.82-87.37-68.15.79-25.6 17.37-56.15 24.88-81.33 52.53 7.4 85.09 43.17 135.98 81.16zm-4088.12-58.81-5.98 8.91 5.98-8.91zm0 0zm5.98-13.37 1.78 1.33c-.12-.08-2.38-.88-1.78-1.33zm3309.56-74c13.95-.36 6.31-1.2 16.79 5.16l96.72 79.84c63.47 56.4 68.21 21.22 36.46 116.84-20.81 62.64-82.07 211.26-117.08 257.24-1.59-75.92-41.56-422.35-32.89-459.08zm516.98 69.49c-18.31-15.43-44.4-40.09-63.57-51.56l152.37 39.17-17.33 66.37-71.47-53.98zm-915.04 467.83c-161.21-158.61-145.01-76.92-33.48-283.49 64.7-119.83 178.87-308.37 221.21-427.68 24.19 18.46 177.79 136.55 184.15 148.94 20.75 40.42-246.88 566.13-282.33 647.15l-89.55-84.92zm777.33-685.37 188.99 143.04-216.8-54.48 27.81-88.56zm-3810.16 497.99c28.43-60.42 236.41-407.13 236.57-407.64 4.94-15.71-3.85-8.02 7.6-25.87l116.5-118.43c77.62-76.13 50.76-67.4 117.68-76.93 122.14-17.39 244.6-37.95 364.51-58.06l915.48-146.41c100.77-16.42 70.18-30.06 195.46 78.67 54.5 47.29 161.46 129.48 207.78 174.54l104.75 91.18c243.21 217.45 514.41 456.09 741.76 681.34 73.29 72.61 427.21 410.22 476.44 469.07 20.54 24.54 25.44 243.53 34.36 305.87-141.59 3.44-293.18 11.47-434.65 18.74-715.12 36.78-1432.14 58.86-2147.28 93.3-137.75 6.63-777.67 45.05-860.16 21.22-4.35-58.46 37.47-462.31 46.64-552.3 9.26-90.81 15.45-182.52 25.32-273.16 9.55-87.78 22.52-188.31 24.86-275.39l-173.62.26zm4763.35 751.32c23.05 19.47 33.88 32.2 68.08 23.37-2.4-24.59-224.95-207.44-254.38-236.63l-175.13-154.79c-20.56-16.8-25.22-22.32-44.66-37.75-12.4-9.84-30.01-25.04-44.42-38.04l-154.97-134.05c-8.67-7.57-12.37-12.7-21.39-20.07l-633.33-525.64c-38.64-33.93-80.72-56.56-82.53-80.63 58.1 11.77 127.71 32.14 186.27 47.79 327.7 87.56 163.28 25.14 317.1 128.87 21.39 14.42 40.06 32.91 59.85 49.16 57.65 47.36 2.93 28.34 29.52 57.08 15.36-3.63 2.02 2.37 16.63-9.36l5.64-5.6c.48-1.66 1.68-2.09 2.75-3.01 15.8 19.96 85.23 71.1 118.45 99.29l92.21 73.85c72.05 52.18 141.26 114.4 209.15 169.42 36.47 29.56 38.38 11.14 38.79 55.44 32.09-1.95 9.43-8.38 30.67-.09l121.94 100.44c30.1 22.44 43.01 36.49 72.36 57.25 67.76 47.91 33.7 39.61 35.89 61.22 13.96 5.04 24.23-2.95 33.84-6.98 12.56 17.68 176.54 151.51 190.2 156.33 30.3-17.63 67.74-118.04 95.66-134.59 28.08 3.15 11.05 14.14 37.57 7.95 8.46-18.86-86.25-77.14-106.81-92.31-111.47-82.24-484.81-348.18-565.88-420.33l-266.08-195.81 513.24 132.09c86.22 23.05 172.54 44.02 257.51 66.6l238.89 62.8c10.01 4.11 4.62 1.38 11.21 6.33 9.13 19.07 20.22 234.83 22.69 274.3 7.11 113.44 63.05 820.01 54.95 830.85l-831.66-77.72c5.59-9.14 149.06-164.17 204.39-249.31 14.95-23 37.72-71.08 53.33-90.04 22.48 12.51 43 35.87 62.46 52.32zm-1982.84-912.47c11.95-24.64 22.66-47.67 34.67-72.33l199.76-453.07 181.44 142.04c17.03 29.7-167.84 353.31-195.57 400.68l-111.42 193.67-149.07-138.68 40.19-72.31zm837.9-377.22c-9.92-7.83-68.31-53.74-71.36-58.19-7.27-10.6 8.99-68.66 18.84-83.91l222.34 164.34-25.97 86.14-143.85-108.38zm-1057.58 284.44c-21.54-17.96-25.23-16.97-11.47-43.52 82.98-160.04 197.16-402.63 251.71-556.78 16.74 12.22 30.68 26.09 48.83 37.52 49.19 30.98 84.65 73.5 142.02 107.45-1.63 48.23-238.9 572.11-268.74 606.58l-162.35-151.25zm-3999.9 1689.48c-20.13-18.82-20.79-24.41-15.54-54.31l23.18 2.87c14.1-28.34 195.58-224.61 232.25-265.34l1533.87-1712.41c39.28-43.91 79.88-93.5 120.45-133.09-11.03 74.02-4.68 76.8-42.38 106.56l-113.07 111.79c-65.57 65.1-120.09 132.46-177.97 201.49-38.67 46.1-77.77 88.84-116.98 135.61l-708.81 812.81c-126.26 144.77-556.39 636.12-696.62 763.93-22.31 20.34-17.61 22.29-38.38 30.09zm4960.44-2051.36c-37.07-33.16-45.86-32.12-70.36-51.79-134.97-108.33-155.91-100.95-130.45-195.45l223.45 164.3-22.64 82.94zm-1187.64 162.03c8.25-34.12 50.72-102.1 68.63-140.56l129.31-282.4c37.22-87.27 10.84-90.6 118.56-98.34 19.32 24.38 49.97 42.39 81.31 63.81 62.98 43.05 51.31 44.7 38.83 74.51-26.2 62.57-49.53 126.11-78.54 186.54-29.16 60.73-54.98 121.57-83.79 182.46-27.16 57.42-54.36 121.84-86.85 176.42l-139.76-122.67c-17.76-14.95-26.19-25.71-47.7-39.77zm-436.61-379c23.93-40.1 20.53-25.16 156.29-48.09 49.74-8.4 134.15-25.01 183.56-27.31l-127.53 256.06c-7.57-8.18-16.26-11.56-26.59-20.4l-185.73-160.26zm358.66-67.03c9.41-17.58 2.29-13.39 28.47-18.53l256.41-39.12c-17.11 45.66-189.66 440.21-225.21 482.01l-186.92-161.32 127.25-263.04zm15.73-31.24c4.62-12.06 96.85-237.35 111.9-250.79 19.18 21.76 67.69 55.01 94.55 76.51 109.5 87.63 99.17 57.2 70.75 130.22l-277.2 44.06zm511.91-215.78 57.8 40.96c-6.54 36.13-20.29 32.95-5.63 51.02 36.43-8.8 4.48-10.55 32.11-33.29 31.65 34.02 83.74 63.38 112.73 85.06 20.29 15.17 36.06 27.4 56.62 42.46 46.12 33.78 20.24 10.95 33.18 59.91 35.1-.96 7.93-7.7 24.76-13.99l172.91 129.62c27.09 25.49-12.7 43.14 10.1 67.09 21.91-7.18 17.2-17.1 20.35-39.34 35.8 12.9 104.05 81.54 129.08 107.15 19.02 19.46 37.95 40.6 57.49 59.58 36.92 35.86 13.26 36.62 15.28 57.14 1.98 20.15-6.95 6.06 10.96 14.51 3.58-1.96 14.14-.04 14.09-26.08 114.91 81.91 12.93 87.2 230.44 137.38l-5.73 29c-40.67-8.72-333.95-82.85-348.83-91.39-14.42-8.26-41.55-35.26-56.46-47.28-11.18-9.01-19.02-12.29-31.01-21.15l-366.35-292.99c-46.01-32.43-68.78-55.57-114.86-87.95-19.53-13.72-38.12-31.63-56.55-47.22-46.95-39.7-44.53-25.39-68.01-35.65l75.53-144.55zm108.4-31.25c31.14 9.76 101.23 75.75 118.76 94.55 72.5 77.76 70.69 52.88 60.36 125.91l-202.65-146.48 23.53-73.98zm-4331.24 2537.18c-15.05-9.71-26.13-21.28-40.91-36.1-48.94-49.07-63.77-44.81-30.04-83.93l168.07-195.53c92.77-102.57 176.07-212.24 270.21-315.53 93.73-102.84 178.86-212.8 270.24-315.44 93.33-104.85 179.49-208.4 270.43-315.25 90.27-106.06 183.24-209.32 270.44-315.17 167.82-203.73 372.89-426.65 540.99-630.26 70.28-85.14 208.32-235.34 269.77-313.91-14.43 72.16-31.49 145.07-47.12 217.33-12.88 59.53-21.44 157.31-62.63 202.59-91.15 100.21-178.79 199.48-268.01 299.21l-1545.81 1725.79c-18.04 20.15-53.85 55.43-65.63 76.2zm3487.68-2466.87c21.58-40.5 42.94-78.69 61.57-118.95 11.29-24.4 43.02-104.63 55.87-117.78l196.2 150.88-107 244.58c-10.93 25.04-4.34 22.1-65 31.59-30.28 4.74-57.76 8.99-88.63 14.08-59.72 9.85-118.69 18.63-180.05 28.8l127.04-233.2zm-1526.37-117.04zm2583.1 155.33c-27.91-.44-25.78-1.81-40.95-13.68l-86.49-64.78c-66.17-49.67-88.04-81.5-102.98-92.62 19.61 1.66 151.88 46.7 181.09 56.77 58.4 20.14 119.72 38.25 179.65 57.91l1077.79 350.69c306.22 98.37 177.65 48.65 315.77 151.95l240.95 203.46c39.91 36.64 80.51 67.55 123.03 104.22 40.07 34.57 75.98 67.24 119.86 102.3l180.54 155.39c7.72 7.33 54.44 46.03 55.87 46.66-50.5-7.66-432.66-108.82-512.83-129.66-173.17-45.01-343.49-88.1-516.99-131.66-41.65-10.45-235.87-57.35-255.32-67.85l-348.78-256.88c-30.32-22.57-56.47-41.9-87.13-64.29-94.99-69.36-40.27-35.02-57.74-72.6-45.22 3.41 11.57 38.73-62.36-16.08a9169.691 9169.691 0 0 0-60.17-44.28l-296.69-224.38c-20.09-14.93-43.79-22.02-46.12-50.59zm-331.78-104.74c-26.71-31.71-45.71-35.62-75.17-59.31-23.66-19.04-16.61-73.1-18.78-103.84 38.72 15.85 94.1 69.68 132.66 93.2l-35.05 67.24c-.54-.77-2.33 1.9-3.66 2.71zm-1085.16 178.59c8.07-28.8 172.69-310.03 205.36-374.39 17.92-35.29 50.44-96.13 57.8-132.44l191.06 138.54c-6.59 54.17-94.5 211.74-123.72 265.62l-122.49 220.35c-48.79 54.72-136.45-87.73-208.01-117.68zM7674.25 12855.9c16.28-23.05 46.18-48.61 68.57-73.21 154.18-169.43 323.7-334.66 476.75-504.65l271.84-287.48c94.87-95.94 180.51-191.73 272.32-286.99 92.91-96.39 184.91-194.44 273.99-290.42l543.56-575.11c38.58-41.71 247.13-249.64 269.93-287.6 36.88 13.25 113.48 81.02 146.73 106.45 25.01 19.13 45.7 35.08 70.95 54.05 32.19 24.18 64.17 35.32 47.45 53.69-37.61-15.97-70.13-45.3-100.6-67.43-10.8-7.84-20.73-12.91-32.57-20.4-39.7-25.1-87.56-69-132.01-87.45-8.67 16.72-35.53 39.43-49.54 54.75 17.21 12.56 94.35 47.97 141.04 85.22 31.25 24.92 68.62 43.51 102.14 66.61 10.88 7.5 18.18 15.12 27.57 21.7-12.86 12.59-6.7 12.65-23.45 21.72-39.42-31.04-93.07-56.54-135.94-83.64-48.99-30.97-90.26-56.63-137.42-84.18-28.6 19.43-63.3 63.96-78.88 88.94 71.79 10.83 108.52 38.78 153.05 78.12 28.69 25.34 69.45 43.43 99.25 68.79 14.42 12.27 11.87 12.63 26.72 21.07-9.37 12.5-17.89 21.22-24.17 33.24-32.71-14.75-50.68-12.78-82.47-34.87l-195.13-132.31c-1.17.77-2.61 1.9-3.3 2.45-.69.55-2.39 1.78-3.22 2.46l-36.07 36.03c-17.41 18.58-23.74 22.32-37.85 42.32 58.39 8.49 52.84 10.95 85.75 34.37l193.59 136.74-24.76 32.8c-67.21-13.9-135.42-74.25-180.8-107.22-11.55-8.39-16.42-14.77-27.74-23.71-19.45-15.37-44.36-34.39-69.04-43.43-19.34 25.94-55.79 55.33-81.06 79.72 25.81 14.91 43.37 1.93 87.95 32.23l135.57 95.1c15.8 10.61 15.69 11.42 31.78 25.17 10.91 9.32 19.3 13.46 32 22.48l-27.67 32.83c-62.47-6.89-59.11-3.28-90.6-31.12l-194.87-149.09c-18.76 25.38-53.38 57.49-75 82.93 69.48 23.62 101.96 49.88 151.1 87.82 36.5 28.18 100.88 71.6 129 100.8l-24.66 27.97c-16.94-7.1-25.69-8.86-51.55-9.68-35.13-1.12-125.82-95.66-160.56-118.85-22.83-15.23-41.56-34.16-59.57-52.39-25.62 9.81-77.49 62.45-90.37 78.6 43.1 15.43 52.11 7.76 87.67 33.39l199.19 158.22c-7.7 8.86-14.76 17.39-21.94 28.78-38.26-18.21-65.51-11.88-94.19-30.67l-68.75-46.73c-21.21-16.46-119.11-83.62-140.49-90.81-13.57 10.03-51.09 52.86-56.01 63.59 71.79 11.57 50.61 1.95 88.75 36.45l129.93 103.56c19.02 17.36 42.31 35.02 64.69 49.95l-30.81 40.11c-26.27-5.94-17.17-10.56-53.38-13.63-35.51-3.01-25.27.28-45.7-19-22.76-21.49-46.1-34.44-69.66-54.94-27.99-24.38-117.8-99.99-144.02-110.98-8.93 26-41.93 48.97-49.4 73.76 16.45 6.33 36.22 7.47 50.8 14.28 32.46 15.18 189.74 151.01 240.39 184.84-6.22 15.3-17.97 29.33-31.01 39.76-36.92-29.49-41.02 7.6-88.93-38.3l-194.16-158.41c-12.27 8.76-67.15 59.4-74.51 69.2 16.6 8.89 30.92 6.94 50.11 16.02 29.22 13.83 45.44 38.55 68.6 56 49.24 37.12 131.8 94.34 169.37 137.35-10.9 15.9-16.27 15.55-24.06 33.01-79.75-30.64-50.79 6.36-102.21-33.38l-66.28-52.82c-12.99-10.31-19.22-19.63-32.22-29.76-14.15-11.03-19.72-12.63-32.34-24.74-14.61-14.02-50.32-44.75-66.87-54.22-29.75 14.32-50.55 40.34-76.34 58.42 82.43 8.33 62.41-9.46 106.77 31.75l167.1 156.22c16.63 15.22 19.94 14.78 29.31 33.19l-37.37 35.36c-20.15-34.14-43.05-4.98-89.64-44.69-20.19-17.2-51.32-34.42-75.32-50.9-48.42-33.26-99.98-79.4-151.98-106.06l-43.02 55.38c84.18 5.04 58.7-6.12 102.06 35.4 37.3 35.72 162.54 155.76 200.41 179.61-7.12 14.55-21.06 28.47-33.18 38.8-31.47-12.05-51.57-6.31-86.84-1.39-41.7-28.61-78.27-70.67-113.29-103.55-21.38-20.07-35.4-32.54-56.3-51.48-17.46-15.82-35.95-36.55-57.59-49.89-22.09 11.72-59.23 48.44-68.19 63.95l70.32.49c11.15 3.2 236.22 221.65 240.42 225.87-9.28 12.89-19.88 28.68-33.3 38.4-29.83-20.69-24.35-18.27-78.56-18.1l-178.48-146.47c-24.5-17.04-30.43-31.37-59.83-48.44l-12.82 7.69c-9.16 7.02-.63.18-7.9 7.3-4.6 4.5-8.65 9.04-15.11 15.51-11.09 11.12-19.4 19.57-28.28 29.96 98.56 9.43 51.3-7.54 105.25 37.54 52.1 43.55 178.12 140.49 219.46 182.34l-34.47 44.07c-23.26-7.46-1.69-7.99-34.28-9.86-15.3-.88-32.67 2.16-49.57 2.55l-228.42-208.94c-6.96-5.18-8.97-6.48-15.49-10.32-16.04 10.21-56.07 50.61-64.01 61.86 18.59 7.93 45.46 6.51 62.26 14.6l190.71 156.52c25.12 23.84 54.56 37.34 74.98 65.15l-33.72 38.23c-9.84-20-20.72-17.62-51.17-19.56-43.66-2.8-60.6-34.53-86.56-56.59l-73.68-65.24c-32.41-27.63-83.18-66.65-107.23-97.38-22.91 13.92-57.7 52.88-64.06 73.43 34.8 2.22 47.59-1.53 66.9 12.57 48.75 35.61 82.9 75.73 127.18 114.63l54.5 48.51c11.89 11.24 24.07 21.62 35.39 31.51 15.22 13.29 22.85 21.89 36.1 31.8l-36.14 44.17c-30.99-20.61-44.86-10.85-85.94-3.09-25.18-37.09-83.35-82.34-119.82-115.54-31.92-29.07-85.84-90.73-122.98-112.67-23.45 11.06-43.23 32.55-63.72 47.81 21.28 8.97 45.43 6.87 62.91 14.86 19.48 8.91 101.42 80.7 119.74 97.39 48.72 44.39 106.16 86.26 153.6 133.28-12.36 18.77-36.46 38.07-45.69 59.27-.96-.94-2.08-2.3-2.65-2.93l-14.3-17.4-54.45 6.95c-48.49-36.16-92.18-82.28-134.66-123.8l-98.75-91.2c-5.94-5.54-11.64-11.23-15.63-14.73-4.3-3.78-4.32-4.22-9.51-7.65-13.13-8.65 11.33 1.72-13.72-6.73-15.05 25.52-50.5 46.49-63.79 72.3 82.46-6.53 50.7-15.77 99.61 21.48 61.07 46.51 114.04 101.45 176.1 149.48l79.23 66.33c-6.46 18.89-26.58 33.41-39.19 51.89-31.91-16.37-29.8-6.18-63.48-9.07-19.99-1.71-68.17-52.64-85.65-67.92-29.56-25.86-165.38-156.49-203.87-175.48-7.77 9.79-14.88 17.71-25.34 28.33-5.32 5.4-10.25 9.41-15.55 15.15-11.99 12.96-4.9 2.26-10.51 14.54 26.27 9.46 43.87 7.51 62.62 20.29 30.87 21.05 56.82 48.23 82.67 72.07 53.65 49.49 114.33 93.53 164.56 144.77 27.71 28.27 28.69 10.18 42.78 16.8l-62.67 73.34c-4.27 4.86-5.78 6.57-9.94 10.48-.83.78-2.12 1.92-2.9 2.62l-6.41 5.3c-.53-.77-2.23 1.81-3.37 2.69-19.36-24.95-53.21-53.08-78.16-74.88-81.59-71.28-154.58-146.66-238.46-213.76-16.29 13.45-38.52 37.28-46.44 54.12 50.62-.15 39.2-4.7 63.16 17.58 53.91 50.16 247.76 199.3 284.38 238.33l-48.21 57.96c-2.77 3.12-6.47 6.99-10.16 10.46-10.08 9.48-2.26 2.22-9.71 7.53l20.55-35.49c-35.05-1.08-52.61 1.91-70.81-14.97l-268.71-248.36-22.66 16.16c-6.3 5.78-9.75 9.62-18.11 17.5-11.94 11.26-24.02 21.26-32.21 35.08l54.41-1.92c22.97 24.09 54.23 43.55 77.81 65.85l239 191.92c-13.71 25.05-36.51 39.32-49.31 64.78-.58-.94-.59-2.49-.8-3.06-.2-.54-.6-2.31-.88-2.95-7.99-17.88-30.41-10.01-54.95-16.38-28.64-7.44-106.28-86.73-131.53-106.17l-85.86-74.11c-9.42-8.39-11.64-12.21-21.4-19.83-21.28-16.6-48.43-36-62.08-55.5-23.95 11.39-48.72 44.02-65.45 61.45 94.01 14.56 53.25 7.67 114.7 52.52l87.04 73.21c11.14 8.27 12.28 10.86 21.7 19.71 45.84 43.09 103.72 79.45 146.72 127.35-10.98 17.34-55.05 67.85-71.11 82.71-14.48-10-32.74-28-46.68-40.29l-278.79-246.52c-10.35-9.6-35.55-33.39-43.59-38.98zm4427.31-2381.38c29.74 15.16 77.24 55.4 106.78 76.71 43.92 31.68 38.62 42.02 41.23 123.89l-126.1-91.8c-13.04-10.78-26.35-17.37-40.88-28.22l18.97-80.58zm-844.56-80.76c18.64-41.38 36.12-90.28 56.58-130.45l207.17 153.89c-9.49 95.22-223.32 408.82-259.94 504.14l-100.88-74.4c-30.41-25.15-59.82-50.3-92.14-73.36l189.21-379.82zm804.66 146.3c-48.85-28.43-77.5-56.67-128.87-90.91-81.88-54.57-55.02-30.85-39.37-129.02 43.13 27.49 86.06 62.99 128.56 93.75 16.12 11.66 57.57 35.04 58.29 51.09.26 5.89-15.88 68.77-18.61 75.09zm-341.86-349.19c36.74 28.45 73.74 55.15 112.64 83.56 48.39 35.34 42 23.92 36.93 50-4.49 23.05-10.08 46.1-15.23 69.1l-141.61-95.79 7.27-106.87zm-1681.13 1105.26c13.93-118.52 24.86-110.39 92.68-186.16 44.64-49.87 87.6-97.79 133.99-149.62 82.89-92.61 765.37-845.26 806.33-903.2 101.21 79.77 396.32 276.16 454.59 329.64l669.58 498.95c25.96 16.21 59.84 34.71 68.35 55.78-31.62.26-54.22-23.81-70.13-36.58-20.6-16.54-36.99-29.67-57.65-46.25l-119.19-89.28c-39.72-31.73-75.94-60.37-116.51-91.47-40.37-30.96-72.1-60.93-119.37-89.14l-356.84-268.76c-109.53-82.66-117.42-100.09-133.23-65.09l-253.03 522.3 376.06 299.36-1375.63 219.52zm1515.14-1228.91c10.83 14.06 82.71 62.96 104.24 78.79 53.78 39.58 35.93 29.5 33.49 132.13l-167.46-114.98 29.73-95.94zm990.74 629.64c-34.47-11.94-71.47-26.31-104.64-33.39l-106-517.76 445.33 158.24c38.54 15.41 74.89 25.1 114.68 39.8 135.37 50.04 1196.57 424.64 1218.16 437.19 8.99 88.35-12.76 41.51-7.17 104.07 10.86 121.57 9.98 215.49 15.23 333.75-28.82-5.09-82.11-24.15-108.64-33.46l-1466.95-488.44zm-2372.82 72.27c-11.75-39.85-5.01-28.61 20.73-59.04l657.51-769.59c40.73 12.25 149.71 82.31 198.68 101.36-15.99 29.39-94.48 116.77-118.83 143.96l-739.46 825.44c-12.42 13.86-116.53 130-118.05 133.75-.82-40.77 30.09-144.74 40.16-192.13 6.94-32.63 14.27-66.69 21.26-99.46 27.7-129.84 23.37-58.76 33.44-82.46.7-1.64 3.16-1.08 4.56-1.83zm1164.89-730.59c12.93-24.66 45.13-60.42 65.11-81.71 27.32 10.75 47.11 30.78 69.91 47.45 77.9 56.95 61.83 42.21 33.57 146.62-18.11-6.23-153.05-99.95-168.59-112.36zm-132.19-62.34c15.45 11.73 23.51 14.66 38.5 24.98 98.72 67.93 38.22 20.43 60.67 61.48 30.77-.99 1.25-17.77 37.39 2.89l367.97 251.93c20.48 16.74 42.48 28.91 65.99 44.47l392.79 277.5c12.39 9.03 18.59 16.78 30.63 26.04l161.67 112.39-71.69 149.08c-17.9-6.98-11.76-4.18-26.13-15.15-252.07-192.44-464.12-353-728.13-544.27-50.28-36.43-99.31-74.3-150.39-110.6l-269.23-191.57c-14.01-12.06-18.5-18.96-32.18-24.35 11.63-15.29 26.41-28.88 41.47-44.82 14.64-15.5 25.35-26.82 38.82-45.68 15.51 7.6 27.34 14.66 41.85 25.68zm-771.32-26.89c36.36-73.03 15.27-69.54 91.14-87.76 53-12.73 103.09-29.11 154.71-40.93 27.34 21.82 46.47 31.11 76.83 53.15 20.68 15.01 63.33 37.79 78.38 53.4l-83.26 98.67c-27.85 34.02-53.65 63-84 97.74l-502.4 584.36c0-34.85-5.43-38.77-59.98-66.64l328.58-691.99zm443.64-27.23c22.99-16.48 63.97-70.58 88.54-87.3 57.35 30.08 119.27 65.02 178.23 93.12-7.46 12.02-76.79 85.13-89.48 91.41-29.89-17.52-59.92-31.52-89.35-47.21-27.55-14.69-66.26-32.07-87.94-50.02zm427.9-143.01c43.93-48.9 82.75-103.12 127.38-150.02 16.54-17.38 19.84-15.51 51.89-23.48l181.05-47.91c40.54-10.21 217.7-63.65 241.15-59.56 14.09 19.48 7.2 17.66 9.61 41.43 1.61 15.81 8.45 22.82 16.78 36.55l133.04 194.81c58.7 85.08 115.17 171.42 174.74 257.5 30.43 44 68.53 84.68 79.38 136.54 11.73 56.1 24 110.78 33.99 166.45 8.91 49.72 64.23 313.43 56.96 342.28l-274.65-206.66c-6.51-4.78-12.09-8.31-17.61-13.32-43.03-39.13-22.25-12.23-54.19-35.58-24.38-17.82-44.32-33.3-68.53-51.42-24.29-18.17-44.2-33.3-68.74-51.25-5.84-4.27-12.99-8.94-17.54-13.55-7.57-7.66-8.94-12.94-13.2-16.66-8.1-7.07 1.3-.45-10.11-6.26l-27.71-14.89c-94.38-70.11-183.29-137.45-277.3-207.68-47.23-35.28-89.92-67.44-137.15-102.72-26.06-19.47-115-94.62-144.42-97.98-5.39 28.45 44.77 58.01 83.98 83.41-10.5 26.93-50.41 59.18-63.1 87.07-18.12-5.3-133.18-84.22-144.48-94.67l128.78-152.43zm-600.71 36.57c13.67-7.2 101.85-30.2 124.27-35.58 30.26-7.26 35.02-1.23 56.09 11.4 8.65 5.18 15.71 8.21 24.29 13.31 13.93 8.29 13.19 7.85 19.34 15.49-18.54 21.08-64.02 69.7-75.14 90.25l-148.85-94.87zm-78.12-52.82c30.42-19.47 61.48-36.63 86.23-64.26 29.36 4.7 101.46 52.44 126.85 67.39-169.42 43.27-134.49 55.63-213.08-3.13zm347.23 48.11c19.92-24.16 48.31-48.18 72.14-73.72 17.25-18.48 16.58-19.34 47.26-27.15l310.88-81.28-240.75 281.32-189.53-99.17zm2681.71 321.75c25.53 14.23 389.2 425.84 416.41 456 36.75 40.73 184.58 203.16 201.79 235.95l-137.87-47.81c-68.28-33.14-137.95-55.68-213.84-80.89-218.11-72.43-477.14-170.95-700.24-248.64l-439.08-154.52c-28.19-9.69-60.02-22.59-88.11-32l-348.3-123.52c-24.17-9.4-19.95-5.74-31.89-25.02l-310.36-486.55c-19.21-28.59-76.61-104.29-74.17-133.75l176.36 62.52c59.38 20.01 115.31 41.91 173.37 62.37 117.81 41.5 229.22 84.7 346.03 125.14l696.18 251.67c136.88 49.95 211.89 71.11 333.72 139.05zm-2193.69-535.35c46.21-62.2 301.9-348.36 314.91-375.08 27.18 6.66 78.9 30.13 104.05 41.25 32.34 14.31 65.62 27.22 99.17 41.88 65.57 28.66 127.2 53.41 194.45 82.18l787.24 331.12c121.72 50.21 137.44 43.8 172.78 102.77 14.33 23.93 27.43 64.92 50.97 78.03 15.31 8.52 29.36 14.29 46.94 22.89l42.62 24.07c-32.12-6.5-179.52-62.34-227.54-77.76-147.9-47.5-303.5-108.94-444.73-154.25-71.98-23.1-152.67-50.83-221.24-76.11-71.88-26.5-150.35-54.72-223.45-78.17-282.76-90.71-162.35-108.67-457.43-25.77-39.59 11.12-79.59 20.99-119.04 31.74-31.93 8.7-88.08 26.71-119.7 31.21zm-378.06 102.39c42.13-49.01 86.57-92.93 132.14-143.34 42.98-47.54 83.97-95.65 124.15-143.63 42.19-50.36 78.51-96.53 117.54-148.64l112.29-151.66c27.59 22.89 52.07 41.79 88.85 58.01 22.76 10.04 85.32 32.69 98.98 43.95-62.49 65.59-182.42 220.02-255.79 301.38-62.68 69.53-57.28 88.91-113.2 102.54-21.45 5.23-39.17 10.78-61.56 16.5a5368.625 5368.625 0 0 0-123.12 33.03c-36.09 10.16-84.46 24.85-120.28 31.86zm-70.66-209.73c16.06-10.84 32.67-20.68 46.81-31.99 17.9-14.33 23.08-19.41 41.13-31.52 102.8-68.99 272.86-172.38 378.98-231.03-16.11 30.91-117.07 157.65-145.48 191.16-52.6 62.05-100.62 120.26-154.76 178.68-29.13 31.42-53.01 56.74-80.48 87.07-47.41 52.37-43.4 55.26-101.93 70.93-81.25 21.75-110.33 39.62-143.77 20.45l-106.22-64.84 265.72-188.91zm401.33-280.04c11.79-37.71 62.62-141.07 65.77-169.28 15.53 8.48 28.31 28.84 59.78 44.55-43.09 60.68-55.42 89.74-125.55 124.73zm-1158.92 186.94c13.29-8.87 44.72-44.39 58.01-58.41 83.74-88.35 218.7-178.98 335.57-239.87 52.31-27.25 103.46-50.3 161.51-74.54 23.09 6.45 91.25 40.61 103.81 57.91-25.05 11-51.19 32.29-73.92 47.87l-443.44 306.74c-15.84 10.67-17.19 15.06-34.84 23.19-20.12-7.52-94.05-50.85-106.7-62.89zm1320.39-292.12c15.3-49.46 83.43-116.27 99.61-168.33 37.62 12.32 82.5 36.6 117.98 53.37 34.17 16.14 75.13 36.11 111.21 50.18-8.34 18.41-114.92 136.89-137.46 164.37-35.26-13.83-70.1-29.85-106.37-44.34-52.88-21.12-47.27-39.12-84.97-55.25zm-1350.04 97.09c111.37-87.28 310.97-202.96 445.58-253.18l97.73 51.5c5.75 3.07 10.1 5.02 17.37 9.44l10.48 7.08c.59-.82 2.39 1.68 3.5 2.58-67.19 20.16-181.35 82.24-242.3 118.39-93.49 55.43-218.85 151.68-286.52 227.69l-29.06 26.9c-30.07-16.67-124.15-66.98-142.77-85.39l125.99-105.01zm-247.02 40.88c12.4-21.14 40.61-37.84 59.44-55.81 78.78-75.19 234.17-170.58 339.86-232.35 46.15-26.97 101.51-52.37 152.55-77.45l111.76 57.14c.88.54 2.4 1.52 3.18 2.01l8.82 6.38c-63.41 38.06-186.16 78.73-307.88 162.12-48.56 33.27-159.99 109.39-198.14 146.44-13.28 12.89-46.62 43.1-61.23 51.08-23.91-14.4-83.84-50.04-108.36-59.56zm-120.04-72.88c65.42-69.03 167.55-137.97 248.87-198.39 49.48-36.76 278.11-162.08 283.22-166.39l114.69 57.56c.93.57 2.45 1.54 3.27 2.07.82.52 2.51 1.73 3.17 2.16.66.44 2.64 3 3.11 2.24.48-.76 2.08 1.51 3.1 2.28-15.25 10.57-55.46 28.03-78.74 39.6l-151.49 83.37c-45.7 25.87-195.95 132.19-231.15 161.62-11.52 9.63-18.26 17.54-29.79 27.22-21.59 18.12-37.37 33.11-59.43 48.83-25.18-9.98-86.57-46.78-108.83-62.17zm-82.35-49c51.01-57.97 173.96-149.49 243.16-197.54l65.2-44.65c40.37-27.38 173.76-102.37 217.61-119.18l77.48 40.62-147.39 81.51c-161.95 98.01-196.62 127.27-331.47 234.35-16.67 13.23-17.44 15.09-30.01 26.72-8.84 8.19-19.87 14.45-25.87 20.41-18.84-11.31-52.68-26.86-68.71-42.24zm-96.14-53.46c14.38-37.49 190.85-184.47 223.9-207.54 43.81-30.58 219.53-145.34 284.62-161.56 29.03 13.39 73.02 35.38 100.71 52.81l-147.58 80.89c-125.22 68.04-150.29 103.63-233.97 159.88-47.44 31.9-104.17 91.36-142.18 123.49-15.13-5.56-70.83-36.77-85.5-47.97zm-104.28-60.44c34.32-40.1 62.34-75.58 100.1-112.35 82.78-80.6 272.6-228.76 389.45-263.87 7.97 7.75 94.13 53.83 108.68 60.51-53.48 27.34-99.61 49.36-147.33 77.29-96.87 56.7-313.84 215.89-355.59 291.09-44.51-16.94-73.32-42.84-95.31-52.67zm-100.42-54.03c19.26-33.8 72.15-82.09 100.14-110.66 70.08-71.53 301.78-245.75 379.92-265.5l92.29 51.32c-60.27 16.11-226.28 126.17-270.99 163.54-61.42 51.34-171.4 146.18-209.26 209.26-33.4-11.78-58.93-36.33-92.1-47.96zm-124.13-77.09c64.57-77.12 141.62-140.27 217.84-198.76 36.57-28.06 211.8-150.37 266.78-162.87 23.41 11.53 90.15 43.75 104.35 56.22-42.28 18.23-97.47 53.44-134.2 78.09-47.04 31.55-79.25 50.67-125.73 89.27l-60.21 48.73c-21.16 17.59-36.04 31.14-54.12 48.56l-100.76 106.82-113.95-66.06zm-111.36-62.03c41.08-62.68 110.6-133.09 174.1-185.65 58.34-48.29 212.94-141.26 302.31-175.1 33.56 13.34 70.8 35.44 102.2 53.04l-138 80.38c-45.95 28.23-84.18 56.24-122.86 86.55-79.83 62.55-153.39 122.44-216.93 197.53-18.68-7.11-85.27-45.85-100.82-56.75zm-717.94-387.09 957.73 554.13c44.57 25.43 86.58 50.7 134.66 77.83l687.99 396.27c45.36 26.64 89.01 50.71 134.64 77.83l270.77 158.29c-23 20.13-67.24 46.82-88.41 66.43l-95.75-61.95c-28.16-20.85-66.72-42.48-96.01-62.49-34.08-23.28-166.29-121.62-195.02-118.62.26 15.5 22.92 27.7 36.85 36.07l190.39 125.75c17.7 10.71 28.53 21.33 46.42 32 29.09 17.35 64.36 47.38 91.65 60.62-15.85 13.17-32.75 21.96-48.81 34.9-19.08 15.36-25.19 20.73-44.36 33.63-54.94 36.95-42.06 23.43-71.42 85.2-32.33 68-64.5 135.01-97.44 203.56-33.29 69.28-63.34 134.94-97.44 203.55-29.83 60-62.56 147.54-97.02 199.2 5.37-27.63 30.98-75.65 44.06-105.24l225.13-509.51c46.09-104.62 18.47-89.08 99.51-125.99 29.08-13.25 40.61-13.46 50.36-30.29-13.85-15.11-68.15-43.83-90.81-57.97l-185.15-111.62c-50.46-30.28-60.05-48.52-98.26-32.99-12.97-18.6-404.08-257.45-433.16-274.88-39.45-23.66-73.34-45.66-110.92-68.84-171.43-105.71-390.75-238.51-550.15-342.71-171.23-111.94-416.55-258.89-604.16-374.2-15.92-9.79-33.52-26.92-53.3-26.82-4.19 8.31-1.73 12.4 4.19 18.5 5.45 5.6 10.37 7.05 16.46 10.49l453.36 281.54c14.12 9.28 21.65 13.01 35.94 22.16l32.39 23.16c-32.68-11.54-42.97-23.05-73.65-34.67-83.63 31.47-100.83 58.18-127.7 33.35l109.87-44.17c-13.59-15.94-62.67-45.43-83.8-57.98-47.7 10.96-91.41 53.76-123.87 42.98 8.89-13.01 28.25-19.19 47.39-29.01 17.34-8.89 32.06-17.82 48.31-27.65-1-.87-2.5-1.95-3.23-2.46l-94.15-47.01c-71.13 36.12-75.09 54.66-100.4 39.94 28.44-20.27 73.78-33.66 100.4-52.84-20.72-15.6-55.62-40.08-78.39-52.33-21.29 7.11-38.91 17.52-60.69 28.75-54.09 27.87-44.95 22.97-62.59 13.48 10.72-12.35 49.18-26.66 71.88-37.48 8.94-4.25 4.87-1.78 14.48-7.56 5.9-3.55 6.55-4.35 11.81-8.34l-61.55-49.39c-42.34 8.53-91.06 57.42-127.85 45.56 6.6-14.38 74.49-44.53 94.47-53.08-19.08-16.04-28.13-24.49-52.67-34.95-14.6 4.7-82.45 38.99-92.92 48.36-17.05-5.95-36.22-14.17-44.86-27.62l234.8-82.87zm608.05 326.17c30.79-63.39 188.53-195.36 266.69-248.96l62.38-42.6c26.97-18.18 102.22-64.85 131.68-74.61 32.97 16.52 79.79 44.71 114.45 57.1-20.19 14.22-51.66 26.11-75.07 38.07-166.82 85.28-302.94 183.83-401.33 324.83-33.53-13.84-63.62-38.96-98.8-53.83zm-123.72-73.35c35.95-44.59 126.78-137.96 177.77-178.23 54.04-42.69 226.05-162.81 287.13-176.84 35.09 17.81 68.7 36.07 105.86 53.8-39.5 28.13-93.22 51.3-130.64 78.1l-121.36 87.93c-108.65 75.92-173.28 170.59-206.6 197.62-32.1-11.49-80.96-45.87-112.16-62.38zm-96.61-57.62c19.45-39.25 93.71-124.13 131.3-160.21 77.67-74.55 184.13-156.35 298.68-204.68 28.09 10.13 88.73 43.59 117.32 59.18-44.98 21.36-93.34 51.41-133.78 75.09-115.25 67.45-104.01 72.93-177.84 130.45-18.72 14.58-37.27 31.59-54.54 48.36l-97.92 101.2c-28.22-14.6-57.7-32.31-83.22-49.39zm-111.8-63.62c26.38-36.71 48.9-71.84 78.01-108.2 83.51-104.35 186.12-198.65 308.33-272.93 49.09 16.36 95.25 52.07 144.27 70.46-18.04 15.35-46.64 25.29-69.45 38.11-21.88 12.29-44.48 25.95-63.04 37.76-82.45 52.45-154.58 119.86-215.86 186.64l-85.34 104.79c-5.57-4.8-37.43-21.37-47.66-27.05-18.02-9.98-33.65-20.24-49.26-29.58zm-96.8-56.66c19.49-44.53 216.46-238.41 285.48-290.01l58.31-41.06c19.26-14.04 32.86-30.14 55.65-38.57 14.58 5.89 24.6 12.5 39.24 19.53 9.26 4.44 8.21 2.78 18.16 8.82l16.56 13.37c-57.44 21.78-175.94 127.1-219.34 170.66-38.4 38.55-147.28 158.81-165.41 207.74-16.23-6.29-78.7-41.2-88.65-50.48zm-108.38-62.37c9.52-18.28 245.56-246.89 282.66-283.63 31.13-30.82 60.67-62.54 93.63-91.08 40.86 13.73 78.67 42.44 119.5 58.48l-215.27 173.64c-79.25 69.72-125.08 135.79-185.22 197.33-22.67-11.2-79.78-40.86-95.3-54.74zm-66.05-38.69c-3.21-61.59 27.74-79.82 62.28-115.41 29.65-30.53 60.62-60.44 91.56-92.12l182.46-184.71c30.91 13.95 65.25 35.89 94.65 45.82-10.35 20.03-72.2 76.12-93.75 97.47-33.05 32.73-61.91 61.35-94.9 94.09-60.35 59.88-123.58 126.97-188.57 185.35-29.54-10.91-29.78-18.87-53.73-30.49zm5653.58-2201.95c-9.54-16.01-38.64-40.02-32.84-53.03 1.03-2.31 38-52.16 40.5-54.54 14.28-13.57-.52-3.32 16.65-9.73 105.28-39.31 260.64-38.79 372.65-31.03 39.42 2.73 76-3.74 76.96 27.82 3.11 102.33-224.51 440.94-291.92 544.37-287.29 440.74-637.42 893.32-956.96 1322.54-107.74 144.72-220.42 287.55-330.36 430.79-110.41 143.85-220.89 283.98-332.81 429.25l-251.34 320.71c-26.69 34.17-61.96 72.58-82.85 107.25-131.65-23.38-313.27-146.15-407.4-164.64-20.17 16.02-136.6 121-144.5 137.11 15.85 17.62 167.02 81.23 200.99 95.73 136.18 58.12 274.59 124.6 407.75 186.07 32.5 15 66.53 29.82 100.39 45.53l99.87 48.52c-37.87-9.95-396.89-165.54-442.94-184.92-112.99-47.56-338.16-135.33-433.9-184.47 52.32-44.05 107.77-136.48 160.8-187.75 47.56 27.13 157.87 69.84 215.79 94.31 53.36 22.55 162.9 79.16 216.69 91.41l34.37-51.36c-68.76-35.84-139.45-62.76-212.93-95.24-71.3-31.53-142.53-64.35-213.55-94.5l33.33-42.29 324.1 145.51c74.88 33.83 41.66 28.84 72.77 43.68 5.09 2.42 21.48 7.5 31.58 10.84l72.36-101.93c-38.67-24.76-273.44-120.24-335.28-146.55-20.19-8.6-38.25-16.48-56.29-24.93-19.27-9.03-31.79-10.48-41.3-9.46-.24.03.98 16.03-4.92.7-.2-.52-1.52.5-1.78.43l784.3-1029.13c51.36 9.68 290.4 102.34 361.85 126.04 96.3 31.95 43.32 44.56 105.44 51.6l64.28-102.26c-124.35-33.66-243.99-77.89-365.41-115.68-72.28-22.49-53.05-16.83-94.22-53.09 14.56-12.66 22.77-29.02 36.24-43.08 119.01 33.79 239.19 76.42 357.62 113.79 88.07 27.8 39.62 43.93 103.72 51.3 14.35-31.27 54.14-66.62 64.43-95.54-30.33-14.71-103.44-32.6-139.82-43.98-45.99-14.4-89.68-27.77-135.56-41.42-43.07-12.82-180.96-38.68-175.31-82.52.89-6.94 25.62-36.61 34.11-43.41 27.65 15 193.91 57.15 240.6 69.8 43.71 11.85 83.94 23.25 125.43 35.62 63.33 18.88 43.06 40.72 96.19 51.73l62.76-107.92c-55.34-8.32-342.82-89.49-415.03-109.56-25.61-7.11-15.68-.04-26.51-15.92-15.21-22.27 3.68-51.55 26.8-66.56 63.39 22.92 164.13 46.68 237.48 65.88 41.94 10.98 76.22 20.86 116.81 33.25 33.65 10.26 29.84 6.61 47.39 27.06 12.2 14.22 19.35 17.96 48.18 21.96l71.32-101.39c-26.76-13.61-238.57-62.47-289.38-74.78-74.21-17.99-193.6-26.25-153.07-80.23 12.03-16.02 23.47-31.86 34.05-44.68 36.95 6.45 82.09 21.02 120.22 30.59l236.47 64.35c64.85 18.96 31.4 37.97 95.4 52.77 11.64-29.11 48.32-68.47 52.03-103.94-63.46-19.41-405.56-79.32-433.92-96.73-29.07-17.83 19.48-68.07 38.22-85.35 81.67 7.93 261.25 61.47 353.68 83.47 53.46 12.73 23.09 43.13 84.9 55.5l61.06-102.35c-28.54-12.07-108.3-25.18-146.07-33.28-47.65-10.23-261.41-47.64-280.84-67.25-23.98-24.19 24.67-64.81 39.73-88.08 59.96 15.18 115.54 32.07 178.19 46.25 63.14 14.29 124.99 22.93 190.19 36.46 14.64 23.48 18.69 43.75 57.23 45.04 19.95-11.28 58.3-78.02 67.17-98.18-113.56-11.77-246.51-43.45-361.48-64.15-26.43-4.77-45.7-4.04-60.06-22.52-24.72-31.8 22.91-55.79 37.76-85.56l344.18 64.09c35.86 10.28 21.21 40.94 74.07 49.12 15.97-13.25 55.76-75.92 60.51-95.32-42.04-13.17-174.61-27.52-227.65-35.5-201.19-30.25-128.64-13.63-189.82-58.05 8.59-14.24 39.19-56.66 52.05-67.71 28.26 1.08 309.09 33.85 336.04 44.85 32.38 13.22 20.92 44.16 70.5 45.7 20.94-15.36 53.88-65.89 57.9-85.21-35.84-10.12-174.72-22.49-223.81-28.4-111.31-13.39-132.49 2.3-179.68-56.24 9.07-23.47 40.31-48.04 50.21-74.02l332.79 38.44c9.56 30.07 22.93 56.09 68.01 51.56 18.08-5.55 49.44-75.48 56.35-92.22-97.43-8.6-196.35-14.53-293.15-20.91-24.18-1.59-54.22-.79-68.55-12.18-55.87-44.41-15.03-65.35 21.92-112.23l320.61 22.62c13.51 23.86 22.76 49.42 60.67 53.43 17.6-9.53 50.83-77.12 53.07-94.24-70.53.24-143.43-3.56-214.24-4.88-42.16-.79-118.46 9.23-145.44-16.72-38.65-37.17-20.02-29.39 36.33-107.75l302.6 8.08c12.2 28.94 24.54 55.5 75.3 50.14 19.84-20.57 34.57-56.64 42.2-83.03l-331.22 6.46zm-2513.34 2709.26c-21.61-9.24-15.96-5.91-1.41-22.3 93.69-105.42 188.25-226.46 281.84-334.17 101.28-116.56 199.88-237.53 299.2-356.31 295.43-353.29 611.14-717.77 900.66-1070.66 98.71-120.32 198.13-235.06 299.73-355.62 49.84-59.15 98.53-120.17 149.36-178.5 50.54-58.01 102.39-119.17 149.56-178.15 47.8-59.78 101.95-118.2 149.95-177.7 47.72-59.15 104.24-118.39 148.06-178.26l144.46.17-2271.89 2968.51c-40.01-14.13-83.4-38.13-124.25-56.55-23.77-10.71-38.99-18.35-62.9-29.01-52.49-23.39-31.55-8.53-36.92-38.87-30.49-5.81-13.48 1.58-25.45 7.42z" style="fill:#f1f1f1"/><path d="M12140.32 8787.34c16.53-33.62 51.79-59.58 68.92-93.39l428.83 186.78-70.65 101.94c-52.61-12.38-44.49-20.52-52.25-27.79-12.56-11.77-349.68-161.15-374.85-167.54zm105.76-134.25c20.92-29.43 48.82-58.53 70.56-89.95l428.17 185.39-75.63 102.03c-77.34-22.98 1.65-8.27-102.18-54.41l-320.92-143.06zm178.91-228.07 429.63 178.56-71.85 102.61c-8.65-1.41-26.83-5.92-34.1-9.73-24.84-13-1.62-1.88-18.74-17.21-12.69-11.38-139.06-62.22-161.09-71.74-73.15-31.61-143.57-63.85-216.2-93.17l72.35-89.32zm107.27-127.86 429.91 173.3c-5.99 22.78-52.64 84.99-67.61 105.41-65.14-25.87-23.76-1.29-49.83-26.81-12.65-12.38-241.87-103.74-274.29-116.51l-107.6-47 69.42-88.39zm37.15-46.38c21.46-29.21 42.49-60.35 65.99-91.83l449.88 164.61-76.54 110.35c-7.4-1.65-26.69-6.45-33.07-9.24-32.92-14.42 1.75-8.6-32.41-24.75-4.93-2.33-7.22-2.66-12.18-4.5l-361.67-144.64zm159.42-227.14 454.39 157.4c-6.94 19.78-54.33 90.35-67.67 104.75-85.48-20.38-11.61-19.53-98.95-51.81-39.16-14.47-74.94-28.4-115-43.38-40.39-15.1-77.83-30.05-116.24-43-38.73-13.06-72.17-29.3-112.45-40.98l55.92-82.98zm108.47-139.09 452.01 155.01c-6.6 13.26-52.9 93.37-70.11 105.75-29.22-8.95-30.27-8.29-44.55-20.82-8.51-7.47 4.48 1.33-8.06-7.24l-165.57-63.51c-69.82-26.39-157.62-54.68-220.61-84.1l56.89-85.09zm1342.4-1685.92 331.22-6.46c-7.63 26.39-22.36 62.46-42.2 83.03-50.76 5.36-63.1-21.2-75.3-50.14l-302.6-8.08c-56.35 78.36-74.98 70.58-36.33 107.75 26.98 25.95 103.28 15.93 145.44 16.72 70.81 1.32 143.71 5.12 214.24 4.88-2.24 17.12-35.47 84.71-53.07 94.24-37.91-4.01-47.16-29.57-60.67-53.43l-320.61-22.62c-36.95 46.88-77.79 67.82-21.92 112.23 14.33 11.39 44.37 10.59 68.55 12.18 96.8 6.38 195.72 12.31 293.15 20.91-6.91 16.74-38.27 86.67-56.35 92.22-45.08 4.53-58.45-21.49-68.01-51.56l-332.79-38.44c-9.9 25.98-41.14 50.55-50.21 74.02 47.19 58.54 68.37 42.85 179.68 56.24 49.09 5.91 187.97 18.28 223.81 28.4-4.02 19.32-36.96 69.85-57.9 85.21-49.58-1.54-38.12-32.48-70.5-45.7-26.95-11-307.78-43.77-336.04-44.85-12.86 11.05-43.46 53.47-52.05 67.71 61.18 44.42-11.37 27.8 189.82 58.05 53.04 7.98 185.61 22.33 227.65 35.5-4.75 19.4-44.54 82.07-60.51 95.32-52.86-8.18-38.21-38.84-74.07-49.12l-344.18-64.09c-14.85 29.77-62.48 53.76-37.76 85.56 14.36 18.48 33.63 17.75 60.06 22.52 114.97 20.7 247.92 52.38 361.48 64.15-8.87 20.16-47.22 86.9-67.17 98.18-38.54-1.29-42.59-21.56-57.23-45.04-65.2-13.53-127.05-22.17-190.19-36.46-62.65-14.18-118.23-31.07-178.19-46.25-15.06 23.27-63.71 63.89-39.73 88.08 19.43 19.61 233.19 57.02 280.84 67.25 37.77 8.1 117.53 21.21 146.07 33.28l-61.06 102.35c-61.81-12.37-31.44-42.77-84.9-55.5-92.43-22-272.01-75.54-353.68-83.47-18.74 17.28-67.29 67.52-38.22 85.35 28.36 17.41 370.46 77.32 433.92 96.73-3.71 35.47-40.39 74.83-52.03 103.94-64-14.8-30.55-33.81-95.4-52.77l-236.47-64.35c-38.13-9.57-83.27-24.14-120.22-30.59-10.58 12.82-22.02 28.66-34.05 44.68-40.53 53.98 78.86 62.24 153.07 80.23 50.81 12.31 262.62 61.17 289.38 74.78l-71.32 101.39c-28.83-4-35.98-7.74-48.18-21.96-17.55-20.45-13.74-16.8-47.39-27.06-40.59-12.39-74.87-22.27-116.81-33.25-73.35-19.2-174.09-42.96-237.48-65.88-23.12 15.01-42.01 44.29-26.8 66.56 10.83 15.88.9 8.81 26.51 15.92 72.21 20.07 359.69 101.24 415.03 109.56l-62.76 107.92c-53.13-11.01-32.86-32.85-96.19-51.73-41.49-12.37-81.72-23.77-125.43-35.62-46.69-12.65-212.95-54.8-240.6-69.8-8.49 6.8-33.22 36.47-34.11 43.41-5.65 43.84 132.24 69.7 175.31 82.52 45.88 13.65 89.57 27.02 135.56 41.42 36.38 11.38 109.49 29.27 139.82 43.98-10.29 28.92-50.08 64.27-64.43 95.54-64.1-7.37-15.65-23.5-103.72-51.3-118.43-37.37-238.61-80-357.62-113.79-13.47 14.06-21.68 30.42-36.24 43.08 41.17 36.26 21.94 30.6 94.22 53.09 121.42 37.79 241.06 82.02 365.41 115.68l-64.28 102.26c-62.12-7.04-9.14-19.65-105.44-51.6-71.45-23.7-310.49-116.36-361.85-126.04l-784.3 1029.13c.26.07 1.58-.95 1.78-.43 5.9 15.33 4.68-.67 4.92-.7 9.51-1.02 22.03.43 41.3 9.46 18.04 8.45 36.1 16.33 56.29 24.93 61.84 26.31 296.61 121.79 335.28 146.55l-72.36 101.93c-10.1-3.34-26.49-8.42-31.58-10.84-31.11-14.84 2.11-9.85-72.77-43.68l-324.1-145.51-33.33 42.29c71.02 30.15 142.25 62.97 213.55 94.5 73.48 32.48 144.17 59.4 212.93 95.24l-34.37 51.36c-53.79-12.25-163.33-68.86-216.69-91.41-57.92-24.47-168.23-67.18-215.79-94.31-53.03 51.27-108.48 143.7-160.8 187.75 95.74 49.14 320.91 136.91 433.9 184.47 46.05 19.38 405.07 174.97 442.94 184.92l-99.87-48.52c-33.86-15.71-67.89-30.53-100.39-45.53-133.16-61.47-271.57-127.95-407.75-186.07-33.97-14.5-185.14-78.11-200.99-95.73 7.9-16.11 124.33-121.09 144.5-137.11 94.13 18.49 275.75 141.26 407.4 164.64 20.89-34.67 56.16-73.08 82.85-107.25l251.34-320.71c111.92-145.27 222.4-285.4 332.81-429.25 109.94-143.24 222.62-286.07 330.36-430.79 319.54-429.22 669.67-881.8 956.96-1322.54 67.41-103.43 295.03-442.04 291.92-544.37-.96-31.56-37.54-25.09-76.96-27.82-112.01-7.76-267.37-8.28-372.65 31.03-17.17 6.41-2.37-3.84-16.65 9.73-2.5 2.38-39.47 52.23-40.5 54.54-5.8 13.01 23.3 37.02 32.84 53.03zM14419.9 12710.71c-34.2 8.83-45.03-3.9-68.08-23.37-19.46-16.45-39.98-39.81-62.46-52.32-15.61 18.96-38.38 67.04-53.33 90.04-55.33 85.14-198.8 240.17-204.39 249.31l831.66 77.72c8.1-10.84-47.84-717.41-54.95-830.85-2.47-39.47-13.56-255.23-22.69-274.3-6.59-4.95-1.2-2.22-11.21-6.33l-238.89-62.8c-84.97-22.58-171.29-43.55-257.51-66.6l-513.24-132.09 266.08 195.81c81.07 72.15 454.41 338.09 565.88 420.33 20.56 15.17 115.27 73.45 106.81 92.31-26.52 6.19-9.49-4.8-37.57-7.95-27.92 16.55-65.36 116.96-95.66 134.59-13.66-4.82-177.64-138.65-190.2-156.33-9.61 4.03-19.88 12.02-33.84 6.98-2.19-21.61 31.87-13.31-35.89-61.22-29.35-20.76-42.26-34.81-72.36-57.25l-121.94-100.44c-21.24-8.29 1.42-1.86-30.67.09-.41-44.3-2.32-25.88-38.79-55.44-67.89-55.02-137.1-117.24-209.15-169.42l-92.21-73.85c-33.22-28.19-102.65-79.33-118.45-99.29-1.07.92-2.27 1.35-2.75 3.01l-5.64 5.6c-14.61 11.73-1.27 5.73-16.63 9.36-26.59-28.74 28.13-9.72-29.52-57.08-19.79-16.25-38.46-34.74-59.85-49.16-153.82-103.73 10.6-41.31-317.1-128.87-58.56-15.65-128.17-36.02-186.27-47.79 1.81 24.07 43.89 46.7 82.53 80.63l633.33 525.64c9.02 7.37 12.72 12.5 21.39 20.07l154.97 134.05c14.41 13 32.02 28.2 44.42 38.04 19.44 15.43 24.1 20.95 44.66 37.75l175.13 154.79c29.43 29.19 251.98 212.04 254.38 236.63zM14272.96 10824.63c-17.21-32.79-165.04-195.22-201.79-235.95-27.21-30.16-390.88-441.77-416.41-456-121.83-67.94-196.84-89.1-333.72-139.05l-696.18-251.67c-116.81-40.44-228.22-83.64-346.03-125.14-58.06-20.46-113.99-42.36-173.37-62.37l-176.36-62.52c-2.44 29.46 54.96 105.16 74.17 133.75l310.36 486.55c11.94 19.28 7.72 15.62 31.89 25.02l348.3 123.52c28.09 9.41 59.92 22.31 88.11 32l439.08 154.52c223.1 77.69 482.13 176.21 700.24 248.64 75.89 25.21 145.56 47.75 213.84 80.89l137.87 47.81zM12439.91 10663.47c33.17 7.08 70.17 21.45 104.64 33.39l1466.95 488.44c26.53 9.31 79.82 28.37 108.64 33.46-5.25-118.26-4.37-212.18-15.23-333.75-5.59-62.56 16.16-15.72 7.17-104.07-21.59-12.55-1082.79-387.15-1218.16-437.19-39.79-14.7-76.14-24.39-114.68-39.8l-445.33-158.24 106 517.76zM7674.25 12855.9c8.04 5.59 33.24 29.38 43.59 38.98l278.79 246.52c13.94 12.29 32.2 30.29 46.68 40.29 16.06-14.86 60.13-65.37 71.11-82.71-43-47.9-100.88-84.26-146.72-127.35-9.42-8.85-10.56-11.44-21.7-19.71l-87.04-73.21c-61.45-44.85-20.69-37.96-114.7-52.52 16.73-17.43 41.5-50.06 65.45-61.45 13.65 19.5 40.8 38.9 62.08 55.5 9.76 7.62 11.98 11.44 21.4 19.83l85.86 74.11c25.25 19.44 102.89 98.73 131.53 106.17 24.54 6.37 46.96-1.5 54.95 16.38.28.64.68 2.41.88 2.95.21.57.22 2.12.8 3.06 12.8-25.46 35.6-39.73 49.31-64.78l-239-191.92c-23.58-22.3-54.84-41.76-77.81-65.85l-54.41 1.92c8.19-13.82 20.27-23.82 32.21-35.08 8.36-7.88 11.81-11.72 18.11-17.5l22.66-16.16 268.71 248.36c18.2 16.88 35.76 13.89 70.81 14.97l-20.55 35.49c7.45-5.31-.37 1.95 9.71-7.53 3.69-3.47 7.39-7.34 10.16-10.46l48.21-57.96c-36.62-39.03-230.47-188.17-284.38-238.33-23.96-22.28-12.54-17.73-63.16-17.58 7.92-16.84 30.15-40.67 46.44-54.12 83.88 67.1 156.87 142.48 238.46 213.76 24.95 21.8 58.8 49.93 78.16 74.88 1.14-.88 2.84-3.46 3.37-2.69l6.41-5.3c.78-.7 2.07-1.84 2.9-2.62 4.16-3.91 5.67-5.62 9.94-10.48l62.67-73.34c-14.09-6.62-15.07 11.47-42.78-16.8-50.23-51.24-110.91-95.28-164.56-144.77-25.85-23.84-51.8-51.02-82.67-72.07-18.75-12.78-36.35-10.83-62.62-20.29 5.61-12.28-1.48-1.58 10.51-14.54 5.3-5.74 10.23-9.75 15.55-15.15 10.46-10.62 17.57-18.54 25.34-28.33 38.49 18.99 174.31 149.62 203.87 175.48 17.48 15.28 65.66 66.21 85.65 67.92 33.68 2.89 31.57-7.3 63.48 9.07 12.61-18.48 32.73-33 39.19-51.89l-79.23-66.33c-62.06-48.03-115.03-102.97-176.1-149.48-48.91-37.25-17.15-28.01-99.61-21.48 13.29-25.81 48.74-46.78 63.79-72.3 25.05 8.45.59-1.92 13.72 6.73 5.19 3.43 5.21 3.87 9.51 7.65 3.99 3.5 9.69 9.19 15.63 14.73l98.75 91.2c42.48 41.52 86.17 87.64 134.66 123.8l54.45-6.95 14.3 17.4c.57.63 1.69 1.99 2.65 2.93 9.23-21.2 33.33-40.5 45.69-59.27-47.44-47.02-104.88-88.89-153.6-133.28-18.32-16.69-100.26-88.48-119.74-97.39-17.48-7.99-41.63-5.89-62.91-14.86 20.49-15.26 40.27-36.75 63.72-47.81 37.14 21.94 91.06 83.6 122.98 112.67 36.47 33.2 94.64 78.45 119.82 115.54 41.08-7.76 54.95-17.52 85.94 3.09l36.14-44.17c-13.25-9.91-20.88-18.51-36.1-31.8-11.32-9.89-23.5-20.27-35.39-31.51l-54.5-48.51c-44.28-38.9-78.43-79.02-127.18-114.63-19.31-14.1-32.1-10.35-66.9-12.57 6.36-20.55 41.15-59.51 64.06-73.43 24.05 30.73 74.82 69.75 107.23 97.38l73.68 65.24c25.96 22.06 42.9 53.79 86.56 56.59 30.45 1.94 41.33-.44 51.17 19.56l33.72-38.23c-20.42-27.81-49.86-41.31-74.98-65.15l-190.71-156.52c-16.8-8.09-43.67-6.67-62.26-14.6 7.94-11.25 47.97-51.65 64.01-61.86 6.52 3.84 8.53 5.14 15.49 10.32l228.42 208.94c16.9-.39 34.27-3.43 49.57-2.55 32.59 1.87 11.02 2.4 34.28 9.86l34.47-44.07c-41.34-41.85-167.36-138.79-219.46-182.34-53.95-45.08-6.69-28.11-105.25-37.54 8.88-10.39 17.19-18.84 28.28-29.96 6.46-6.47 10.51-11.01 15.11-15.51 7.27-7.12-1.26-.28 7.9-7.3l12.82-7.69c29.4 17.07 35.33 31.4 59.83 48.44l178.48 146.47c54.21-.17 48.73-2.59 78.56 18.1 13.42-9.72 24.02-25.51 33.3-38.4-4.2-4.22-229.27-222.67-240.42-225.87l-70.32-.49c8.96-15.51 46.1-52.23 68.19-63.95 21.64 13.34 40.13 34.07 57.59 49.89 20.9 18.94 34.92 31.41 56.3 51.48 35.02 32.88 71.59 74.94 113.29 103.55 35.27-4.92 55.37-10.66 86.84 1.39 12.12-10.33 26.06-24.25 33.18-38.8-37.87-23.85-163.11-143.89-200.41-179.61-43.36-41.52-17.88-30.36-102.06-35.4l43.02-55.38c52 26.66 103.56 72.8 151.98 106.06 24 16.48 55.13 33.7 75.32 50.9 46.59 39.71 69.49 10.55 89.64 44.69l37.37-35.36c-9.37-18.41-12.68-17.97-29.31-33.19l-167.1-156.22c-44.36-41.21-24.34-23.42-106.77-31.75 25.79-18.08 46.59-44.1 76.34-58.42 16.55 9.47 52.26 40.2 66.87 54.22 12.62 12.11 18.19 13.71 32.34 24.74 13 10.13 19.23 19.45 32.22 29.76l66.28 52.82c51.42 39.74 22.46 2.74 102.21 33.38 7.79-17.46 13.16-17.11 24.06-33.01-37.57-43.01-120.13-100.23-169.37-137.35-23.16-17.45-39.38-42.17-68.6-56-19.19-9.08-33.51-7.13-50.11-16.02 7.36-9.8 62.24-60.44 74.51-69.2l194.16 158.41c47.91 45.9 52.01 8.81 88.93 38.3 13.04-10.43 24.79-24.46 31.01-39.76-50.65-33.83-207.93-169.66-240.39-184.84-14.58-6.81-34.35-7.95-50.8-14.28 7.47-24.79 40.47-47.76 49.4-73.76 26.22 10.99 116.03 86.6 144.02 110.98 23.56 20.5 46.9 33.45 69.66 54.94 20.43 19.28 10.19 15.99 45.7 19 36.21 3.07 27.11 7.69 53.38 13.63l30.81-40.11c-22.38-14.93-45.67-32.59-64.69-49.95l-129.93-103.56c-38.14-34.5-16.96-24.88-88.75-36.45 4.92-10.73 42.44-53.56 56.01-63.59 21.38 7.19 119.28 74.35 140.49 90.81l68.75 46.73c28.68 18.79 55.93 12.46 94.19 30.67 7.18-11.39 14.24-19.92 21.94-28.78l-199.19-158.22c-35.56-25.63-44.57-17.96-87.67-33.39 12.88-16.15 64.75-68.79 90.37-78.6 18.01 18.23 36.74 37.16 59.57 52.39 34.74 23.19 125.43 117.73 160.56 118.85 25.86.82 34.61 2.58 51.55 9.68l24.66-27.97c-28.12-29.2-92.5-72.62-129-100.8-49.14-37.94-81.62-64.2-151.1-87.82 21.62-25.44 56.24-57.55 75-82.93l194.87 149.09c31.49 27.84 28.13 24.23 90.6 31.12l27.67-32.83c-12.7-9.02-21.09-13.16-32-22.48-16.09-13.75-15.98-14.56-31.78-25.17l-135.57-95.1c-44.58-30.3-62.14-17.32-87.95-32.23 25.27-24.39 61.72-53.78 81.06-79.72 24.68 9.04 49.59 28.06 69.04 43.43 11.32 8.94 16.19 15.32 27.74 23.71 45.38 32.97 113.59 93.32 180.8 107.22l24.76-32.8-193.59-136.74c-32.91-23.42-27.36-25.88-85.75-34.37 14.11-20 20.44-23.74 37.85-42.32l36.07-36.03c.83-.68 2.53-1.91 3.22-2.46.69-.55 2.13-1.68 3.3-2.45l195.13 132.31c31.79 22.09 49.76 20.12 82.47 34.87 6.28-12.02 14.8-20.74 24.17-33.24-14.85-8.44-12.3-8.8-26.72-21.07-29.8-25.36-70.56-43.45-99.25-68.79-44.53-39.34-81.26-67.29-153.05-78.12 15.58-24.98 50.28-69.51 78.88-88.94 47.16 27.55 88.43 53.21 137.42 84.18 42.87 27.1 96.52 52.6 135.94 83.64 16.75-9.07 10.59-9.13 23.45-21.72-9.39-6.58-16.69-14.2-27.57-21.7-33.52-23.1-70.89-41.69-102.14-66.61-46.69-37.25-123.83-72.66-141.04-85.22 14.01-15.32 40.87-38.03 49.54-54.75 44.45 18.45 92.31 62.35 132.01 87.45 11.84 7.49 21.77 12.56 32.57 20.4 30.47 22.13 62.99 51.46 100.6 67.43 16.72-18.37-15.26-29.51-47.45-53.69-25.25-18.97-45.94-34.92-70.95-54.05-33.25-25.43-109.85-93.2-146.73-106.45-22.8 37.96-231.35 245.89-269.93 287.6l-543.56 575.11c-89.08 95.98-181.08 194.03-273.99 290.42-91.81 95.26-177.45 191.05-272.32 286.99l-271.84 287.48c-153.05 169.99-322.57 335.22-476.75 504.65-22.39 24.6-52.29 50.16-68.57 73.21zM12693.46 10866.54c2.33 28.57 26.03 35.66 46.12 50.59l296.69 224.38c21.63 15.79 38.76 28.4 60.17 44.28 73.93 54.81 17.14 19.49 62.36 16.08 17.47 37.58-37.25 3.24 57.74 72.6 30.66 22.39 56.81 41.72 87.13 64.29l348.78 256.88c19.45 10.5 213.67 57.4 255.32 67.85 173.5 43.56 343.82 86.65 516.99 131.66 80.17 20.84 462.33 122 512.83 129.66-1.43-.63-48.15-39.33-55.87-46.66l-180.54-155.39c-43.88-35.06-79.79-67.73-119.86-102.3-42.52-36.67-83.12-67.58-123.03-104.22l-240.95-203.46c-138.12-103.3-9.55-53.58-315.77-151.95l-1077.79-350.69c-59.93-19.66-121.25-37.77-179.65-57.91-29.21-10.07-161.48-55.11-181.09-56.77 14.94 11.12 36.81 42.95 102.98 92.62l86.49 64.78c15.17 11.87 13.04 13.24 40.95 13.68zM10038.67 11296.13l1375.63-219.52-376.06-299.36 253.03-522.3c15.81-35 23.7-17.57 133.23 65.09l356.84 268.76c47.27 28.21 79 58.18 119.37 89.14 40.57 31.1 76.79 59.74 116.51 91.47l119.19 89.28c20.66 16.58 37.05 29.71 57.65 46.25 15.91 12.77 38.51 36.84 70.13 36.58-8.51-21.07-42.39-39.57-68.35-55.78l-669.58-498.95c-58.27-53.48-353.38-249.87-454.59-329.64-40.96 57.94-723.44 810.59-806.33 903.2-46.39 51.83-89.35 99.75-133.99 149.62-67.82 75.77-78.75 67.64-92.68 186.16zM11666.36 8907.89c11.97-5.84-5.04-13.23 25.45-7.42 5.37 30.34-15.57 15.48 36.92 38.87 23.91 10.66 39.13 18.3 62.9 29.01 40.85 18.42 84.24 42.42 124.25 56.55l2271.89-2968.51-144.46-.17c-43.82 59.87-100.34 119.11-148.06 178.26-48 59.5-102.15 117.92-149.95 177.7-47.17 58.98-99.02 120.14-149.56 178.15-50.83 58.33-99.52 119.35-149.36 178.5-101.6 120.56-201.02 235.3-299.73 355.62-289.52 352.89-605.23 717.37-900.66 1070.66-99.32 118.78-197.92 239.75-299.2 356.31-93.59 107.71-188.15 228.75-281.84 334.17-14.55 16.39-20.2 13.06 1.41 22.3zM11175.87 9931.5c11.3 10.45 126.36 89.37 144.48 94.67 12.69-27.89 52.6-60.14 63.1-87.07-39.21-25.4-89.37-54.96-83.98-83.41 29.42 3.36 118.36 78.51 144.42 97.98 47.23 35.28 89.92 67.44 137.15 102.72 94.01 70.23 182.92 137.57 277.3 207.68l27.71 14.89c11.41 5.81 2.01-.81 10.11 6.26 4.26 3.72 5.63 9 13.2 16.66 4.55 4.61 11.7 9.28 17.54 13.55 24.54 17.95 44.45 33.08 68.74 51.25 24.21 18.12 44.15 33.6 68.53 51.42 31.94 23.35 11.16-3.55 54.19 35.58 5.52 5.01 11.1 8.54 17.61 13.32l274.65 206.66c7.27-28.85-48.05-292.56-56.96-342.28-9.99-55.67-22.26-110.35-33.99-166.45-10.85-51.86-48.95-92.54-79.38-136.54-59.57-86.08-116.04-172.42-174.74-257.5l-133.04-194.81c-8.33-13.73-15.17-20.74-16.78-36.55-2.41-23.77 4.48-21.95-9.61-41.43-23.45-4.09-200.61 49.35-241.15 59.56l-181.05 47.91c-32.05 7.97-35.35 6.1-51.89 23.48-44.63 46.9-83.45 101.12-127.38 150.02l-128.78 152.43zM8149.05 13295.12c11.78-20.77 47.59-56.05 65.63-76.2l1545.81-1725.79c89.22-99.73 176.86-199 268.01-299.21 41.19-45.28 49.75-143.06 62.63-202.59 15.63-72.26 32.69-145.17 47.12-217.33-61.45 78.57-199.49 228.77-269.77 313.91-168.1 203.61-373.17 426.53-540.99 630.26-87.2 105.85-180.17 209.11-270.44 315.17-90.94 106.85-177.1 210.4-270.43 315.25-91.38 102.64-176.51 212.6-270.24 315.44-94.14 103.29-177.44 212.96-270.21 315.53l-168.07 195.53c-33.73 39.12-18.9 34.86 30.04 83.93 14.78 14.82 25.86 26.39 40.91 36.1zM9878.35 13054.43c33.2 9.93 363.43 31 428.45 35.9l162.28 12.91c27.92-.4 26.67-5.44 48.64-8.59 46.69-6.68 184.06-4.8 238.32-4.84 313.43-.23 636.6-8.39 950.6-14.41l1174.79-18.3c75.89-1.1 167.63-6.63 241.78-2.5 140.07 7.81 291.59 27.74 432.86 39.67-34.4-39.65-72.95-75.72-107.41-112.84-60.03-64.64-39.41-56.18-164.96-68.07l-138.95-13.64c-39.5-1.97-17.67 1.58-24.29 4.65-10.31 4.78 10.02 7.59-55.68 10.49-81.11 3.59-164.76 8.1-245.82 10.49-162.15 4.79-328.22 13.5-490.34 21.4-163.41 7.96-328.17 12.11-491.11 21.09-322.99 17.81-656.33 31.22-979.93 42.59-163.2 5.73-326.75 15.36-489.98 21.5l-489.25 22.5zM8286.63 8509.59c8.64 13.45 27.81 21.67 44.86 27.62 10.47-9.37 78.32-43.66 92.92-48.36 24.54 10.46 33.59 18.91 52.67 34.95-19.98 8.55-87.87 38.7-94.47 53.08 36.79 11.86 85.51-37.03 127.85-45.56l61.55 49.39c-5.26 3.99-5.91 4.79-11.81 8.34-9.61 5.78-5.54 3.31-14.48 7.56-22.7 10.82-61.16 25.13-71.88 37.48 17.64 9.49 8.5 14.39 62.59-13.48 21.78-11.23 39.4-21.64 60.69-28.75 22.77 12.25 57.67 36.73 78.39 52.33-26.62 19.18-71.96 32.57-100.4 52.84 25.31 14.72 29.27-3.82 100.4-39.94l94.15 47.01c.73.51 2.23 1.59 3.23 2.46-16.25 9.83-30.97 18.76-48.31 27.65-19.14 9.82-38.5 16-47.39 29.01 32.46 10.78 76.17-32.02 123.87-42.98 21.13 12.55 70.21 42.04 83.8 57.98l-109.87 44.17c26.87 24.83 44.07-1.88 127.7-33.35 30.68 11.62 40.97 23.13 73.65 34.67l-32.39-23.16c-14.29-9.15-21.82-12.88-35.94-22.16l-453.36-281.54c-6.09-3.44-11.01-4.89-16.46-10.49-5.92-6.1-8.38-10.19-4.19-18.5 19.78-.1 37.38 17.03 53.3 26.82 187.61 115.31 432.93 262.26 604.16 374.2 159.4 104.2 378.72 237 550.15 342.71 37.58 23.18 71.47 45.18 110.92 68.84 29.08 17.43 420.19 256.28 433.16 274.88 38.21-15.53 47.8 2.71 98.26 32.99l185.15 111.62c22.66 14.14 76.96 42.86 90.81 57.97-9.75 16.83-21.28 17.04-50.36 30.29-81.04 36.91-53.42 21.37-99.51 125.99l-225.13 509.51c-13.08 29.59-38.69 77.61-44.06 105.24 34.46-51.66 67.19-139.2 97.02-199.2 34.1-68.61 64.15-134.27 97.44-203.55 32.94-68.55 65.11-135.56 97.44-203.56 29.36-61.77 16.48-48.25 71.42-85.2 19.17-12.9 25.28-18.27 44.36-33.63 16.06-12.94 32.96-21.73 48.81-34.9-27.29-13.24-62.56-43.27-91.65-60.62-17.89-10.67-28.72-21.29-46.42-32l-190.39-125.75c-13.93-8.37-36.59-20.57-36.85-36.07 28.73-3 160.94 95.34 195.02 118.62 29.29 20.01 67.85 41.64 96.01 62.49l95.75 61.95c21.17-19.61 65.41-46.3 88.41-66.43l-270.77-158.29c-45.63-27.12-89.28-51.19-134.64-77.83l-687.99-396.27c-48.08-27.13-90.09-52.4-134.66-77.83l-957.73-554.13-234.8 82.87z" class="fil1"/><path d="M11461.07 9597.33c31.62-4.5 87.77-22.51 119.7-31.21 39.45-10.75 79.45-20.62 119.04-31.74 295.08-82.9 174.67-64.94 457.43 25.77 73.1 23.45 151.57 51.67 223.45 78.17 68.57 25.28 149.26 53.01 221.24 76.11 141.23 45.31 296.83 106.75 444.73 154.25 48.02 15.42 195.42 71.26 227.54 77.76l-42.62-24.07c-17.58-8.6-31.63-14.37-46.94-22.89-23.54-13.11-36.64-54.1-50.97-78.03-35.34-58.97-51.06-52.56-172.78-102.77l-787.24-331.12c-67.25-28.77-128.88-53.52-194.45-82.18-33.55-14.66-66.83-27.57-99.17-41.88-25.15-11.12-76.87-34.59-104.05-41.25-13.01 26.72-268.7 312.88-314.91 375.08zM10171.73 10769.13c-1.4.75-3.86.19-4.56 1.83-10.07 23.7-5.74-47.38-33.44 82.46-6.99 32.77-14.32 66.83-21.26 99.46-10.07 47.39-40.98 151.36-40.16 192.13 1.52-3.75 105.63-119.89 118.05-133.75l739.46-825.44c24.35-27.19 102.84-114.57 118.83-143.96-48.97-19.05-157.95-89.11-198.68-101.36l-657.51 769.59c-25.74 30.43-32.48 19.19-20.73 59.04zM11082.29 10041.02c13.68 5.39 18.17 12.29 32.18 24.35l269.23 191.57c51.08 36.3 100.11 74.17 150.39 110.6 264.01 191.27 476.06 351.83 728.13 544.27 14.37 10.97 8.23 8.17 26.13 15.15l71.69-149.08-161.67-112.39c-12.04-9.26-18.24-17.01-30.63-26.04l-392.79-277.5c-23.51-15.56-45.51-27.73-65.99-44.47l-367.97-251.93c-36.14-20.66-6.62-3.88-37.39-2.89-22.45-41.05 38.05 6.45-60.67-61.48-14.99-10.32-23.05-13.25-38.5-24.98-14.51-11.02-26.34-18.08-41.85-25.68-13.47 18.86-24.18 30.18-38.82 45.68-15.06 15.94-29.84 29.53-41.47 44.82zM10104.53 10641.3c54.55 27.87 59.98 31.79 59.98 66.64l502.4-584.36c30.35-34.74 56.15-63.72 84-97.74l83.26-98.67c-15.05-15.61-57.7-38.39-78.38-53.4-30.36-22.04-49.49-31.33-76.83-53.15-51.62 11.82-101.71 28.2-154.71 40.93-75.87 18.22-54.78 14.73-91.14 87.76l-328.58 691.99zM13369.07 12867.33c38.02 55.02 54.93 50.25 100.29 54.06 178.72 15 141.16 33.17 218.45-38.83l178.87-174.24c59.16-60.44 164.7-179.13 197.45-264.19-1.42-10.81-201.63-170.61-227.48-194.73-97.06 217.56-387.04 461.3-467.58 617.93zM12710.85 12208.32c35.45-81.02 303.08-606.73 282.33-647.15-6.36-12.39-159.96-130.48-184.15-148.94-42.34 119.31-156.51 307.85-221.21 427.68-111.53 206.57-127.73 124.88 33.48 283.49l89.55 84.92z" class="fil1"/><path d="m13350.73 12849.16 117.38-152.66c69.37-76.62 190.14-215.47 249.88-295.08 36.27-48.34 54.36-68.89 80.61-122.47 12.02-24.53 4.62-26.81 29.65-39.25-32.06-19.91-56.03-46.77-89.11-71.5l-94.52-67.36-58.09 95.78c-97.77 149.47-268.59 336.96-352.27 472.17-33.89 54.76-15.03 46.42 72.94 137.52 12.42 12.86 29.85 32.47 43.53 42.85zM13195.29 12689.07c19.82-20.77 52.14-76.25 68.63-100.22 99.65-144.89 296.85-355.21 360.26-498.35 10.91-24.61-68.06-73.83-100.68-100.1l-79.46-63.43c-45.8 138.35-356.63 501.28-356.27 561.47.72 119.47 11.37 103.44 85.65 181.4l21.87 19.23zM12296.36 10933.74c23.48 10.26 21.06-4.05 68.01 35.65 18.43 15.59 37.02 33.5 56.55 47.22 46.08 32.38 68.85 55.52 114.86 87.95l366.35 292.99c11.99 8.86 19.83 12.14 31.01 21.15 14.91 12.02 42.04 39.02 56.46 47.28 14.88 8.54 308.16 82.67 348.83 91.39l5.73-29c-217.51-50.18-115.53-55.47-230.44-137.38.05 26.04-10.51 24.12-14.09 26.08-17.91-8.45-8.98 5.64-10.96-14.51-2.02-20.52 21.64-21.28-15.28-57.14-19.54-18.98-38.47-40.12-57.49-59.58-25.03-25.61-93.28-94.25-129.08-107.15-3.15 22.24 1.56 32.16-20.35 39.34-22.8-23.95 16.99-41.6-10.1-67.09l-172.91-129.62c-16.83 6.29 10.34 13.03-24.76 13.99-12.94-48.96 12.94-26.13-33.18-59.91-20.56-15.06-36.33-27.29-56.62-42.46-28.99-21.68-81.08-51.04-112.73-85.06-27.63 22.74 4.32 24.49-32.11 33.29-14.66-18.07-.91-14.89 5.63-51.02l-57.8-40.96-75.53 144.55zM12311.65 11833.34c29.84-34.47 267.11-558.35 268.74-606.58-57.37-33.95-92.83-76.47-142.02-107.45-18.15-11.43-32.09-25.3-48.83-37.52-54.55 154.15-168.73 396.74-251.71 556.78-13.76 26.55-10.07 25.56 11.47 43.52l162.35 151.25zM11922.2 11482.24c21.51 14.06 29.94 24.82 47.7 39.77l139.76 122.67c32.49-54.58 59.69-119 86.85-176.42 28.81-60.89 54.63-121.73 83.79-182.46 29.01-60.43 52.34-123.97 78.54-186.54 12.48-29.81 24.15-31.46-38.83-74.51-31.34-21.42-61.99-39.43-81.31-63.81-107.72 7.74-81.34 11.07-118.56 98.34l-129.31 282.4c-17.91 38.46-60.38 106.44-68.63 140.56zM12328.79 11847.18l149.07 138.68 111.42-193.67c27.73-47.37 212.6-370.98 195.57-400.68l-181.44-142.04-199.76 453.07c-12.01 24.66-22.72 47.69-34.67 72.33l-40.19 72.31zM11067.79 10773.58c32.32 23.06 61.73 48.21 92.14 73.36l100.88 74.4c36.62-95.32 250.45-408.92 259.94-504.14l-207.17-153.89c-20.46 40.17-37.94 89.07-56.58 130.45l-189.21 379.82zM13656.33 12938.88l345.93 32.31c34.93-29.3 83.38-88.46 114.73-125.29 47.2-55.47 116.38-146.64 146.36-212.31 12.87-28.2-11.29-29.45-44.21-61.5l-133.59-113.81c-12.47 13.28-29.17 50.58-39.93 67.24-37.55 58.15-106.42 137.03-154.73 187.32l-173.1 169.68c-20.03 17.86-47.67 39.52-61.46 56.36zM11276.52 10940.39c71.56 29.95 159.22 172.4 208.01 117.68l122.49-220.35c29.22-53.88 117.13-211.45 123.72-265.62l-191.06-138.54c-7.36 36.31-39.88 97.15-57.8 132.44-32.67 64.36-197.29 345.59-205.36 374.39zM8149.4 13371.57c20.77-7.8 16.07-9.75 38.38-30.09 140.23-127.81 570.36-619.16 696.62-763.93l708.81-812.81c39.21-46.77 78.31-89.51 116.98-135.61 57.88-69.03 112.4-136.39 177.97-201.49l113.07-111.79c37.7-29.76 31.35-32.54 42.38-106.56-40.57 39.59-81.17 89.18-120.45 133.09l-1533.87 1712.41c-36.67 40.73-218.15 237-232.25 265.34l-23.18-2.87c-5.25 29.9-4.59 35.49 15.54 54.31zM11083.01 9699.72c35.82-7.01 84.19-21.7 120.28-31.86 39.44-11.1 82.88-22.76 123.12-33.03 22.39-5.72 40.11-11.27 61.56-16.5 55.92-13.63 50.52-33.01 113.2-102.54 73.37-81.36 193.3-235.79 255.79-301.38-13.66-11.26-76.22-33.91-98.98-43.95-36.78-16.22-61.26-35.12-88.85-58.01l-112.29 151.66c-39.03 52.11-75.35 98.28-117.54 148.64-40.18 47.98-81.17 96.09-124.15 143.63-45.57 50.41-90.01 94.33-132.14 143.34zM13084.31 12434.09c27.71-41.96 57.9-85.69 88.7-126.76 65.94-87.92 226.93-320.21 255.1-399.32-26.05-17.71-32.57-24.52-53.98-42.82-10.06-8.6-15.82-11.24-26.97-19.64l-109.84-92.33c-10.51-8.11-21.23-12.18-26.77-19.41-38.25 114.77-78.67 214.15-132.94 315.25-21.43 39.92-22.49 38.21-17.86 87.63 7.29 77.84 13.88 241.6 24.56 297.4zM14348.18 13205.09c-8.25-4.25-53.12-27.68-60.32-33.87-15.51-13.33-5.3-42-1.83-65.62 5.44-37.04 15.82-29.02 69.03-29.15 82.79-.2 491.79-5.95 511.19-14.57l-847.11-78.52c-20.61 30.58-121.43 119.42-137.18 141.39 239.65 11.65 233.21 44.54 420.68 85.31l115.6 1290.52c6.86-116.77-28.35-491.47-33.55-644.28-7.38-216.64-28.58-434.36-36.51-651.21zM10746.63 9678.9l106.22 64.84c33.44 19.17 62.52 1.3 143.77-20.45 58.53-15.67 54.52-18.56 101.93-70.93 27.47-30.33 51.35-55.65 80.48-87.07 54.14-58.42 102.16-116.63 154.76-178.68 28.41-33.51 129.37-160.25 145.48-191.16-106.12 58.65-276.18 162.04-378.98 231.03-18.05 12.11-23.23 17.19-41.13 31.52-14.14 11.31-30.75 21.15-46.81 31.99l-265.72 188.91zM11509.69 11061.45c61.36-10.17 120.33-18.95 180.05-28.8 30.87-5.09 58.35-9.34 88.63-14.08 60.66-9.49 54.07-6.55 65-31.59l107-244.58-196.2-150.88c-12.85 13.15-44.58 93.38-55.87 117.78-18.63 40.26-39.99 78.45-61.57 118.95l-127.04 233.2zM12869.18 12360.4c30.56-59.51 172.05-250.21 167.24-308.21-11.45-138.23-26.72-277.46-34.17-415.65l-174.42 382.1c-29.4 63.9-64.13 126.8-93.33 189.6-11.46 24.65 16.63 42.23 55.33 79.22l79.35 72.94zM11717 11299.25l186.92 161.32c35.55-41.8 208.1-436.35 225.21-482.01l-256.41 39.12c-26.18 5.14-19.06.95-28.47 18.53l-127.25 263.04zM10099.12 9306.87c18.62 18.41 112.7 68.72 142.77 85.39l29.06-26.9c67.67-76.01 193.03-172.26 286.52-227.69 60.95-36.15 175.11-98.23 242.3-118.39-1.11-.9-2.91-3.4-3.5-2.58l-10.48-7.08c-7.27-4.42-11.62-6.37-17.37-9.44l-97.73-51.5c-134.61 50.22-334.21 165.9-445.58 253.18l-125.99 105.01z" class="fil1"/><path d="M10254.76 9396.89c12.65 12.04 86.58 55.37 106.7 62.89 17.65-8.13 19-12.52 34.84-23.19l443.44-306.74c22.73-15.58 48.87-36.87 73.92-47.87-12.56-17.3-80.72-51.46-103.81-57.91-58.05 24.24-109.2 47.29-161.51 74.54-116.87 60.89-251.83 151.52-335.57 239.87-13.29 14.02-44.72 49.54-58.01 58.41zM9978.09 9242.74c24.52 9.52 84.45 45.16 108.36 59.56 14.61-7.98 47.95-38.19 61.23-51.08 38.15-37.05 149.58-113.17 198.14-146.44 121.72-83.39 244.47-124.06 307.88-162.12l-8.82-6.38c-.78-.49-2.3-1.47-3.18-2.01l-111.76-57.14c-51.04 25.08-106.4 50.48-152.55 77.45-105.69 61.77-261.08 157.16-339.86 232.35-18.83 17.97-47.04 34.67-59.44 55.81z" class="fil1"/><path d="M9858.05 9169.86c22.26 15.39 83.65 52.19 108.83 62.17 22.06-15.72 37.84-30.71 59.43-48.83 11.53-9.68 18.27-17.59 29.79-27.22 35.2-29.43 185.45-135.75 231.15-161.62l151.49-83.37c23.28-11.57 63.49-29.03 78.74-39.6-1.02-.77-2.62-3.04-3.1-2.28-.47.76-2.45-1.8-3.11-2.24-.66-.43-2.35-1.64-3.17-2.16-.82-.53-2.34-1.5-3.27-2.07l-114.69-57.56c-5.11 4.31-233.74 129.63-283.22 166.39-81.32 60.42-183.45 129.36-248.87 198.39zM9350.73 8875.84l113.95 66.06 100.76-106.82c18.08-17.42 32.96-30.97 54.12-48.56l60.21-48.73c46.48-38.6 78.69-57.72 125.73-89.27 36.73-24.65 91.92-59.86 134.2-78.09-14.2-12.47-80.94-44.69-104.35-56.22-54.98 12.5-230.21 134.81-266.78 162.87-76.22 58.49-153.27 121.64-217.84 198.76z" class="fil1"/><path d="M9239.37 8813.81c15.55 10.9 82.14 49.64 100.82 56.75 63.54-75.09 137.1-134.98 216.93-197.53 38.68-30.31 76.91-58.32 122.86-86.55l138-80.38c-31.4-17.6-68.64-39.7-102.2-53.04-89.37 33.84-243.97 126.81-302.31 175.1-63.5 52.56-133.02 122.97-174.1 185.65zM9005.76 8679.54c31.2 16.51 80.06 50.89 112.16 62.38 33.32-27.03 97.95-121.7 206.6-197.62l121.36-87.93c37.42-26.8 91.14-49.97 130.64-78.1-37.16-17.73-70.77-35.99-105.86-53.8-61.08 14.03-233.09 134.15-287.13 176.84-50.99 40.27-141.82 133.64-177.77 178.23zM8797.35 8558.3c15.61 9.34 31.24 19.6 49.26 29.58 10.23 5.68 42.09 22.25 47.66 27.05l85.34-104.79c61.28-66.78 133.41-134.19 215.86-186.64 18.56-11.81 41.16-25.47 63.04-37.76 22.81-12.82 51.41-22.76 69.45-38.11-49.02-18.39-95.18-54.1-144.27-70.46-122.21 74.28-224.82 168.58-308.33 272.93-29.11 36.36-51.63 71.49-78.01 108.2zM9575.28 9006.96c21.99 9.83 50.8 35.73 95.31 52.67 41.75-75.2 258.72-234.39 355.59-291.09 47.72-27.93 93.85-49.95 147.33-77.29-14.55-6.68-100.71-52.76-108.68-60.51-116.85 35.11-306.67 183.27-389.45 263.87-37.76 36.77-65.78 72.25-100.1 112.35z" class="fil1"/><path d="M9679.56 9067.4c14.67 11.2 70.37 42.41 85.5 47.97 38.01-32.13 94.74-91.59 142.18-123.49 83.68-56.25 108.75-91.84 233.97-159.88l147.58-80.89c-27.69-17.43-71.68-39.42-100.71-52.81-65.09 16.22-240.81 130.98-284.62 161.56-33.05 23.07-209.52 170.05-223.9 207.54zM8909.15 8621.92c25.52 17.08 55 34.79 83.22 49.39l97.92-101.2c17.27-16.77 35.82-33.78 54.54-48.36 73.83-57.52 62.59-63 177.84-130.45 40.44-23.68 88.8-53.73 133.78-75.09-28.59-15.59-89.23-49.05-117.32-59.18-114.55 48.33-221.01 130.13-298.68 204.68-37.59 36.08-111.85 120.96-131.3 160.21zM13631.08 11732.43c42.33 25.33 54.63 41.94 87.37 68.15l144.6 114.89c19.04 16.71 38.96 28.89 57.96 45.73 10.15 8.99 17.02 15.94 27.67 24.22l138.32 111c7.75 5.01 2.49 2.24 11.05 6 17.79-21.52 41.68-80.24 54.77-105.81-57.9-35.3-300.69-219.44-360.88-264.35-50.89-37.99-83.45-73.76-135.98-81.16-7.51 25.18-24.09 55.73-24.88 81.33zM9129.48 8752.89c35.18 14.87 65.27 39.99 98.8 53.83 98.39-141 234.51-239.55 401.33-324.83 23.41-11.96 54.88-23.85 75.07-38.07-34.66-12.39-81.48-40.58-114.45-57.1-29.46 9.76-104.71 56.43-131.68 74.61l-62.38 42.6c-78.16 53.6-235.9 185.57-266.69 248.96zM8592.17 8439.27c15.52 13.88 72.63 43.54 95.3 54.74 60.14-61.54 105.97-127.61 185.22-197.33l215.27-173.64c-40.83-16.04-78.64-44.75-119.5-58.48-32.96 28.54-62.5 60.26-93.63 91.08-37.1 36.74-273.14 265.35-282.66 283.63zM9474.86 8952.93c33.17 11.63 58.7 36.18 92.1 47.96 37.86-63.08 147.84-157.92 209.26-209.26 44.71-37.37 210.72-147.43 270.99-163.54l-92.29-51.32c-78.14 19.75-309.84 193.97-379.92 265.5-27.99 28.57-80.88 76.86-100.14 110.66z" class="fil1"/><path d="m12569.41 8250.78 361.67 144.64c4.96 1.84 7.25 2.17 12.18 4.5 34.16 16.15-.51 10.33 32.41 24.75 6.38 2.79 25.67 7.59 33.07 9.24l76.54-110.35-449.88-164.61c-23.5 31.48-44.53 62.62-65.99 91.83z" class="fil3"/><path d="M13536.5 13041.07c44.27 67.24 70.92 58.01 129.54 62.93 224.84 18.87 162.25 42.71 259.56-53.35 23.04-22.75 50.22-47.44 68.79-70.44l-352.65-33.35c-25.15 27.58-94.74 80.07-105.24 94.21z" class="fil1"/><path d="m12246.08 8653.09 320.92 143.06c103.83 46.14 24.84 31.43 102.18 54.41l75.63-102.03-428.17-185.39c-21.74 31.42-49.64 60.52-70.56 89.95zM12352.64 8514.34c72.63 29.32 143.05 61.56 216.2 93.17 22.03 9.52 148.4 60.36 161.09 71.74 17.12 15.33-6.1 4.21 18.74 17.21 7.27 3.81 25.45 8.32 34.1 9.73l71.85-102.61-429.63-178.56-72.35 89.32zM12140.32 8787.34c25.17 6.39 362.29 155.77 374.85 167.54 7.76 7.27-.36 15.41 52.25 27.79l70.65-101.94-428.83-186.78c-17.13 33.81-52.39 59.77-68.92 93.39zM12462.84 8385.55l107.6 47c32.42 12.77 261.64 104.13 274.29 116.51 26.07 25.52-15.31.94 49.83 26.81 14.97-20.42 61.62-82.63 67.61-105.41l-429.91-173.3-69.42 88.39zM12780.41 7969.64c62.99 29.42 150.79 57.71 220.61 84.1l165.57 63.51c12.54 8.57-.45-.23 8.06 7.24 14.28 12.53 15.33 11.87 44.55 20.82 17.21-12.38 63.51-92.49 70.11-105.75l-452.01-155.01-56.89 85.09z" class="fil3"/><path d="M8526.12 8400.58c23.95 11.62 24.19 19.58 53.73 30.49 64.99-58.38 128.22-125.47 188.57-185.35 32.99-32.74 61.85-61.36 94.9-94.09 21.55-21.35 83.4-77.44 93.75-97.47-29.4-9.93-63.74-31.87-94.65-45.82l-182.46 184.71c-30.94 31.68-61.91 61.59-91.56 92.12-34.54 35.59-65.49 53.82-62.28 115.41zM9775.7 9120.86c16.03 15.38 49.87 30.93 68.71 42.24 6-5.96 17.03-12.22 25.87-20.41 12.57-11.63 13.34-13.49 30.01-26.72 134.85-107.08 169.52-136.34 331.47-234.35l147.39-81.51-77.48-40.62c-43.85 16.81-177.24 91.8-217.61 119.18l-65.2 44.65c-69.2 48.05-192.15 139.57-243.16 197.54zM10973.05 9810.93l189.53 99.17 240.75-281.32-310.88 81.28c-30.68 7.81-30.01 8.67-47.26 27.15-23.83 25.54-52.22 49.56-72.14 73.72z" class="fil1"/><path d="M12672.91 8106.62c40.28 11.68 73.72 27.92 112.45 40.98 38.41 12.95 75.85 27.9 116.24 43 40.06 14.98 75.84 28.91 115 43.38 87.34 32.28 13.47 31.43 98.95 51.81 13.34-14.4 60.73-84.97 67.67-104.75l-454.39-157.4-55.92 82.98z" class="fil3"/><path d="M11575.15 9104.77c37.7 16.13 32.09 34.13 84.97 55.25 36.27 14.49 71.11 30.51 106.37 44.34 22.54-27.48 129.12-145.96 137.46-164.37-36.08-14.07-77.04-34.04-111.21-50.18-35.48-16.77-80.36-41.05-117.98-53.37-16.18 52.06-84.31 118.87-99.61 168.33zM8700.55 8501.64c9.95 9.28 72.42 44.19 88.65 50.48 18.13-48.93 127.01-169.19 165.41-207.74 43.4-43.56 161.9-148.88 219.34-170.66l-16.56-13.37c-9.95-6.04-8.9-4.38-18.16-8.82-14.64-7.03-24.66-13.64-39.24-19.53-22.79 8.43-36.39 24.53-55.65 38.57l-58.31 41.06c-69.02 51.6-265.99 245.48-285.48 290.01zM11485.59 11103.24l185.73 160.26c10.33 8.84 19.02 12.22 26.59 20.4l127.53-256.06c-49.41 2.3-133.82 18.91-183.56 27.31-135.76 22.93-132.36 7.99-156.29 48.09zM14372.57 12324.75c18.67-39.87 55.39-70 72.01-109.42l-234.81-175.2c-19.31-14.61-19.33-18.14-39.98-25.03-5.1 6.38-48.08 89.81-49.68 97.59-2.7 13.08 20.07 28.42 31.75 37.64l87.18 68.27c31.1 25.59 104.67 93.32 133.53 106.15zM13052.25 12045.16c35.01-45.98 96.27-194.6 117.08-257.24 31.75-95.62 27.01-60.44-36.46-116.84l-96.72-79.84c-10.48-6.36-2.84-5.52-16.79-5.16-8.67 36.73 31.3 383.16 32.89 459.08zM11859.98 11004.97l277.2-44.06c28.42-73.02 38.75-42.59-70.75-130.22-26.86-21.5-75.37-54.75-94.55-76.51-15.05 13.44-107.28 238.73-111.9 250.79zM13027.89 12521.38l13.19-18.48c4.36-6.8 8.02-12.28 11.58-17.69 10.96-16.65 17.11-23.35 16.45-45.45-.96-32.43-6.31-71.55-9.7-104.52-7.22-70.27-8.37-142.77-17.76-212.58l-131.28 211.48c-34.14 50.3-38.06 34.86 25.83 98.25 29.17 28.94 60.77 63.98 91.69 88.99zM13120.13 12887.59l259.67 25.46c-13.06-20.6-261.93-270.15-279.6-286.44l19.93 260.98zM14383.62 12341.74c18.42 12.12 30.94 20.42 45.38 33.9l135.03 112.04c14.19-13.18 74.44-106.93 78.19-124.99-30.32-18.11-151.49-119.29-179.48-128.3l-79.12 107.35z" class="fil1"/><path d="M10876.75 9922.08c21.68 17.95 60.39 35.33 87.94 50.02 29.43 15.69 59.46 29.69 89.35 47.21 12.69-6.28 82.02-79.39 89.48-91.41-58.96-28.1-120.88-63.04-178.23-93.12-24.57 16.72-65.55 70.82-88.54 87.3z" style="fill:#190808"/><path d="m13350.73 11506.03 25.97-86.14-222.34-164.34c-9.85 15.25-26.11 73.31-18.84 83.91 3.05 4.45 61.44 50.36 71.36 58.19l143.85 108.38zM13109.84 11320.21l22.64-82.94-223.45-164.3c-25.46 94.5-4.52 87.12 130.45 195.45 24.5 19.67 33.29 18.63 70.36 51.79zM11336.62 10038.54c15.54 12.41 150.48 106.13 168.59 112.36 28.26-104.41 44.33-89.67-33.57-146.62-22.8-16.67-42.59-36.7-69.91-47.45-19.98 21.29-52.18 57.05-65.11 81.71zM12061.66 10540.06c2.73-6.32 18.87-69.2 18.61-75.09-.72-16.05-42.17-39.43-58.29-51.09-42.5-30.76-85.43-66.26-128.56-93.75-15.65 98.17-42.51 74.45 39.37 129.02 51.37 34.24 80.02 62.48 128.87 90.91zM11524.08 10163.16l167.46 114.98c2.44-102.63 20.29-92.55-33.49-132.13-21.53-15.83-93.41-64.73-104.24-78.79l-29.73 95.94zM12456.76 10831.92l202.65 146.48c10.33-73.03 12.14-48.15-60.36-125.91-17.53-18.8-87.62-84.79-118.76-94.55l-23.53 73.98zM11712.53 10297.74l141.61 95.79c5.15-23 10.74-46.05 15.23-69.1 5.07-26.08 11.46-14.66-36.93-50-38.9-28.41-75.9-55.11-112.64-83.56l-7.27 106.87zM10703.94 9815.64l148.85 94.87c11.12-20.55 56.6-69.17 75.14-90.25-6.15-7.64-5.41-7.2-19.34-15.49-8.58-5.1-15.64-8.13-24.29-13.31-21.07-12.63-25.83-18.66-56.09-11.4-22.42 5.38-110.6 28.38-124.27 35.58zM13729.13 13238.09c11.17-15.65 36.99-36.8 54.87-52.27 15.58-13.49 45.05-39.55 57.56-56.56l-240.33-21.67 91.18 97.72c5.51 6.03 11.09 11.98 14.71 15.54 3.35 3.3 4.31 4.52 8.06 7.58l13.95 9.66zM12082.59 10555.1c14.53 10.85 27.84 17.44 40.88 28.22l126.1 91.8c-2.61-81.87 2.69-92.21-41.23-123.89-29.54-21.31-77.04-61.55-106.78-76.71l-18.97 80.58zM10625.82 9762.82c78.59 58.76 43.66 46.4 213.08 3.13-25.39-14.95-97.49-62.69-126.85-67.39-24.75 27.63-55.81 44.79-86.23 64.26zM12361.68 10761.8c1.33-.81 3.12-3.48 3.66-2.71l35.05-67.24c-38.56-23.52-93.94-77.35-132.66-93.2 2.17 30.74-4.88 84.8 18.78 103.84 29.46 23.69 48.46 27.6 75.17 59.31zM13370.82 11526.59l216.8 54.48-188.99-143.04zM13521.51 13025.18l94.35-81.86-186.86-16.28c9.1 19.02 72.62 79.07 92.51 98.14zM13607.81 11709.55l17.33-66.37-152.37-39.17c19.17 11.47 45.26 36.13 63.57 51.56l71.47 53.98z" class="fil1"/></g><path d="M9600.72 13357.61h5476.91v1703.59H9600.72z" style="fill:#d93f3f;stroke:#2b2a29;stroke-width:20;stroke-miterlimit:22.9256"/><path d="m10141.77 13778.44-110.07-18.35v-87.48h210.26c31.98 0 73.38-1.89 124.18-5.65 12.23-.94 26.81-1.88 43.74-2.82 16.94-.94 36.69-1.41 59.27-1.41 142.05 0 241.53 19.99 298.45 59.97 56.91 39.98 85.37 99.48 85.37 178.51 0 69.61-20.93 127.7-62.79 174.27-41.87 46.56-96.67 75.02-164.4 85.37 93.13-.94 166.28 20.23 219.43 63.5 53.15 43.27 79.73 103.48 79.73 180.62 0 97.84-34.34 176.39-103.01 235.66-68.68 59.26-183.45 88.9-344.31 88.9-42.34 0-81.38-1.41-117.13-4.24-9.4 0-25.4-.7-47.97-2.11-22.58-1.41-45.63-2.12-69.15-2.12h-213.08v-84.67l111.48-14.11v-843.84zm204.61 351.36c10.35.95 31.52 1.42 63.5 1.42h66.32c57.39 0 100.19-17.88 128.42-53.63 28.22-35.74 42.33-86.07 42.33-150.98 0-62.09-14.58-107.25-43.75-135.47-29.16-28.22-77.61-42.33-145.34-42.33-17.87 0-55.03 1.88-111.48 5.64v375.35zm0 498.13c21.64 8.46 63.03 12.7 124.18 12.7 79.96 0 137.82-18.82 173.57-56.45 35.74-37.63 53.62-92.19 53.62-163.69 0-68.67-16.23-117.82-48.68-147.46-32.46-29.63-83.97-44.45-154.52-44.45-79.02 0-128.41.94-148.17 2.82v396.53z" class="fil6"/><path id="1" d="m11025.12 14636.39 111.48-14.11v-843.84l-105.83-19.76v-86.07h204.61c17.87 0 37.63-.48 59.27-1.42 21.63-.94 38.1-1.88 49.38-2.82 48.92-3.76 89.37-5.64 121.36-5.64 96.9 0 174.51 9.88 232.83 29.63 58.33 19.76 100.66 49.86 127 90.31 26.34 40.45 39.51 93.61 39.51 159.46 0 64.91-17.4 125.12-52.21 180.62-34.8 55.5-85.13 93.6-150.99 114.3 37.63 15.99 71.03 45.15 100.19 87.49 29.17 42.33 60.21 97.36 93.14 165.1 23.51 46.09 41.62 79.26 54.32 99.48 12.7 20.23 25.17 31.75 37.4 34.57l46.56 14.11v83.26h-239.88c-15.06 0-30.81-15.29-47.28-45.86-16.46-30.58-37.86-78.79-64.2-144.64-31.05-77.14-57.86-137.35-80.43-180.62-22.58-43.28-46.57-70.09-71.97-80.44h-145.35v352.78l129.83 14.11v84.67h-448.74v-84.67zm448.74-452.96c53.62 0 95.48-19.29 125.59-57.86 30.1-38.57 45.15-96.42 45.15-173.56 0-68.68-14.82-119.48-44.45-152.4-29.63-32.93-80.67-49.39-153.1-49.39-26.35 0-48.69 1.17-67.03 3.52-18.35 2.36-30.34 3.53-35.99 3.53v423.33c11.29 1.89 38.57 2.83 81.85 2.83h47.98z" class="fil6"/><path id="2" d="M12372.73 13666.96h215.9l325.97 955.32 81.84 14.11v84.67h-416.27v-84.67l105.83-14.11-55.03-183.44h-365.48l-55.03 184.85 114.3 12.7v84.67h-359.84l-1.41-84.67 84.67-14.11 324.55-955.32zm97.37 238.48-25.4-110.07-26.81 111.48-125.59 433.21h310.44l-132.64-434.62z" class="fil6"/><path id="3" d="m13162.96 13778.44-119.95-18.35v-87.48h451.56v87.48l-124.18 18.35v843.84l124.18 15.52v83.26h-451.56v-84.67l119.95-14.11z" class="fil6"/><path id="4" d="m13725.99 13778.44-111.48-18.35v-87.48h320.33l420.51 634.99 79.02 160.87v-690.03l-121.36-18.35v-87.48h349.96v87.48l-108.66 18.35v942.62h-170.74l-438.86-667.46-98.77-186.26v754.94l142.52 14.11v84.67h-373.95v-84.67l111.48-14.11z" class="fil6"/><path id="5" d="M15779.15 14736.58c-50.8 0-96.43-4.23-136.88-12.7-40.45-8.46-85.61-19.75-135.46-33.86-32.93-9.41-55.04-14.59-66.33-15.53l12.7-261.05h114.3l31.05 182.03c12.23 13.17 34.1 24.93 65.61 35.28 31.52 10.35 67.5 15.52 107.95 15.52 63.03 0 110.31-13.87 141.82-41.63 31.52-27.75 47.27-66.55 47.27-116.41 0-32.93-9.4-61.39-28.22-85.38-18.81-23.98-44.68-45.62-77.61-64.91-32.93-19.28-78.08-41.62-135.47-67.02-78.08-35.75-142.75-78.32-194.02-127.71-51.27-49.39-76.91-116.42-76.91-201.08 0-52.68 13.64-100.43 40.92-143.23 27.28-42.8 67.97-76.67 122.06-101.6 54.1-24.93 120.18-37.39 198.26-37.39 46.1 0 86.79 3.29 122.07 9.87 35.27 6.59 73.61 15.53 115 26.81 24.46 6.59 42.8 10.82 55.03 12.7l-8.46 246.95h-112.89l-29.63-173.57c-8.47-8.46-25.4-16.7-50.8-24.69-25.4-8-53.63-12-84.67-12-56.45 0-99.01 12.94-127.71 38.81-28.69 25.87-43.04 60.44-43.04 103.72 0 34.8 10.59 64.91 31.75 90.31 21.17 25.4 46.81 46.8 76.91 64.2 30.1 17.41 77.61 42.1 142.52 74.08 52.68 25.4 97.84 50.33 135.47 74.79 37.63 24.46 70.08 56.21 97.36 95.25 27.29 39.04 40.93 84.91 40.93 137.59 0 51.74-12.94 101.13-38.81 148.16-25.87 47.04-68.2 86.08-127 117.13-58.79 31.04-133.82 46.56-225.07 46.56z" class="fil7"/><path id="6" d="m16608.88 13765.74-201.79 7.05-55.03 307.63h-118.53l23.99-407.81h910.16l16.94 407.81h-111.48l-55.04-307.63-198.96-7.05v856.54l197.55 14.11v84.67h-588.43v-84.67l180.62-14.11z" class="fil7"/><path id="7" d="M17716.6 14736.58c-153.34 0-268.11-47.98-344.31-143.93-76.2-95.96-114.3-226.72-114.3-392.29 0-108.18 19.99-203.2 59.98-285.04 39.98-81.85 96.19-144.88 168.62-189.09 72.44-44.22 155.7-66.32 249.77-66.32 155.22 0 271.64 45.86 349.25 137.58 77.61 91.72 116.42 219.9 116.42 384.53 0 109.12-20.47 205.78-61.39 289.98-40.92 84.2-98.07 149.34-171.45 195.44-73.37 46.09-157.57 69.14-252.59 69.14zm14.12-990.6c-77.15 0-137.35 38.1-180.63 114.3-43.27 76.2-64.91 189.09-64.91 338.67 0 147.7 20.93 259.88 62.8 336.55 41.86 76.67 101.83 115 179.91 115 76.2 0 135.94-40.21 179.21-120.65 43.28-80.43 64.91-196.37 64.91-347.83 0-146.76-20.69-256.12-62.08-328.09-41.4-71.96-101.13-107.95-179.21-107.95z" class="fil7"/><path id="8" d="m18297.98 14636.39 111.48-14.11v-843.84l-105.83-19.76v-86.07h204.61c17.87 0 37.63-.48 59.27-1.42 21.63-.94 38.1-1.88 49.38-2.82 48.92-3.76 89.37-5.64 121.36-5.64 96.9 0 174.51 9.88 232.83 29.63 58.33 19.76 100.66 49.86 127 90.31 26.34 40.45 39.51 93.61 39.51 159.46 0 64.91-17.4 125.12-52.21 180.62-34.8 55.5-85.13 93.6-150.99 114.3 37.63 15.99 71.03 45.15 100.19 87.49 29.17 42.33 60.21 97.36 93.14 165.1 23.51 46.09 41.62 79.26 54.32 99.48 12.7 20.23 25.17 31.75 37.4 34.57l46.56 14.11v83.26h-239.88c-15.06 0-30.81-15.29-47.28-45.86-16.46-30.58-37.86-78.79-64.2-144.64-31.05-77.14-57.86-137.35-80.43-180.62-22.58-43.28-46.57-70.09-71.97-80.44h-145.35v352.78l129.83 14.11v84.67h-448.74v-84.67zm448.74-452.96c53.62 0 95.48-19.29 125.59-57.86 30.1-38.57 45.15-96.42 45.15-173.56 0-68.68-14.82-119.48-44.45-152.4-29.63-32.93-80.67-49.39-153.1-49.39-26.35 0-48.69 1.17-67.03 3.52-18.35 2.36-30.34 3.53-35.99 3.53v423.33c11.29 1.89 38.57 2.83 81.85 2.83h47.98z" class="fil7"/><path id="9" d="m19486.14 13778.44-152.4-18.35v-87.48H19774l167.93 606.77 39.51 165.1 33.86-165.1 166.51-606.77h436.04v87.48l-153.81 18.35 112.89 842.43 114.3 15.52v84.67h-450.15v-84.67l124.18-14.11-62.09-618.06-26.81-258.24-52.21 217.31-204.61 714.03h-149.58l-208.84-677.34-71.97-254-21.17 258.24-53.62 618.06 142.52 14.11v84.67h-392.29v-84.67l118.54-14.11z" class="fil7"/><path id="10" d="M10764.36 16043.04c-95.96 0-169.34-28.64-220.14-85.93-50.8-57.29-76.2-135.61-76.2-234.95 0-65.48 13.41-122.63 40.22-171.46 26.81-48.82 63.64-86.5 110.49-113.03 46.85-26.52 99.91-39.79 159.17-39.79 24.84 0 48.83 1.55 71.97 4.66 23.14 3.1 50.52 7.19 82.13 12.27 23.71 3.96 36.69 5.93 38.95 5.93l-9.32 174.41h-77.89l-26.25-121.07c-6.21-6.21-16.93-11.29-32.17-15.24-15.24-3.95-34.72-5.93-58.42-5.93-47.98 0-86.5 22.16-115.57 66.47-29.07 44.31-43.61 108.51-43.61 192.62 0 81.28 13.83 147.6 41.49 198.96 27.66 51.37 68.02 77.05 121.07 77.05 25.4 0 45.02-2.4 58.85-7.2 13.83-4.79 25.54-11.71 35.13-20.74l37.26-87.21 71.12 6.78-16.93 131.23a213.946 213.946 0 0 0-35.14 6.35c-11.57 3.1-18.77 4.94-21.59 5.5-22.58 6.21-43.61 11.15-63.08 14.82s-43.32 5.5-71.54 5.5z" class="fil8"/><path id="11" d="m11033.6 15982.93 66.89-8.47v-506.31l-63.5-11.85v-51.65h122.76c10.73 0 22.58-.28 35.56-.84 12.99-.57 22.86-1.13 29.64-1.7 29.35-2.25 53.62-3.38 72.81-3.38 58.14 0 104.71 5.92 139.7 17.78 35 11.85 60.4 29.91 76.2 54.18 15.81 24.28 23.71 56.17 23.71 95.68 0 38.94-10.44 75.07-31.33 108.37-20.88 33.3-51.08 56.16-90.59 68.58 22.58 9.6 42.61 27.1 60.11 52.5s36.13 58.42 55.88 99.06c14.11 27.65 24.98 47.55 32.6 59.69 7.62 12.13 15.1 19.05 22.44 20.74l27.94 8.47v49.95h-143.94c-9.03 0-18.48-9.17-28.36-27.52-9.88-18.34-22.72-47.27-38.53-86.78-18.62-46.29-34.71-82.41-48.26-108.37-13.54-25.97-27.94-42.06-43.18-48.26h-87.2v211.66l77.89 8.47v50.8h-269.24v-50.8zm269.24-271.78c32.17 0 57.29-11.57 75.35-34.71 18.07-23.15 27.1-57.86 27.1-104.15 0-41.2-8.89-71.68-26.67-91.44-17.78-19.75-48.4-29.63-91.87-29.63-15.8 0-29.21.71-40.21 2.12-11.01 1.41-18.21 2.11-21.59 2.11v254.01c6.77 1.12 23.14 1.69 49.1 1.69h28.79z" class="fil8"/><path id="12" d="m11710.94 15468.15-67.74-11v-52.5h451.28l11.01 142.24h-59.27l-27.94-83.82-182.88-7.62v227.76l117.68-2.54 13.55-69.43h54.19v204.9h-54.19l-13.55-72.82-117.68-2.54v238.76l204.89-10.16 49.11-108.37 63.5 17.78-22.01 154.94h-486.84v-50.8l66.89-8.47z" class="fil8"/><path id="13" d="M12396.74 15401.27h129.54l195.58 573.19 49.11 8.47v50.8h-249.77v-50.8l63.5-8.47-33.02-110.06h-219.29l-33.02 110.91 68.58 7.62v50.8h-215.9l-.84-50.8 50.8-8.47 194.73-573.19zm58.42 143.08-15.24-66.04-16.09 66.89-75.35 259.93h186.27l-79.59-260.78z" class="fil8"/><path id="14" d="m12998.72 15460.53-121.07 4.24-33.02 184.57h-71.12l14.39-244.69h546.1l10.16 244.69h-66.88l-33.02-184.57-119.39-4.24v513.93l118.54 8.47v50.8h-353.06v-50.8l108.37-8.47z" class="fil8"/><path id="15" d="m13462.7 15468.15-67.74-11v-52.5h451.28l11.01 142.24h-59.27l-27.94-83.82-182.88-7.62v227.76l117.68-2.54 13.55-69.43h54.19v204.9h-54.19l-13.55-72.82-117.68-2.54v238.76l204.89-10.16 49.11-108.37 63.5 17.78-22.01 154.94h-486.84v-50.8l66.89-8.47z" class="fil8"/><path id="16" d="m14017.27 15468.15-63.5-11v-52.5h123.61c18.63 0 43.75-1.12 75.35-3.38 7.34-.57 18.49-1.13 33.45-1.7 14.96-.56 28.36-.84 40.21-.84 103.86 0 181.62 25.96 233.26 77.89 51.65 51.93 77.47 125.59 77.47 220.98 0 66.61-12.84 125.87-38.52 177.8-25.68 51.93-62.23 92.43-109.64 121.5-47.42 29.07-102.73 43.6-165.95 43.6-16.37 0-42.05-1.13-77.05-3.38-32.74-2.26-55.03-3.39-66.89-3.39h-128.69v-50.8l66.89-8.47v-506.31zm122.76 508.85c19.2 5.08 46.01 7.62 80.44 7.62 56.44-1.13 100.75-23.84 132.93-68.15 32.17-44.31 48.26-110.78 48.26-199.39 0-84.11-15.81-149.16-47.42-195.16s-80.71-69.01-147.32-69.01c-14.11 0-27.52.85-40.22 2.54-12.7 1.7-21.59 2.83-26.67 3.39V15977z" class="fil8"/><path id="17" d="m14862.25 15468.15-66.04-11v-52.5h126.15c19.19 0 44.03-1.12 74.51-3.38 7.34-.57 16.08-1.13 26.24-1.7 10.16-.56 22.02-.84 35.56-.84 85.24 0 144.93 11.99 179.08 35.98 34.14 23.99 51.22 59.69 51.22 107.1 0 41.77-12.56 76.63-37.68 104.57-25.12 27.94-57.99 45.01-98.64 51.22 55.89-.56 99.77 12.14 131.66 38.1 31.89 25.97 47.84 62.09 47.84 108.38 0 58.7-20.6 105.83-61.81 141.39-41.2 35.56-110.07 53.34-206.59 53.34-25.4 0-48.82-.85-70.27-2.54-5.64 0-15.24-.42-28.79-1.27-13.54-.85-27.37-1.27-41.48-1.27h-127.85v-50.8l66.89-8.47v-506.31zm122.76 210.83c6.21.56 18.91.84 38.1.84h39.8c34.43 0 60.11-10.72 77.04-32.17 16.94-21.45 25.4-51.65 25.4-90.6 0-37.25-8.74-64.34-26.24-81.28-17.5-16.93-46.57-25.4-87.21-25.4-10.72 0-33.02 1.13-66.89 3.39v225.22zm0 298.87c12.99 5.08 37.82 7.62 74.51 7.62 47.98 0 82.69-11.29 104.14-33.87 21.45-22.57 32.18-55.31 32.18-98.21 0-41.21-9.74-70.7-29.22-88.48-19.47-17.78-50.37-26.67-92.71-26.67-47.41 0-77.04.57-88.9 1.7v237.91z" class="fil8"/><path id="18" d="m15575.14 15783.96-181.19-315.81-48.26-11v-52.5h248.92v52.5l-60.11 11 105.83 207.44 23.71 58.42 24.55-58.42 97.37-207.44-66.04-11v-52.5h206.59v52.5l-52.49 10.16-168.49 315.81v191.34l92.29 8.47v50.8h-312.43v-50.8l89.75-8.47z" class="fil8"/><path id="19" d="m16210.99 15468.15-67.74-11v-52.5h451.28l11.01 142.24h-59.27l-27.94-83.82-182.88-7.62v227.76l117.68-2.54 13.55-69.43h54.19v204.9h-54.19l-13.55-72.82-117.68-2.54v238.76l204.89-10.16 49.11-108.37 63.5 17.78-22.01 154.94h-486.84v-50.8l66.89-8.47z" class="fil8"/><path id="20" d="m16698.67 15982.93 66.89-8.47v-506.31l-63.5-11.85v-51.65h122.76c10.73 0 22.58-.28 35.56-.84 12.99-.57 22.86-1.13 29.64-1.7 29.35-2.25 53.62-3.38 72.81-3.38 58.14 0 104.71 5.92 139.7 17.78 35 11.85 60.4 29.91 76.2 54.18 15.81 24.28 23.71 56.17 23.71 95.68 0 38.94-10.44 75.07-31.33 108.37-20.88 33.3-51.08 56.16-90.59 68.58 22.58 9.6 42.61 27.1 60.11 52.5s36.13 58.42 55.88 99.06c14.11 27.65 24.98 47.55 32.6 59.69 7.62 12.13 15.1 19.05 22.44 20.74l27.94 8.47v49.95h-143.94c-9.03 0-18.48-9.17-28.36-27.52-9.88-18.34-22.72-47.27-38.53-86.78-18.62-46.29-34.71-82.41-48.26-108.37-13.54-25.97-27.94-42.06-43.18-48.26h-87.2v211.66l77.89 8.47v50.8h-269.24v-50.8zm269.24-271.78c32.17 0 57.29-11.57 75.35-34.71 18.07-23.15 27.1-57.86 27.1-104.15 0-41.2-8.89-71.68-26.67-91.44-17.78-19.75-48.4-29.63-91.87-29.63-15.8 0-29.21.71-40.21 2.12-11.01 1.41-18.21 2.11-21.59 2.11v254.01c6.77 1.12 23.14 1.69 49.1 1.69h28.79z" class="fil8"/><path id="21" d="m17514.86 15460.53-121.07 4.24-33.02 184.57h-71.12l14.39-244.69h546.1l10.16 244.69h-66.88l-33.02-184.57-119.39-4.24v513.93l118.54 8.47v50.8h-353.06v-50.8l108.37-8.47z" class="fil8"/><path id="22" d="m18094.83 15783.96-181.19-315.81-48.26-11v-52.5h248.92v52.5l-60.11 11 105.83 207.44 23.71 58.42 24.55-58.42 97.37-207.44-66.04-11v-52.5h206.59v52.5l-52.49 10.16-168.49 315.81v191.34l92.29 8.47v50.8h-312.43v-50.8l89.75-8.47z" class="fil8"/><path id="23" d="m18530.86 15468.15-62.65-11v-52.5h257.39v52.5l-71.12 11v212.52h257.39v-212.52l-65.2-11v-52.5h254v52.5l-64.34 11v506.31l64.34 8.47v50.8h-254.85v-50.8l66.05-8.47v-229.44h-257.39v229.44l71.12 8.47v50.8h-259.08v-50.8l64.34-8.47z" class="fil8"/><path id="24" d="m19236.99 15468.15-63.5-11v-52.5h123.61c18.63 0 43.75-1.12 75.35-3.38 7.34-.57 18.49-1.13 33.45-1.7 14.96-.56 28.36-.84 40.21-.84 103.86 0 181.62 25.96 233.26 77.89 51.65 51.93 77.47 125.59 77.47 220.98 0 66.61-12.84 125.87-38.52 177.8-25.68 51.93-62.23 92.43-109.64 121.5-47.42 29.07-102.73 43.6-165.95 43.6-16.37 0-42.05-1.13-77.05-3.38-32.74-2.26-55.03-3.39-66.89-3.39h-128.69v-50.8l66.89-8.47v-506.31zm122.76 508.85c19.2 5.08 46.01 7.62 80.44 7.62 56.44-1.13 100.75-23.84 132.93-68.15 32.17-44.31 48.26-110.78 48.26-199.39 0-84.11-15.81-149.16-47.42-195.16s-80.71-69.01-147.32-69.01c-14.11 0-27.52.85-40.22 2.54-12.7 1.7-21.59 2.83-26.67 3.39V15977z" class="fil8"/></g></svg>