<?xml version="1.0" encoding="UTF-8"?>
<!DOCTYPE svg PUBLIC "-//W3C//DTD SVG 1.1//EN" "http://www.w3.org/Graphics/SVG/1.1/DTD/svg11.dtd">
<!-- Creator: CorelDRAW 2020 (64-Bit) -->
<svg xmlns="http://www.w3.org/2000/svg" xml:space="preserve" width="210mm" height="297mm" version="1.1" style="shape-rendering:geometricPrecision; text-rendering:geometricPrecision; image-rendering:optimizeQuality; fill-rule:evenodd; clip-rule:evenodd"
viewBox="0 0 21000 29700"
 xmlns:xlink="http://www.w3.org/1999/xlink"
 xmlns:xodm="http://www.corel.com/coreldraw/odm/2003">
 <defs>
  <style type="text/css">
   <![CDATA[
    .fil0 {fill:#EC7C1B;fill-rule:nonzero}
    .fil1 {fill:darkgray;fill-rule:nonzero}
   ]]>
  </style>
 </defs>
 <g id="Layer_x0020_1">
  <metadata id="CorelCorpID_0Corel-Layer"/>
  <path class="fil0" d="M2873.65 11759.3l-127 -22.02 0 -104.98 255.69 0c23.71,0 60.39,-1.13 110.07,-3.39 65.47,-4.52 124.74,-6.77 177.8,-6.77 117.4,0 210.25,14.39 278.55,43.18 68.3,28.78 116.84,69.99 145.62,123.61 28.79,53.62 43.18,121.64 43.18,204.05 0,142.23 -44.3,252.87 -132.92,331.89 -88.62,79.02 -211.39,118.53 -368.3,118.53 -62.09,0 -106.68,-1.69 -133.77,-5.08l0 333.59 226.9 16.93 0 101.6 -609.6 0 0 -101.6 133.78 -16.93 0 -1012.61zm247.22 570.65c25.97,5.64 69.99,8.46 132.08,8.46 75.64,0 136.32,-26.24 182.04,-78.74 45.72,-52.49 68.58,-139.7 68.58,-261.61 0,-94.83 -20.61,-163.98 -61.81,-207.44 -41.21,-43.46 -104.14,-65.19 -188.81,-65.19 -31.61,0 -64.34,2.26 -98.21,6.77 -15.81,2.26 -27.09,3.39 -33.87,3.39l0 594.36zm872.07 -570.65l-125.31 -22.02 0 -104.98 514.77 0 0 104.98 -142.24 22.02 0 425.02 514.77 0 0 -425.02 -130.38 -22.02 0 -104.98 508 0 0 104.98 -128.7 22.02 0 1012.61 128.7 16.93 0 101.6 -509.69 0 0 -101.6 132.07 -16.93 0 -458.9 -514.77 0 0 458.9 142.24 16.93 0 101.6 -518.16 0 0 -101.6 128.7 -16.93 0 -1012.61zm1813.55 1149.77c-184.01,0 -321.73,-57.58 -413.17,-172.72 -91.44,-115.15 -137.16,-272.06 -137.16,-470.75 0,-129.82 23.99,-243.84 71.97,-342.05 47.97,-98.21 115.43,-173.85 202.35,-226.91 86.92,-53.06 186.83,-79.58 299.72,-79.58 186.27,0 325.96,55.03 419.1,165.1 93.13,110.06 139.7,263.87 139.7,461.43 0,130.95 -24.56,246.94 -73.66,347.98 -49.11,101.03 -117.69,179.21 -205.74,234.52 -88.05,55.32 -189.09,82.98 -303.11,82.98zm16.94 -1188.72c-92.57,0 -164.82,45.72 -216.75,137.16 -51.93,91.44 -77.89,226.9 -77.89,406.4 0,177.23 25.11,311.85 75.35,403.86 50.23,92 122.2,138 215.9,138 91.44,0 163.12,-48.26 215.05,-144.78 51.93,-96.52 77.89,-235.65 77.89,-417.4 0,-176.11 -24.83,-307.34 -74.5,-393.7 -49.67,-86.36 -121.36,-129.54 -215.05,-129.54zm816.18 38.95l-133.78 -22.02 0 -104.98 384.39 0 504.61 761.99 94.83 193.04 0 -828.03 -145.63 -22.02 0 -104.98 419.95 0 0 104.98 -130.39 22.02 0 1131.14 -204.89 0 -526.63 -800.95 -118.53 -223.51 0 905.93 171.03 16.93 0 101.6 -448.74 0 0 -101.6 133.78 -16.93 0 -1012.61zm1358.04 0l-135.46 -22.02 0 -104.98 902.54 0 22.01 284.48 -118.53 0 -55.88 -167.64 -365.76 -15.24 0 455.5 235.38 -5.08 27.09 -138.85 108.37 0 0 409.78 -108.37 0 -27.09 -145.62 -235.38 -5.08 0 477.52 409.79 -20.32 98.21 -216.75 127 35.56 -44.03 309.88 -973.66 0 0 -101.6 133.77 -16.93 0 -1012.61zm1510.45 0l-132.08 -22.02 0 -104.98 252.31 0c38.38,0 88.05,-2.26 149.01,-6.78 14.68,-1.13 32.18,-2.26 52.5,-3.38 20.32,-1.13 44.02,-1.7 71.12,-1.7 170.46,0 289.84,23.99 358.13,71.97 68.3,47.98 102.45,119.38 102.45,214.21 0,83.53 -25.12,153.24 -75.35,209.12 -50.24,55.88 -116,90.03 -197.27,102.45 111.75,-1.13 199.53,24.27 263.31,76.2 63.78,51.93 95.67,124.18 95.67,216.74 0,117.41 -41.2,211.67 -123.61,282.79 -82.41,71.12 -220.13,106.68 -413.17,106.68 -50.8,0 -97.65,-1.69 -140.55,-5.08 -11.29,0 -30.48,-0.85 -57.57,-2.54 -27.1,-1.69 -54.76,-2.54 -82.98,-2.54l-255.69 0 0 -101.6 133.77 -16.93 0 -1012.61zm245.54 421.63c12.41,1.13 37.81,1.7 76.2,1.7l79.58 0c68.86,0 120.23,-21.45 154.1,-64.35 33.86,-42.9 50.8,-103.29 50.8,-181.18 0,-74.51 -17.5,-128.7 -52.5,-162.56 -34.99,-33.87 -93.13,-50.8 -174.41,-50.8 -21.45,0 -66.04,2.25 -133.77,6.77l0 450.42zm0 597.75c25.96,10.16 75.63,15.24 149.01,15.24 95.95,0 165.38,-22.58 208.28,-67.73 42.9,-45.16 64.34,-110.63 64.34,-196.43 0,-82.41 -19.47,-141.39 -58.41,-176.95 -38.95,-35.56 -100.76,-53.34 -185.42,-53.34 -94.83,0 -154.1,1.13 -177.8,3.38l0 475.83zm824.65 -357.29c0,-106.12 21.17,-196.43 63.5,-270.94 42.33,-74.5 99.06,-130.66 170.18,-168.48 71.12,-37.82 148.45,-56.73 231.99,-56.73 142.24,0 252.02,43.75 329.35,131.23 77.33,87.49 115.99,206.31 115.99,356.45 0,107.25 -21.17,198.4 -63.5,273.47 -42.33,75.07 -98.78,130.95 -169.33,167.64 -70.56,36.69 -148.17,55.04 -232.83,55.04 -141.12,0 -250.62,-43.75 -328.51,-131.24 -77.89,-87.49 -116.84,-206.3 -116.84,-356.44zm458.89 377.61c127.57,0 191.35,-123.05 191.35,-369.15 0,-128.69 -15.24,-226.62 -45.72,-293.79 -30.48,-67.17 -80.15,-100.75 -149.01,-100.75 -130.96,0 -196.43,123.05 -196.43,369.14 0,128.7 16.09,226.63 48.26,293.8 32.17,67.17 82.69,100.75 151.55,100.75zm606.21 -377.61c0,-106.12 21.17,-196.43 63.5,-270.94 42.33,-74.5 99.06,-130.66 170.18,-168.48 71.12,-37.82 148.45,-56.73 231.99,-56.73 142.24,0 252.02,43.75 329.35,131.23 77.33,87.49 115.99,206.31 115.99,356.45 0,107.25 -21.17,198.4 -63.5,273.47 -42.33,75.07 -98.78,130.95 -169.33,167.64 -70.56,36.69 -148.17,55.04 -232.83,55.04 -141.12,0 -250.62,-43.75 -328.51,-131.24 -77.89,-87.49 -116.84,-206.3 -116.84,-356.44zm458.89 377.61c127.57,0 191.35,-123.05 191.35,-369.15 0,-128.69 -15.24,-226.62 -45.72,-293.79 -30.48,-67.17 -80.15,-100.75 -149.01,-100.75 -130.96,0 -196.43,123.05 -196.43,369.14 0,128.7 16.09,226.63 48.26,293.8 32.17,67.17 82.69,100.75 151.55,100.75zm1495.21 91.44c-16.94,0 -38.95,-21.73 -66.04,-65.19 -27.1,-43.47 -64.91,-112.61 -113.45,-207.44 -41.77,-81.28 -76.77,-146.75 -104.99,-196.42 -28.22,-49.67 -55.32,-90.88 -81.28,-123.62l-150.71 172.72 0 301.42 145.63 18.62 0 99.91 -526.63 0 0 -101.6 133.78 -16.93 0 -1012.61 -132.08 -22.02 0 -104.98 509.69 0 0 104.98 -130.39 22.02 0 552.02 445.35 -552.02 -138.85 -22.02 0 -104.98 457.19 0 0 104.98 -140.54 22.02 -328.51 369.14c39.51,36.13 81.28,87.21 125.31,153.25 44.02,66.04 97.65,152.12 160.86,258.23 46.29,77.89 81.28,134.62 104.99,170.18 23.71,35.56 41.77,56.16 54.19,61.81l79.58 18.62 0 99.91 -303.1 0z"/>
  <path class="fil1" d="M2827.35 11706.39l-127 -22.02 0 -104.98 255.69 0c23.71,0 60.39,-1.13 110.07,-3.39 65.47,-4.52 124.74,-6.77 177.8,-6.77 117.4,0 210.25,14.39 278.55,43.18 68.3,28.78 116.84,69.99 145.62,123.61 28.79,53.62 43.18,121.64 43.18,204.05 0,142.23 -44.3,252.87 -132.92,331.89 -88.62,79.02 -211.39,118.53 -368.3,118.53 -62.09,0 -106.68,-1.69 -133.77,-5.08l0 333.59 226.9 16.93 0 101.6 -609.6 0 0 -101.6 133.78 -16.93 0 -1012.61zm247.22 570.65c25.97,5.64 69.99,8.46 132.08,8.46 75.64,0 136.32,-26.24 182.04,-78.74 45.72,-52.49 68.58,-139.7 68.58,-261.61 0,-94.83 -20.61,-163.98 -61.81,-207.44 -41.21,-43.46 -104.14,-65.19 -188.81,-65.19 -31.61,0 -64.34,2.26 -98.21,6.77 -15.81,2.26 -27.09,3.39 -33.87,3.39l0 594.36zm872.07 -570.65l-125.31 -22.02 0 -104.98 514.77 0 0 104.98 -142.24 22.02 0 425.02 514.77 0 0 -425.02 -130.38 -22.02 0 -104.98 508 0 0 104.98 -128.7 22.02 0 1012.61 128.7 16.93 0 101.6 -509.69 0 0 -101.6 132.07 -16.93 0 -458.9 -514.77 0 0 458.9 142.24 16.93 0 101.6 -518.16 0 0 -101.6 128.7 -16.93 0 -1012.61zm1813.55 1149.77c-184.01,0 -321.73,-57.58 -413.17,-172.72 -91.44,-115.15 -137.16,-272.06 -137.16,-470.75 0,-129.82 23.99,-243.84 71.97,-342.05 47.97,-98.21 115.43,-173.85 202.35,-226.91 86.92,-53.06 186.83,-79.58 299.72,-79.58 186.27,0 325.96,55.03 419.1,165.1 93.13,110.06 139.7,263.87 139.7,461.43 0,130.95 -24.56,246.94 -73.66,347.98 -49.11,101.03 -117.69,179.21 -205.74,234.52 -88.05,55.32 -189.09,82.98 -303.11,82.98zm16.94 -1188.72c-92.57,0 -164.82,45.72 -216.75,137.16 -51.93,91.44 -77.89,226.9 -77.89,406.4 0,177.23 25.11,311.85 75.35,403.86 50.23,92 122.2,138 215.9,138 91.44,0 163.12,-48.26 215.05,-144.78 51.93,-96.52 77.89,-235.65 77.89,-417.4 0,-176.11 -24.83,-307.34 -74.5,-393.7 -49.67,-86.36 -121.36,-129.54 -215.05,-129.54zm816.18 38.95l-133.78 -22.02 0 -104.98 384.39 0 504.61 761.99 94.83 193.04 0 -828.03 -145.63 -22.02 0 -104.98 419.95 0 0 104.98 -130.39 22.02 0 1131.14 -204.89 0 -526.63 -800.95 -118.53 -223.51 0 905.93 171.03 16.93 0 101.6 -448.74 0 0 -101.6 133.78 -16.93 0 -1012.61zm1358.04 0l-135.46 -22.02 0 -104.98 902.54 0 22.01 284.48 -118.53 0 -55.88 -167.64 -365.76 -15.24 0 455.5 235.38 -5.08 27.09 -138.85 108.37 0 0 409.78 -108.37 0 -27.09 -145.62 -235.38 -5.08 0 477.52 409.79 -20.32 98.21 -216.75 127 35.56 -44.03 309.88 -973.66 0 0 -101.6 133.77 -16.93 0 -1012.61zm1510.45 0l-132.08 -22.02 0 -104.98 252.31 0c38.38,0 88.05,-2.26 149.01,-6.78 14.68,-1.13 32.18,-2.26 52.5,-3.38 20.32,-1.13 44.02,-1.7 71.12,-1.7 170.46,0 289.84,23.99 358.13,71.97 68.3,47.98 102.45,119.38 102.45,214.21 0,83.53 -25.12,153.24 -75.35,209.12 -50.24,55.88 -116,90.03 -197.27,102.45 111.75,-1.13 199.53,24.27 263.31,76.2 63.78,51.93 95.67,124.18 95.67,216.74 0,117.41 -41.2,211.67 -123.61,282.79 -82.41,71.12 -220.13,106.68 -413.17,106.68 -50.8,0 -97.65,-1.69 -140.55,-5.08 -11.29,0 -30.48,-0.85 -57.57,-2.54 -27.1,-1.69 -54.76,-2.54 -82.98,-2.54l-255.69 0 0 -101.6 133.77 -16.93 0 -1012.61zm245.54 421.63c12.41,1.13 37.81,1.7 76.2,1.7l79.58 0c68.86,0 120.23,-21.45 154.1,-64.35 33.86,-42.9 50.8,-103.29 50.8,-181.18 0,-74.51 -17.5,-128.7 -52.5,-162.56 -34.99,-33.87 -93.13,-50.8 -174.41,-50.8 -21.45,0 -66.04,2.25 -133.77,6.77l0 450.42zm0 597.75c25.96,10.16 75.63,15.24 149.01,15.24 95.95,0 165.38,-22.58 208.28,-67.73 42.9,-45.16 64.34,-110.63 64.34,-196.43 0,-82.41 -19.47,-141.39 -58.41,-176.95 -38.95,-35.56 -100.76,-53.34 -185.42,-53.34 -94.83,0 -154.1,1.13 -177.8,3.38l0 475.83zm824.65 -357.29c0,-106.12 21.17,-196.43 63.5,-270.94 42.33,-74.5 99.06,-130.66 170.18,-168.48 71.12,-37.82 148.45,-56.73 231.99,-56.73 142.24,0 252.02,43.75 329.35,131.23 77.33,87.49 115.99,206.31 115.99,356.45 0,107.25 -21.17,198.4 -63.5,273.47 -42.33,75.07 -98.78,130.95 -169.33,167.64 -70.56,36.69 -148.17,55.04 -232.83,55.04 -141.12,0 -250.62,-43.75 -328.51,-131.24 -77.89,-87.49 -116.84,-206.3 -116.84,-356.44zm458.89 377.61c127.57,0 191.35,-123.05 191.35,-369.15 0,-128.69 -15.24,-226.62 -45.72,-293.79 -30.48,-67.17 -80.15,-100.75 -149.01,-100.75 -130.96,0 -196.43,123.05 -196.43,369.14 0,128.7 16.09,226.63 48.26,293.8 32.17,67.17 82.69,100.75 151.55,100.75zm606.21 -377.61c0,-106.12 21.17,-196.43 63.5,-270.94 42.33,-74.5 99.06,-130.66 170.18,-168.48 71.12,-37.82 148.45,-56.73 231.99,-56.73 142.24,0 252.02,43.75 329.35,131.23 77.33,87.49 115.99,206.31 115.99,356.45 0,107.25 -21.17,198.4 -63.5,273.47 -42.33,75.07 -98.78,130.95 -169.33,167.64 -70.56,36.69 -148.17,55.04 -232.83,55.04 -141.12,0 -250.62,-43.75 -328.51,-131.24 -77.89,-87.49 -116.84,-206.3 -116.84,-356.44zm458.89 377.61c127.57,0 191.35,-123.05 191.35,-369.15 0,-128.69 -15.24,-226.62 -45.72,-293.79 -30.48,-67.17 -80.15,-100.75 -149.01,-100.75 -130.96,0 -196.43,123.05 -196.43,369.14 0,128.7 16.09,226.63 48.26,293.8 32.17,67.17 82.69,100.75 151.55,100.75zm1495.21 91.44c-16.94,0 -38.95,-21.73 -66.04,-65.19 -27.1,-43.47 -64.91,-112.61 -113.45,-207.44 -41.77,-81.28 -76.77,-146.75 -104.99,-196.42 -28.22,-49.67 -55.32,-90.88 -81.28,-123.62l-150.71 172.72 0 301.42 145.63 18.62 0 99.91 -526.63 0 0 -101.6 133.78 -16.93 0 -1012.61 -132.08 -22.02 0 -104.98 509.69 0 0 104.98 -130.39 22.02 0 552.02 445.35 -552.02 -138.85 -22.02 0 -104.98 457.19 0 0 104.98 -140.54 22.02 -328.51 369.14c39.51,36.13 81.28,87.21 125.31,153.25 44.02,66.04 97.65,152.12 160.86,258.23 46.29,77.89 81.28,134.62 104.99,170.18 23.71,35.56 41.77,56.16 54.19,61.81l79.58 18.62 0 99.91 -303.1 0z"/>
 </g>
</svg>
