<svg xmlns="http://www.w3.org/2000/svg" xml:space="preserve" width="210" height="297" style="shape-rendering:geometricPrecision;text-rendering:geometricPrecision;image-rendering:optimizeQuality;fill-rule:evenodd;clip-rule:evenodd" viewBox="0 0 21000 29700"><defs><style>.fil1,.fil2{fill:#000}</style></defs><g id="layer_x0020_1"><path d="M7492.08 2404.12c1219.34 0 2336.55 436.68 3204.29 1161.91-784.42-545-1737.13-864.73-2764.66-864.73-2679.36 0-4851.41 2172.06-4851.41 4851.41 0 2606.08 2054.94 4731.92 4632.81 4846.28-73.3 3.19-146.94 5.13-221.03 5.13-2761.42 0-5000-2238.58-5000-5000s2238.58-5000 5000-5000z" style="fill:#000"/><g id="_2791938824240"><path d="M7225.71 5361.71c49.23 0 54.33-9.41 58.35 38.89-38.24-8.91-39.47-10.7-58.35-38.89zm2275.53 2104.4v17.3c-1.2 3.05-2.84 6.4-5.08 10.14-9.27 15.52-101.22 41.9-126.03 51.48-76.32 29.47-39.88 40.8-73.22 101.82-47.49 86.89-123.78 77.91-204.1 77.91 0 72.17-31.77 94.93-82.47 121.73-115.28 60.94-54.54 38.61-109.88 84.63-26.15 21.75-38.27 11.95-77.1 20.13-32.38 6.82-35.47 20.38-72.04 25.21-45.1 5.96-48.45-7.28-86.25 10.99-25.51 12.33-26.45 29.04-68.21 29.04-83.25 0-56.82-29.47-162.54-7.08-118.08 25-218.16 18.4-329.4 3.08-52.94-7.29-115.09-24.18-159.6-25.17 14.68 30.59 38.9 261.56 38.9 301.46H6049.05c-30.83 0-47.8-36.33-58.6-58.1l-112.17-179.56c-11-15.38-15.24-21.51-23.87-34.48-237.96-357.36-82.33-315.62-172.07-518.38-29-65.53-2.59-117.95-2.49-191.32l.19-1041.24c-31.04-115.62-39.42-128.03-39.42-252.45 0-164.76 154.24-432.88 293.17-543.14 23.79-18.87 36.1-36.98 59.77-56.93 45.99-38.72 87.88-69.95 139.09-104.02 38.16-25.39 77.07-40.4 100.66-74.38 23.39-33.7 38.27-33.41 71.3-55.12 39.63-26.06 67.53-43.92 119.84-55.2 59.29-12.8 42.25 1 79.7-36.98 55.8-56.59 124.98-127.65 160.04-199.78 13-26.75 2.68-14.26 19.99-38.35l61.93-113.1c15.5-29.17 33.9-56.21 39.68-86.76 19.01-100.67 2.43-373.48 28.09-448.4 17.25-50.35 87.06-150.31 117.37-232.72 26.15-71.1 43.97-93.79 112.85-130.26 29.4-15.57 48.09-23.69 78.59-38.56 58.39-28.48 28.87-13.85 44.68-52.11 65.08 31.23 210.73-17.94 294.82 16.48l175.45 86.99c33.59 15.44 93.06 48.16 114.54 71 25.72 27.32 17.37 13.26 50.87 27.17l56.62 29.85c37.5 15.37 24.35 19.06 58.08 39.2 55.96 33.4 97.91 81.97 136.94 135.35l36.86 60.37c81.14 164.86 67.71 254.48 67.71 437.97 0 23.46-9.08 19.45-22.59 45.48-50.11 96.46-10.46 114.49-74.66 119.83 0-58.77 1.25-79.32-9.71-126.41h-38.9c0 28.91.69 37.8-19.29 47.36l-9.89 1.26c-6.96 83.59-43.62 80.71-48.62 126.41h-48.63c0 275.06 39.93 272.29-136.14 272.29-35.13 52.47-21.57 44.96-66.33 79.54l-27.42 41.1c-12.19 16.28-1.92 11.03-29.38 17.76-44.79 10.97-43.03 5.11-86.71 69.92-79.26 117.58-129.29 43.8-237.48 34.79 16.48 70.74 155.51 109.47 220.49 139.32 34.38 15.81 90.35 45.93 117.31 67.46 78.66 62.8 153.75 277.46 158.03 376.81 2.86 66.28 10.52 105.98 9.88 174.89-.94 99.48 19.41 126.34 19.41 155.63 0 32.13-27.96 36.88-29.4 106.74-.57 27.53 1.56 37.42-3.7 64.63-22.78 117.96 13.65 141.47 13.65 266.23 0 72.59-24.88 116.41-35.64 179.09-8.84 51.59 16.19 107.66 16.19 170.99 0 67.05-17.79 65.33-1.5 137.52 14.15 62.74 39.82 100.23 94.16 129.63l130.86 83.08c48.2 24.64 64.02-8.5 124.94 30.65 63.81 40.99 40.08 15.89 115.68 30.19l175.85 47.81c171.9 32.75 169.57-69.9 283.83-69.9 80.61 0 57.67 43.86 106.98 68.07 40.58 19.92 125.44 9.9 168.36 16.4 120.39 18.23 111.58 28.47 212.04-5.52 24.85-8.41 41.01-12.82 65.52-22 20.16-7.56 211.94-93.41 234.79-62.76zm-1468.4-2853.19 11.2 58.02-30.64.33c0-50.43-8.68-37.74 19.44-58.35zM8188.44 3932.21c.96.96 2.89-4.27 2.89-2.91-.18.19-3.86 1.94-2.89 2.91zM7964.77 3757.17l4.09-4.09c-.05.04-1.11 1.11-1.18 1.19-.2.19-3.87 1.93-2.91 2.9z" class="fil1"/></g><path d="M5989.16 8743.16c24.46 0 60.21-1.89 107.25-5.65 58.32-3.76 104.42-5.64 138.29-5.64 127 0 213.55 22.1 259.64 66.32 46.1 44.21 69.15 102.07 69.15 173.57 0 70.55-21.41 127.47-64.21 170.74-42.8 43.27-107.01 75.26-192.62 95.95 50.8-.94 95.25 8 133.35 26.82 38.1 18.81 67.27 44.45 87.49 76.9 20.23 32.46 30.34 67.5 30.34 105.13 0 126.06-41.63 217.31-124.88 273.75-83.26 56.45-209.08 84.67-377.47 84.67-16 0-36.22-.94-60.68-2.82s-41.86-3.29-52.21-4.23c-44.22-4.71-79.97-7.06-107.25-7.06h-201.79l5.65-71.97 95.95-19.75 115.72-865.01-100.19-15.52 8.46-76.2h230.01zm39.52 458.61c12.22.94 22.81 1.17 31.75.7 8.93-.47 16.69-.7 23.28-.7h33.87c63.97 0 116.88-17.41 158.75-52.22 41.86-34.8 62.79-88.42 62.79-160.86 0-55.51-13.41-97.6-40.22-126.3-26.81-28.69-66.08-43.03-117.82-43.03-43.28 0-77.15 2.82-101.6 8.46l-50.8 373.95zm-67.74 500.94c17.88 4.7 39.04 8.7 63.5 11.99 24.46 3.3 44.69 4.94 60.68 4.94 149.58 0 224.37-76.67 224.37-230.01 0-66.79-15.76-115.71-47.28-146.75-31.51-31.05-83.96-46.57-157.33-46.57-36.69 0-66.33.94-88.9 2.82l-55.04 403.58z" class="fil2"/><path id="1" d="M6937.43 8743.16c27.28 0 62.56-1.89 105.83-5.65 50.8-3.76 98.78-5.64 143.94-5.64 135.46 0 230.71 21.87 285.75 65.61 55.03 43.75 82.55 109.36 82.55 196.85 0 74.32-20.7 138.76-62.09 193.32-41.39 54.57-98.78 94.55-172.16 119.95 16 17.87 31.99 45.86 47.98 83.96 15.99 38.1 35.28 86.78 57.86 146.05l14.11 31.04c19.75 42.34 35.04 72.68 45.86 91.02 10.82 18.35 23.99 32.69 39.51 43.04 15.52 10.35 35.98 15.52 61.38 15.52l-7.05 73.38h-280.81c-8.47 0-16.94-10.11-25.4-30.34-8.47-20.22-21.17-53.86-38.1-100.89l-23.99-66.33c-53.62-152.4-87.96-238.47-103.01-258.23h-127l-45.16 364.07 127 19.75-4.23 71.97h-461.44l5.65-71.97 97.37-19.75 112.88-865.01-98.77-15.52 8.46-76.2h213.08zm57.86 498.12c15.99.94 33.86 1.64 53.62 2.11 19.75.47 36.69.24 50.8-.7 66.79 0 118.77-22.58 155.93-67.74 37.16-45.15 53.85-110.06 50.09-194.73-1.88-53.62-17.87-93.84-47.98-120.65-30.1-26.81-71.96-40.21-125.59-40.21-31.04 0-57.85 1.88-80.43 5.64l-56.44 416.28z" class="fil2"/><path id="2" d="m8280.8 8740.33 170.75 958.15 110.06 21.16-4.23 71.97h-469.9l2.82-71.97 108.66-19.75-28.22-196.15h-337.26l-83.25 196.15 129.82 19.75-5.65 71.97h-382.41l5.65-71.97 95.95-19.75 451.56-959.56h235.65zm-403.57 660.4h279.4l-55.04-381-5.64-131.23-218.72 512.23z" class="fil2"/><path id="3" d="m9113.36 8743.16-8.47 76.2-118.53 15.52-112.89 865.01 119.94 19.75-4.23 71.97H8522.1l9.88-71.97 103.01-19.75 112.89-865.01-100.19-15.52 7.06-76.2z" class="fil2"/><path id="4" d="m9557.86 8743.16 258.23 682.97 53.63 158.05 94.54-749.3-118.53-15.52 7.05-76.2h344.31l-7.05 76.2-84.67 15.52-146.75 956.73h-242.71l-270.94-705.56-53.62-173.56-87.49 787.4 131.23 19.75-7.05 71.97h-378.18l5.65-71.97 101.6-19.75 127-865.01-115.72-15.52 11.29-76.2z" class="fil2"/><path id="5" d="M11057.87 8850.4c-15.06-12.23-30.58-20.93-46.57-26.11-15.99-5.17-35.75-7.76-59.27-7.76-48.92 0-87.49 11.29-115.71 33.87s-42.33 52.68-42.33 90.31c0 47.04 14.58 87.49 43.74 121.36 29.17 33.86 79.97 73.37 152.4 118.53 65.85 42.33 118.07 87.96 156.64 136.88 38.57 48.92 57.85 105.36 57.85 169.33.94 58.33-13.64 111.71-43.74 160.16-30.11 48.45-75.5 87.25-136.17 116.42-60.68 29.16-134.77 43.74-222.25 43.74-70.56 0-138.06-7.52-202.5-22.58-64.44-15.05-105.6-30.1-123.47-45.15l39.51-217.31h141.11l7.06 153.81c33.86 29.16 78.08 43.74 132.64 43.74 64.91 0 112.18-12.93 141.82-38.8 29.63-25.87 44.45-60.44 44.45-103.72 0-42.33-13.41-79.73-40.22-112.18-26.81-32.46-73.14-69.38-138.99-110.77-69.62-44.22-124.18-91.73-163.69-142.53-39.51-50.8-59.27-110.06-59.27-177.8 0-95.95 35.98-170.51 107.95-223.66 71.97-53.15 165.34-79.72 280.11-79.72 125.11 0 216.84 16.93 275.16 50.8l-36.69 207.43h-129.82l-19.75-138.29z" class="fil2"/><path id="6" d="m12316.58 8743.16-57.86 399.34h-122.76l-11.29-300.57-167.92-16.93-115.71 874.89 193.32 18.34-7.06 73.38h-606.77l9.87-73.38 170.75-18.34 117.12-874.89-167.92 16.93-112.89 300.57h-127l67.73-399.34z" class="fil2"/><path id="7" d="M12840.1 8729.04c135.47 0 235.66 42.1 300.57 126.3 64.91 84.19 97.36 191.2 97.36 321.03 0 111-19.05 214.01-57.15 309.03-38.1 95.01-97.83 172.15-179.21 231.42-81.37 59.27-183.21 88.9-305.5 88.9-135.47 0-235.66-41.16-300.57-123.47-64.91-82.32-97.37-192.15-97.37-329.5 0-111 20-213.78 59.98-308.32 39.98-94.55 100.89-170.75 182.74-228.6 81.84-57.86 181.56-86.79 299.15-86.79zm-19.75 86.08c-54.57 0-101.84 24.93-141.82 74.79-39.98 49.86-70.56 115.24-91.72 196.14-21.17 80.91-31.75 166.99-31.75 258.24.94 111.01 12.7 201.55 35.27 271.64 22.58 70.08 64.44 105.12 125.59 105.12 57.39 0 105.84-23.04 145.35-69.14 39.51-46.1 69.14-109.13 88.9-189.09 19.75-79.96 29.63-170.27 29.63-270.93 0-123.24-12.46-216.84-37.39-280.81s-65.62-95.96-122.06-95.96z" class="fil2"/><path id="8" d="M13592.22 8743.16c27.28 0 62.56-1.89 105.83-5.65 50.8-3.76 98.78-5.64 143.94-5.64 135.46 0 230.71 21.87 285.75 65.61 55.03 43.75 82.55 109.36 82.55 196.85 0 74.32-20.7 138.76-62.09 193.32-41.39 54.57-98.78 94.55-172.16 119.95 16 17.87 31.99 45.86 47.98 83.96 15.99 38.1 35.28 86.78 57.86 146.05l14.11 31.04c19.75 42.34 35.04 72.68 45.86 91.02 10.82 18.35 23.99 32.69 39.51 43.04 15.52 10.35 35.98 15.52 61.38 15.52l-7.05 73.38h-280.81c-8.47 0-16.94-10.11-25.4-30.34-8.47-20.22-21.17-53.86-38.1-100.89l-23.99-66.33c-53.62-152.4-87.96-238.47-103.01-258.23h-127l-45.16 364.07 127 19.75-4.23 71.97h-461.44l5.65-71.97 97.37-19.75 112.88-865.01-98.77-15.52 8.46-76.2h213.08zm57.86 498.12c15.99.94 33.86 1.64 53.62 2.11 19.75.47 36.69.24 50.8-.7 66.79 0 118.77-22.58 155.93-67.74 37.16-45.15 53.85-110.06 50.09-194.73-1.88-53.62-17.87-93.84-47.98-120.65-30.1-26.81-71.96-40.21-125.59-40.21-31.04 0-57.85 1.88-80.43 5.64l-56.44 416.28z" class="fil2"/><path id="9" d="M15011.79 9327.35c25.4-64.91 64.44-162.27 117.13-292.09l117.12-292.1h414.86l-9.87 76.2-121.36 15.52-26.81 865.01 124.18 19.75-5.65 71.97h-486.83l5.64-73.38 129.83-18.34 39.51-588.44 14.11-276.57-98.78 242.71-303.39 715.43-115.71 11.29-93.13-709.79-39.51-259.64-59.27 266.7-143.93 598.31 155.22 19.75-7.06 71.97h-420.51l8.47-71.97 111.48-19.75 224.36-865.01-134.05-15.52 11.29-76.2h468.49l71.96 584.19 14.11 118.54 38.1-118.54z" class="fil2"/><path id="10" d="M5973.64 10310.25c29.16 0 70.09-1.89 122.77-5.65 47.04-3.76 81.37-5.64 103.01-5.64 138.29 0 236.83 24.69 295.63 74.08 58.79 49.39 88.19 123.94 88.19 223.66 0 85.61-19.99 158.99-59.97 220.13-39.98 61.15-96.9 107.72-170.75 139.7-73.84 31.99-160.63 47.98-260.34 47.98-35.75 0-63.03-1.41-81.85-4.23l-31.04 266.7 187.67 19.75-4.23 71.97h-529.17l7.06-71.97 94.54-19.75 115.72-865.01-101.6-15.52 9.87-76.2h214.49zm47.98 598.31c15.99 3.76 32.22 5.64 48.68 5.64h28.93c73.38-.94 131.47-31.51 174.27-91.72 42.81-60.21 64.68-139.7 65.62-238.48 0-67.73-15.76-117.59-47.27-149.58-31.52-31.98-75.5-47.97-131.94-47.97-23.52 0-46.1 1.88-67.73 5.64l-70.56 516.47z" class="fil2"/><path id="11" d="M6914.85 10729.34c31.98-52.68 70.79-94.54 116.41-125.58 45.63-31.05 95.25-46.57 148.88-46.57 122.29 0 183.44 69.61 183.44 208.84 0 35.75-11.76 117.13-35.28 244.13l-9.88 57.85c-13.17 73.38-19.75 123.24-19.75 149.58 0 25.4 8.94 38.1 26.81 38.1 7.53 0 15.76-2.12 24.69-6.35 8.94-4.23 21.41-12.47 37.4-24.7l19.75 47.98c-15.99 21.64-40.92 43.75-74.78 66.32-33.87 22.58-76.67 33.87-128.41 33.87-55.51 0-92.67-10.35-111.48-31.04-18.82-20.7-28.22-48.92-28.22-84.67 0-25.4 7.99-78.08 23.98-158.04l8.47-45.16c20.7-117.59 31.05-202.73 31.05-255.41 0-40.45-4.24-68.2-12.7-83.26-8.47-15.05-22.58-22.57-42.34-22.57-28.22 0-58.79 17.4-91.72 52.21-32.93 34.8-61.15 77.14-84.67 127l-59.26 486.83h-224.37l122.77-1021.64-87.49-29.64 11.29-56.44 279.4-29.63 35.27 19.75-59.26 488.24z" class="fil2"/><path id="12" d="M7942.13 10555.78c103.49 0 181.8 28.46 234.95 85.37 53.16 56.92 79.73 140.41 79.73 250.47 0 89.37-18.34 171.22-55.03 245.54-36.69 74.31-88.43 133.11-155.22 176.38-66.8 43.28-144.41 64.92-232.84 64.92-103.48 0-181.56-28.93-234.24-86.79-52.68-57.85-79.02-141.81-79.02-251.88 0-89.37 18.34-170.98 55.03-244.83 36.69-73.85 88.43-132.17 155.22-174.98 66.79-42.8 143.94-64.2 231.42-64.2zm-25.4 95.95c-40.45 0-73.84 20.94-100.18 62.8-26.35 41.86-45.4 94.31-57.15 157.34-11.76 63.03-16.7 126.53-14.82 190.5 2.82 81.84 11.99 140.17 27.52 174.97 15.52 34.81 40.21 52.22 74.08 52.22 55.5 0 96.66-38.57 123.47-115.72 26.81-77.14 40.22-167.45 40.22-270.93 0-93.13-7.29-158.28-21.87-195.44-14.59-37.16-38.34-55.74-71.27-55.74z" class="fil2"/><path id="13" d="M8668.86 10719.47c31.98-49.86 70.08-89.37 114.3-118.54 44.21-29.16 92.66-43.74 145.34-43.74 122.3 0 183.44 69.61 183.44 208.84 0 27.29-11.28 108.66-33.86 244.13-1.88 14.11-5.65 36.21-11.29 66.32-13.17 69.61-19.76 116.65-19.76 141.11 0 25.4 8.94 38.1 26.81 38.1 7.53 0 15.76-2.12 24.7-6.35 8.94-4.23 21.4-12.47 37.39-24.7l19.76 47.98c-15.99 21.64-40.92 43.75-74.79 66.32-33.87 22.58-77.14 33.87-129.82 33.87-54.56 0-91.25-10.82-110.07-32.45-18.81-21.64-28.22-49.39-28.22-83.26 0-25.4 8-78.08 23.99-158.04l8.47-45.16c20.69-117.59 31.04-202.73 31.04-255.41 0-40.45-4.23-68.2-12.7-83.26-8.47-15.05-22.58-22.57-42.33-22.57-27.29 0-56.92 16.22-88.9 48.68-31.99 32.45-59.27 72.67-81.85 120.65l-67.73 496.71h-218.72l88.9-664.63-73.38-39.51 11.29-60.68 254-36.69 35.28 16.93-11.29 145.35z" class="fil2"/><path id="14" d="M9868.3 11211.94c-25.4 40.46-65.85 78.32-121.35 113.6-55.51 35.28-122.3 52.92-200.38 52.92-69.61 0-127-14.82-172.15-44.45-45.16-29.64-78.09-68.44-98.78-116.42-20.7-47.98-31.05-99.72-31.05-155.22 0-95.96 19.52-182.51 58.56-259.65 39.05-77.14 92.67-137.58 160.87-181.32 68.2-43.75 143.7-65.62 226.48-65.62 77.14 0 134.06 16.93 170.75 50.8s55.03 77.61 55.03 131.23c0 68.68-22.58 125.83-67.73 171.45-45.16 45.63-100.43 79.26-165.81 100.9-65.38 21.63-130.05 33.39-194.02 35.27-.95 69.62 10.11 122.3 33.16 158.05 23.04 35.75 55.26 53.62 96.66 53.62 47.98 0 88.19-10.82 120.65-32.46 32.45-21.63 60.91-48.91 85.37-81.84l43.74 69.14zm-227.18-560.21c-48.92 0-85.38 31.52-109.37 94.55-23.98 63.03-38.33 134.99-43.03 215.9 29.16-1.88 60.2-11.06 93.13-27.52 32.92-16.46 60.68-40.22 83.25-71.26 22.58-31.04 33.87-67.26 33.87-108.66 0-68.67-19.28-103.01-57.85-103.01z" class="fil2"/><path id="15" d="M10631.71 10630.57c58.32-48.92 122.76-73.38 193.32-73.38 79.02 0 138.29 25.63 177.8 76.91 39.51 51.27 59.26 125.35 59.26 222.24 0 95.96-19.05 183.21-57.15 261.77-38.09 78.55-92.66 140.64-163.68 186.26-71.03 45.63-153.58 68.44-247.65 68.44-49.86 0-105.37-9.88-166.51-29.63l-100.19 29.63 129.82-1037.16-71.97-29.64 14.11-57.85 246.95-26.81 36.69 19.75-50.8 389.47zm-83.26 639.23c18.82 5.64 39.98 8.47 63.5 8.47 74.32 0 129.59-41.16 165.81-123.48 36.21-82.31 54.32-181.79 54.32-298.45 0-51.74-8.46-94.54-25.4-128.41-16.93-33.86-42.33-50.8-76.2-50.8-41.39 0-79.02 21.17-112.88 63.5l-69.15 529.17z" class="fil2"/><path id="16" d="M11596.9 10555.78c103.49 0 181.8 28.46 234.95 85.37 53.16 56.92 79.73 140.41 79.73 250.47 0 89.37-18.34 171.22-55.03 245.54-36.69 74.31-88.43 133.11-155.22 176.38-66.8 43.28-144.41 64.92-232.84 64.92-103.48 0-181.56-28.93-234.24-86.79-52.68-57.85-79.02-141.81-79.02-251.88 0-89.37 18.34-170.98 55.03-244.83 36.69-73.85 88.43-132.17 155.22-174.98 66.79-42.8 143.94-64.2 231.42-64.2zm-25.4 95.95c-40.45 0-73.84 20.94-100.18 62.8-26.35 41.86-45.4 94.31-57.15 157.34-11.76 63.03-16.7 126.53-14.82 190.5 2.82 81.84 11.99 140.17 27.52 174.97 15.52 34.81 40.21 52.22 74.08 52.22 55.5 0 96.66-38.57 123.47-115.72 26.81-77.14 40.22-167.45 40.22-270.93 0-93.13-7.29-158.28-21.87-195.44-14.59-37.16-38.34-55.74-71.27-55.74z" class="fil2"/><path id="17" d="M12447.8 10555.78c103.49 0 181.8 28.46 234.95 85.37 53.16 56.92 79.73 140.41 79.73 250.47 0 89.37-18.34 171.22-55.03 245.54-36.69 74.31-88.43 133.11-155.22 176.38-66.8 43.28-144.41 64.92-232.84 64.92-103.48 0-181.56-28.93-234.24-86.79-52.68-57.85-79.02-141.81-79.02-251.88 0-89.37 18.34-170.98 55.03-244.83 36.69-73.85 88.43-132.17 155.22-174.98 66.79-42.8 143.94-64.2 231.42-64.2zm-25.4 95.95c-40.45 0-73.84 20.94-100.18 62.8-26.35 41.86-45.4 94.31-57.15 157.34-11.76 63.03-16.7 126.53-14.82 190.5 2.82 81.84 11.99 140.17 27.52 174.97 15.52 34.81 40.21 52.22 74.08 52.22 55.5 0 96.66-38.57 123.47-115.72 26.81-77.14 40.22-167.45 40.22-270.93 0-93.13-7.29-158.28-21.87-195.44-14.59-37.16-38.34-55.74-71.27-55.74z" class="fil2"/><path id="18" d="m13228.15 10241.1-148.17 1117.6h-224.36l134.05-1021.64-88.9-29.64 12.7-56.44 276.58-29.63 38.1 19.75zm-91.72 697.09c46.09-24.46 83.49-47.74 112.18-69.85 28.69-22.11 61.38-57.15 98.07-105.13 24.46-32.92 36.69-70.55 36.69-112.89 0-33.86 11.29-57.85 33.87-71.96 22.58-14.11 48.45-21.17 77.61-21.17 28.22 0 50.09 8.47 65.61 25.4 15.53 16.93 23.29 38.1 23.29 63.5 0 39.51-13.17 76.2-39.51 110.07-42.34 55.5-113.36 106.77-213.08 153.81l129.82 261.05c11.29 20.7 23.52 36.46 36.69 47.27 13.17 10.82 25.4 16.23 36.69 16.23 9.41 0 22.11-2.82 38.1-8.46 15.99-5.65 30.1-13.17 42.33-22.58l22.58 47.98c-20.7 26.34-52.21 52.91-94.54 79.72-42.34 26.81-88.9 40.22-139.7 40.22-37.63 0-67.03-7.06-88.2-21.17-21.16-14.11-36.92-34.33-47.27-60.67l-131.23-351.37z" class="fil2"/><path id="19" d="M14306.24 10633.39c56.44-50.8 120.88-76.2 193.32-76.2 79.02 0 138.76 25.87 179.21 77.61 40.45 51.74 60.68 125.59 60.68 221.54 0 95.02-19.29 182.04-57.86 261.06-38.57 79.02-93.13 141.35-163.69 186.97-70.55 45.63-151.46 68.44-242.71 68.44-20.69 0-44.21-2.35-70.55-7.05l-49.39 351.36h-214.49l138.29-1023.05-74.79-40.93 11.29-59.26 262.47-36.69 35.27 16.93-7.05 59.27zm-87.49 633.59c20.69 7.52 45.62 11.29 74.79 11.29 71.49 0 124.41-40.93 158.75-122.77 34.33-81.84 51.5-181.56 51.5-299.16 0-51.74-8.46-94.54-25.4-128.41-16.93-33.86-41.86-50.8-74.79-50.8-40.45 0-77.61 23.05-111.47 69.15l-73.38 520.7z" class="fil2"/><path id="20" d="M15121.86 10761.8c16.93-57.38 45.62-105.83 86.08-145.34 40.45-39.51 87.01-59.27 139.7-59.27 20.69 0 36.68 4.7 47.97 14.11l-46.56 241.3c-3.77-4.7-12.7-9.88-26.81-15.52-14.12-5.65-31.05-8.47-50.8-8.47-29.17 0-56.21 3.06-81.14 9.17-24.93 6.12-43.98 14.82-57.15 26.11l-73.38 534.81h-217.31l88.9-664.63-73.38-39.51 11.29-60.68 225.78-36.69 36.69 23.99-7.06 129.82-2.82 50.8z" class="fil2"/><path id="21" d="M15857.04 10555.78c103.49 0 181.8 28.46 234.95 85.37 53.16 56.92 79.73 140.41 79.73 250.47 0 89.37-18.34 171.22-55.03 245.54-36.69 74.31-88.43 133.11-155.22 176.38-66.8 43.28-144.41 64.92-232.84 64.92-103.48 0-181.56-28.93-234.24-86.79-52.68-57.85-79.02-141.81-79.02-251.88 0-89.37 18.34-170.98 55.03-244.83 36.69-73.85 88.43-132.17 155.22-174.98 66.79-42.8 143.94-64.2 231.42-64.2zm-25.4 95.95c-40.45 0-73.84 20.94-100.18 62.8-26.35 41.86-45.4 94.31-57.15 157.34-11.76 63.03-16.7 126.53-14.82 190.5 2.82 81.84 11.99 140.17 27.52 174.97 15.52 34.81 40.21 52.22 74.08 52.22 55.5 0 96.66-38.57 123.47-115.72 26.81-77.14 40.22-167.45 40.22-270.93 0-93.13-7.29-158.28-21.87-195.44-14.59-37.16-38.34-55.74-71.27-55.74z" class="fil2"/><path id="22" d="M16523.09 11358.7c-9.41 75.26-30.81 140.41-64.21 195.44-33.39 55.03-74.55 96.89-123.47 125.59-48.92 28.69-101.6 43.04-158.04 43.04-29.17 0-55.51-2.12-79.03-6.35-23.51-4.24-39.51-10.59-47.97-19.05l28.22-88.9c8.47 2.82 18.34 4.94 29.63 6.35 11.29 1.41 22.11 2.11 32.46 2.11 36.69 0 65.85-13.17 87.49-39.51 21.63-26.34 37.39-60.68 47.27-103.01 9.88-42.33 18.58-95.95 26.1-160.87l71.97-630.76-112.89-33.87 15.52-56.44 306.22-35.28 35.27 16.93-94.54 784.58zm-22.58-922.87c-28.22 0-53.39-11.28-75.49-33.86-22.11-22.58-33.16-47.98-33.16-76.2 0-38.57 13.17-71.26 39.51-98.07 26.34-26.82 61.14-40.22 104.42-40.22 32.92 0 59.27 10.82 79.02 32.45 19.76 21.64 29.63 46.57 29.63 74.79 0 41.4-12.23 75.26-36.68 101.6-24.46 26.34-60.21 39.51-107.25 39.51z" class="fil2"/><path id="23" d="M17335.88 11211.94c-25.4 40.46-65.85 78.32-121.35 113.6-55.51 35.28-122.3 52.92-200.38 52.92-69.61 0-127-14.82-172.15-44.45-45.16-29.64-78.09-68.44-98.78-116.42-20.7-47.98-31.05-99.72-31.05-155.22 0-95.96 19.52-182.51 58.56-259.65 39.05-77.14 92.67-137.58 160.87-181.32 68.2-43.75 143.7-65.62 226.48-65.62 77.14 0 134.06 16.93 170.75 50.8s55.03 77.61 55.03 131.23c0 68.68-22.58 125.83-67.73 171.45-45.16 45.63-100.43 79.26-165.81 100.9-65.38 21.63-130.05 33.39-194.02 35.27-.95 69.62 10.11 122.3 33.16 158.05 23.04 35.75 55.26 53.62 96.66 53.62 47.98 0 88.19-10.82 120.65-32.46 32.45-21.63 60.91-48.91 85.37-81.84l43.74 69.14zm-227.18-560.21c-48.92 0-85.38 31.52-109.37 94.55-23.98 63.03-38.33 134.99-43.03 215.9 29.16-1.88 60.2-11.06 93.13-27.52 32.92-16.46 60.68-40.22 83.25-71.26 22.58-31.04 33.87-67.26 33.87-108.66 0-68.67-19.28-103.01-57.85-103.01z" class="fil2"/><path id="24" d="M17968.06 10801.31c-26.34-40.45-49.39-73.38-69.15-98.78-19.75-25.4-36.22-38.1-49.39-38.1-25.4 0-50.8 15.53-76.2 46.57-25.4 31.04-46.33 73.85-62.79 128.41s-24.7 115.24-24.7 182.03c0 79.97 9.65 136.88 28.93 170.75 19.29 33.87 50.57 50.8 93.84 50.8 40.45 0 74.55-7.76 102.31-23.28 27.75-15.53 51.97-36.93 72.67-64.21l43.74 70.56c-23.52 36.68-62.09 70.32-115.71 100.89-53.62 30.57-117.12 45.86-190.5 45.86-83.72 0-149.11-28.69-196.14-86.08-47.04-57.38-70.56-140.17-70.56-248.35 0-79.96 16.7-156.87 50.1-230.72 33.39-73.85 83.49-134.05 150.28-180.62 66.79-46.57 147.7-69.85 242.71-69.85 31.05 0 62.8 2.35 95.25 7.06 32.46 4.7 59.5 11.28 81.14 19.75l-56.44 218.72-49.39-1.41z" class="fil2"/><path id="25" d="M18381.51 11092c-.94 9.41-1.88 17.4-2.82 23.99-.94 6.58-1.88 12.23-2.82 16.93-3.77 30.11-5.65 47.98-5.65 53.62 0 37.63 17.41 56.45 52.21 56.45 19.76 0 40.22-3.06 61.39-9.17 21.16-6.12 39.74-16.23 55.74-30.34l16.93 53.62c-27.28 30.1-64.21 56.91-110.77 80.43-46.57 23.52-102.31 35.28-167.22 35.28-38.57 0-70.32-9.64-95.25-28.93-24.93-19.28-37.39-51.03-37.39-95.25 0-17.87 6.11-71.49 18.34-160.86l55.03-402.17h-83.25l16.93-74.79 84.67-32.45c30.1-25.4 66.79-90.31 110.07-194.74h128.41l-23.99 191.91h158.04l-15.52 110.07h-158.04l-55.04 406.4z" class="fil2"/></g></svg>