<?xml version="1.0" encoding="UTF-8" standalone="no"?><!DOCTYPE svg PUBLIC "-//W3C//DTD SVG 1.1//EN" "http://www.w3.org/Graphics/SVG/1.1/DTD/svg11.dtd"><svg width="100%" height="100%" viewBox="0 0 6497 9934" version="1.1" xmlns="http://www.w3.org/2000/svg" xmlns:xlink="http://www.w3.org/1999/xlink" xml:space="preserve" xmlns:serif="http://www.serif.com/" style="fill-rule:evenodd;clip-rule:evenodd;stroke-linecap:round;stroke-linejoin:round;stroke-miterlimit:1.5;"><path id="Mühle-außen" serif:id="Mühle außen" d="M2996.44,3920.28l-1484,-1032l-239,341l-9,82l-175,83l1243,1060l139,-65l239,194l-74,46l-258,783l57,129l-218,-220l-1555,2206l276,328l-4,53l57,57c-0,-0 -13,38 18,64c31,26 1182,-1770 1182,-1770l-193,407l128,-3l-52,1045l592,64l-211,53l-30,1276l3037,-0l-53,-1246l-49,-38l8,-71l411,-12l-56,-1100l120,23l-588,-675l-19,-359l143,-8l-456,-679l-348,-232l-37,-102l-895,-547l98,-121l234,140l53,19c-0,-0 1788.49,-3012.26 1581,-3040c-288.321,-38.55 -368.507,73.97 -271,-0l-185,-0l-76,-68l-1679,2651l-49,68l147,106l-124,222l-551,442l-212,-185l387,-369Z" style="stroke:#fff;stroke-width:16.03px;"/><path d="M1215.44,3362.28l1228,1024" style="fill:none;stroke:#fff;stroke-width:16.03px;"/><path d="M2492.44,4355.28l251,225" style="fill:none;stroke:#fff;stroke-width:16.03px;"/><path d="M2922.44,4738.28l-179,-158" style="fill:none;stroke:#fff;stroke-width:16.03px;"/><path d="M1280.5,3309.03l1716.94,1329.58l-413.709,-330.878l413.709,-367.305l-1483.54,-1037.16l-268.459,363.257l35.06,42.498Z" style="fill:none;stroke:#fff;stroke-width:20.43px;"/><path d="M3146.44,4742.18l536,-843.908" style="fill:none;stroke:#fff;stroke-width:16.03px;"/><path d="M3682.44,3898.28l1621,-2846" style="fill:none;stroke:#fff;stroke-width:16.03px;"/><path d="M5183.44,1052.28l-1704,2719" style="fill:none;stroke:#fff;stroke-width:16.03px;"/><path d="M5183.44,1052.28l120,-0" style="fill:none;stroke:#fff;stroke-width:16.03px;"/><path d="M3479.44,3771.28l203,127" style="fill:none;stroke:#fff;stroke-width:16.03px;"/><path d="M3513.44,3771.28c-135.942,318.128 -317.091,600.829 -519,867.262" style="fill:none;stroke:#fff;stroke-width:16.03px;"/><path d="M3134.44,4769.76l-82.84,116.514" style="fill:none;stroke:#fff;stroke-width:16.03px;"/><path d="M2904.44,4771.78l90,-139.5" style="fill:none;stroke:#fff;stroke-width:16.03px;"/><path d="M3070.45,4868.29l-2062,3090.99" style="fill:none;stroke:#fff;stroke-width:16.03px;"/><path d="M2904.44,4771.78l-1973,3087.5" style="fill:none;stroke:#fff;stroke-width:16.03px;"/><path d="M1008.44,7959.28l-77,-100" style="fill:none;stroke:#fff;stroke-width:16.03px;"/><path d="M3248.03,4691.28l2400.41,2385.2" style="fill:none;stroke:#fff;stroke-width:16.03px;"/><path d="M3248.03,4864.28l64.41,-109" style="fill:none;stroke:#fff;stroke-width:16.03px;"/><path d="M3391.44,4974.28l23,-110" style="fill:none;stroke:#fff;stroke-width:16.03px;"/><path d="M3527.44,5084.65l4,-110.37" style="fill:none;stroke:#fff;stroke-width:16.03px;"/><path d="M3640.68,5204.73l18.759,-120.084" style="fill:none;stroke:#fff;stroke-width:16.03px;"/><path d="M3788.01,5341.62l19.436,-109.335" style="fill:none;stroke:#fff;stroke-width:16.03px;"/><path d="M3924.44,5472.28l-6.379,-113.793" style="fill:none;stroke:#fff;stroke-width:16.03px;"/><path d="M4041.44,5642.28l33,-121" style="fill:none;stroke:#fff;stroke-width:16.03px;"/><path d="M4210.44,5789.28l12,-147" style="fill:none;stroke:#fff;stroke-width:16.03px;"/><path d="M4354.44,5962.28l19,-132" style="fill:none;stroke:#fff;stroke-width:16.03px;"/><path d="M4516.44,6151.28l38,-189" style="fill:none;stroke:#fff;stroke-width:16.03px;"/><path d="M4693.44,6298.28l31,-147" style="fill:none;stroke:#fff;stroke-width:16.03px;"/><path d="M4875.44,6483.28l33,-121" style="fill:none;stroke:#fff;stroke-width:16.03px;"/><path d="M5222.44,6845.28l45,-124" style="fill:none;stroke:#fff;stroke-width:16.03px;"/><path d="M5407.44,7057.28l75,-140" style="fill:none;stroke:#fff;stroke-width:16.03px;"/><path d="M5558.44,7193.28l64,-136" style="fill:none;stroke:#fff;stroke-width:16.03px;"/><path d="M3134.44,4742.76c716.123,628.46 1465.15,1384.51 2424,2450.51" style="fill:none;stroke:#fff;stroke-width:16.03px;"/><path d="M3070.45,4845.83c848.157,809.499 1606.84,1605.84 2374.5,2538.45" style="fill:none;stroke:#fff;stroke-width:16.03px;"/><path d="M3146.44,4741.61l-145.219,-103.068l-73.972,104.224l145.219,103.068l73.972,-104.224Z" style="fill:#1a0909;stroke:#fff;stroke-width:20.43px;"/><path d="M3248.03,5045.28c-46.205,163.526 -125.264,358.6 -181.533,502" style="fill:none;stroke:#fff;stroke-width:16.03px;"/><path d="M3409.09,5210.72c-46.206,163.527 -136.873,348.815 -193.142,492.214" style="fill:none;stroke:#fff;stroke-width:16.03px;"/><path d="M3557.71,5358.48c-46.205,163.527 -137.892,361.396 -194.161,504.795" style="fill:none;stroke:#fff;stroke-width:16.03px;"/><path d="M3705.8,5527.56c-46.205,163.527 -121.296,374.672 -177.565,518.071" style="fill:none;stroke:#fff;stroke-width:16.03px;"/><path d="M3858.39,5675.2c-46.205,163.527 -128.802,400.633 -185.071,544.032" style="fill:none;stroke:#fff;stroke-width:16.03px;"/><path d="M4010.99,5822.84c-46.205,163.526 -135.838,425.319 -192.107,568.718" style="fill:none;stroke:#fff;stroke-width:16.03px;"/><path d="M4163.58,5970.47c-46.205,163.527 -137.322,440.231 -193.591,583.63" style="fill:none;stroke:#fff;stroke-width:16.03px;"/><path d="M4305.96,6144.11c-46.205,163.527 -169.604,432.231 -225.873,575.63" style="fill:none;stroke:#fff;stroke-width:16.03px;"/><path d="M4458.76,6296.75c-46.205,163.527 -158.321,486.231 -214.59,629.63" style="fill:none;stroke:#fff;stroke-width:16.03px;"/><path d="M4588.74,6451.39c-30.308,169.886 -161.391,481.075 -233.965,617.952" style="fill:none;stroke:#fff;stroke-width:16.03px;"/><path d="M4763.94,6611.56c-46.205,163.527 -235.914,467.36 -292.183,610.759" style="fill:none;stroke:#fff;stroke-width:16.03px;"/><path d="M4907.53,6768.67c-46.205,163.526 -262.522,472.204 -318.791,615.604" style="fill:none;stroke:#fff;stroke-width:16.03px;"/><path d="M5030.12,6952.3c-46.205,163.527 -272.324,436.231 -328.593,579.63" style="fill:none;stroke:#fff;stroke-width:16.03px;"/><path d="M5212,7127.94c-46.205,163.527 -264.607,429.231 -395.876,572.63" style="fill:none;stroke:#fff;stroke-width:16.03px;"/><path d="M5355.56,7298.57c-46.205,163.527 -253.582,438.23 -389.851,598.63" style="fill:none;stroke:#fff;stroke-width:16.03px;"/><path d="M3248.03,5045.28c767.567,764.755 1496.35,1544.05 2183.41,2339" style="fill:none;stroke:#fff;stroke-width:16.03px;"/><path d="M3248.03,4682.28c793.137,794.666 1586.27,1589.33 2379.41,2384" style="fill:none;stroke:#fff;stroke-width:16.03px;"/><path d="M3065.44,5547.28c728.43,750.727 1342.87,1580.37 1940,2422" style="fill:none;stroke:#fff;stroke-width:16.03px;"/><g><path d="M4856.44,1831.28l-45,76c87.058,38.839 179.183,63.746 273,84c8.39,32.432 21.791,48.399 42,42l44,-90l-292,-71l-22,-41Z" style="fill:#fff;stroke:#fff;stroke-width:1px;"/><path d="M4932.44,1693.28l-45,80l266,68c6.636,23.063 17.775,41.215 43,44l43,-91l-273,-55l-34,-46Z" style="fill:#fff;stroke:#fff;stroke-width:1px;"/><path d="M5014.44,1558.28l-47,79l253,45c20.955,33.11 40.199,57.661 51,40l38,-76l-261,-42l-34,-46Z" style="fill:#fff;stroke:#fff;stroke-width:1px;"/><path d="M5095.44,1418.28l34,52l252,24l-34,83c-28.621,16.861 -42.333,-11.003 -54,-45l-240,-38l42,-76Z" style="fill:#fff;stroke:#fff;stroke-width:1px;"/><path d="M5170.44,1287.28l33,44l246,8l-33,86c-19.349,9.44 -34.405,-11.164 -47,-49l-231,-22l32,-67Z" style="fill:#fff;stroke:#fff;stroke-width:1px;"/><path d="M5254.44,1152.28l29,46l234,-6l-28,77c-30.545,10.249 -44.13,-16.506 -56,-47l-216,-8l37,-62Z" style="fill:#fff;stroke:#fff;stroke-width:1px;"/><path d="M3700.44,3883.28l28,-52l304,181l-26,49l-306,-178Z" style="fill:#fff;stroke:#fff;stroke-width:1px;"/><path d="M3806.44,3708.28l302,175l-52,98l-32,-16l-0,-12l-269,-161l51,-84Z" style="fill:#fff;stroke:#fff;stroke-width:1px;"/><path d="M3888.44,3571.78l302,175l-52,98l-32,-16l-0,-12l-269,-161l51,-84Z" style="fill:#fff;stroke:#fff;stroke-width:1px;"/><path d="M3963.44,3446.78l302,175l-52,98l-32,-16l-0,-12l-269,-161l51,-84Z" style="fill:#fff;stroke:#fff;stroke-width:1px;"/><path d="M4038.29,3314.29l304.745,170.175l-50.435,98.815l-32.25,-15.489l-0.191,-11.999l-271.527,-156.701l49.658,-84.801Z" style="fill:#fff;stroke:#fff;stroke-width:1px;"/><path d="M4114.01,3192.62l307.413,165.307l-48.857,99.604l-32.492,-14.974l-0.382,-11.994l-273.985,-152.363l48.303,-85.58Z" style="fill:#fff;stroke:#fff;stroke-width:1px;"/><path d="M5053.44,1042.28l-98,163l88,46l105,-178l-95,-31Z" style="fill:#fff;stroke:#fff;stroke-width:1px;"/><path d="M4946.44,1219.28l85,45l-112,185l-98,-31l125,-199Z" style="fill:#fff;stroke:#fff;stroke-width:1px;"/><path d="M4905.44,1466.28l-111,177l-96,-38l109,-175l98,36Z" style="fill:#fff;stroke:#fff;stroke-width:1px;"/><path d="M4783.44,1662.28l-110,174l-97,-40l109,-174l98,40Z" style="fill:#fff;stroke:#fff;stroke-width:1px;"/><path d="M4660.44,1854.28l-105,176l-103,-37l113,-179l95,40Z" style="fill:#fff;stroke:#fff;stroke-width:1px;"/><path d="M4442.44,2011.28l101,36l-111,175l-89,-44l99,-167Z" style="fill:#fff;stroke:#fff;stroke-width:1px;"/><path d="M4419.44,2243.28l-102,159l-91,-46l100,-161l93,48Z" style="fill:#fff;stroke:#fff;stroke-width:1px;"/><path d="M4307.44,2416.28l-115,192l-91,-50l116,-188l90,46Z" style="fill:#fff;stroke:#fff;stroke-width:1px;"/><path d="M4089.44,2577.28l91,48l-91,154l-90,-56l90,-146Z" style="fill:#fff;stroke:#fff;stroke-width:1px;"/><path d="M4078.44,2791.28l-120,199l-93,-50l124,-205l89,56Z" style="fill:#fff;stroke:#fff;stroke-width:1px;"/><path d="M3947.44,3005.28l-109,173l-91,-53l107,-175l93,55Z" style="fill:#fff;stroke:#fff;stroke-width:1px;"/><path d="M3740.44,3137.28l86,54l-100,179l-94,-52l108,-181Z" style="fill:#fff;stroke:#fff;stroke-width:1px;"/><path d="M3717.44,3385.28l-106,171l-91,-61l102,-165l95,55Z" style="fill:#fff;stroke:#fff;stroke-width:1px;"/><path d="M3600.44,3565.28l-106,176l-93,-62l108,-171l91,57Z" style="fill:#fff;stroke:#fff;stroke-width:1px;"/><path d="M4188.8,3062.24l317.003,157.396l-54.266,103.369l-32.727,-14.456l-0.573,-11.986l-276.373,-147.987l46.936,-86.336Z" style="fill:#fff;stroke:#fff;stroke-width:1px;"/><path d="M4255.8,2933.86l321.003,150.396l-46.86,97.369c-26.062,-5.261 -39.61,-16.362 -40.347,-33.442l-273.732,-137.986l39.936,-76.337Z" style="fill:#fff;stroke:#fff;stroke-width:1px;"/><path d="M4330.44,2800.47l321.36,148.397l-47.266,100.369l-32.727,-14.456l-0.573,-11.986l-280.373,-140.987l39.579,-81.337Z" style="fill:#fff;stroke:#fff;stroke-width:1px;"/><path d="M4555.83,2374.28l14.576,34.027l308.034,111.342l-44.699,99.631c-0,-0 -28.803,-7.431 -37.897,-35c-3.759,-11.395 -304.284,-109.923 -295.118,-120.403" style="fill:#fff;stroke:#fff;stroke-width:1px;"/><path d="M4623.44,2240.28l19,33l313,105l-52,97c-0,-0 -27.214,-1.646 -38,-31c-6.296,-17.135 -295.834,-106.109 -291,-119l49,-85Z" style="fill:#fff;stroke:#fff;stroke-width:1px;"/><path d="M4701.44,2108.28l-47,76c-0,-0 266.444,90.732 286,105c10.563,7.706 -0.452,16.459 39.987,39.987c6.728,3.914 45.773,-98.652 43.013,-98.987c-46.492,-5.645 -255.097,-76.113 -306,-87c-12.544,-2.683 -16,-35 -16,-35Z" style="fill:#fff;stroke:#fff;stroke-width:1px;"/><path d="M4776.44,1970.28l-45,82l281,91c4.423,21.904 16.004,38.603 39,47l44,-99l-296,-85l-23,-36Z" style="fill:#fff;stroke:#fff;stroke-width:1px;"/><path d="M4489.73,2459.43c-3.108,-3.108 46.997,-101.869 56.708,-92.157" style="fill:none;stroke:#fff;stroke-width:1px;"/><path d="M4477.82,2512.28l-59.378,87.102l299.763,128.761c6.528,18.881 15.958,33.46 35.436,33.137l49.801,-89.943l-300.575,-122.133l-25.047,-36.924Z" style="fill:#fff;stroke:#fff;stroke-width:1px;"/><path d="M4405.99,2649.78l-49.546,84.807l291.669,138.104c5.627,19.438 17.27,29.927 35.524,30.587l45.807,-94.541l-300.083,-128.836l-23.371,-30.121Z" style="fill:#fff;stroke:#fff;stroke-width:1px;"/></g><path d="M1205.44,3374.28l37,33l-73,49l-40,-30l76,-52Z" style="fill:#fff;stroke:#fff;stroke-width:1px;"/><g><path d="M1261.44,3415.28l48,49l-76,49l-54,-43l82,-55Z" style="fill:#fff;stroke:#fff;stroke-width:1px;"/><path d="M1326.44,3473.28l58,50l-75,49l-65,-45l82,-54Z" style="fill:#fff;stroke:#fff;stroke-width:1px;"/><path d="M1384.44,3534.28l69,47l-76,55l-63,-49l70,-53Z" style="fill:#fff;stroke:#fff;stroke-width:1px;"/><path d="M1471.44,3594.28l60,54l-86,45l-61,-46l87,-53Z" style="fill:#fff;stroke:#fff;stroke-width:1px;"/><path d="M1544.44,3660.28l65,46l-86,56l-65.5,-52l86.5,-50Z" style="fill:#fff;stroke:#fff;stroke-width:1px;"/><path d="M1624.44,3711.28l64,58l-88,55l-66.75,-51l90.75,-62Z" style="fill:#fff;stroke:#fff;stroke-width:1px;"/><path d="M1711.44,3784.28l65,52l-88,58l-77.375,-57l100.375,-53Z" style="fill:#fff;stroke:#fff;stroke-width:1px;"/><path d="M1789.44,3848.28l78,61l-102,47l-61,-50l85,-58Z" style="fill:#fff;stroke:#fff;stroke-width:1px;"/><path d="M1882.44,3926.28l66,56l-92,45l-70.5,-54l96.5,-47Z" style="fill:#fff;stroke:#fff;stroke-width:1px;"/><path d="M1965.44,3994.28l73,63l-100,50l-71,-62l98,-51Z" style="fill:#fff;stroke:#fff;stroke-width:1px;"/><path d="M2060.44,4074.28l66,61l-88,55l-76,-62l98,-54Z" style="fill:#fff;stroke:#fff;stroke-width:1px;"/><path d="M2146.44,4146.28l83,66l-103,42l-73,-55l93,-53Z" style="fill:#fff;stroke:#fff;stroke-width:1px;"/><path d="M2246.44,4228.28l79,69l-96,46l-88,-75l105,-40Z" style="fill:#fff;stroke:#fff;stroke-width:1px;"/><path d="M2344.44,4309.28l86,75l-95,52l-90,-77l99,-50Z" style="fill:#fff;stroke:#fff;stroke-width:1px;"/></g><g><path d="M1421.44,6529.28l159.151,198c28.251,-10.284 66.741,-11.043 71.876,15l-55.027,69l-174,-221l-52,-0l50,-61Z" style="fill:#fff;stroke:#fff;stroke-width:1px;"/><path d="M723.441,7499.28l43,-59l210,244l46,6l-34,67l-223,-254l-42,-4Z" style="fill:#fff;stroke:#fff;stroke-width:1px;"/><path d="M843.441,7334.28l202,248l42,4l-30,59l-226,-248l-38,2l50,-65Z" style="fill:#fff;stroke:#fff;stroke-width:1px;"/><path d="M907.441,7251.28l225,274l-11,20l-216,-243l-32.5,-0l34.5,-51Z" style="fill:#fff;stroke:#fff;stroke-width:1px;"/><path d="M981.441,7139.28l198,235c34.51,-10.318 52.359,-5.255 44,24l-44,42l-199,-235l-40,-10l41,-56Z" style="fill:#fff;stroke:#fff;stroke-width:1px;"/><path d="M1054.44,7036.28l188,234c31.693,-12.835 50.583,-10.538 46,19.5l-27,44.5l-208,-236l-50.75,6l51.75,-68Z" style="fill:#fff;stroke:#fff;stroke-width:1px;"/><path d="M1207.44,6826.28l176,210c33.49,-3.886 54.788,2.203 52,28l-43,59l-187,-224l-42,-4l44,-69Z" style="fill:#fff;stroke:#fff;stroke-width:1px;"/><path d="M1273.44,6732.28l176,212c36.365,-8.535 55.503,-5.144 49,16l-33,58l-195,-215l-44.5,-10l47.5,-61Z" style="fill:#fff;stroke:#fff;stroke-width:1px;"/><path d="M1343.44,6639.28l171,187l37.238,-0l21.762,25l-41,57l-186,-208l-47,-2l44,-59Z" style="fill:#fff;stroke:#fff;stroke-width:1px;"/><path d="M1452.44,6485.28l32,-53l177,169c33.323,4.209 54.564,13.996 45,38l-40,52l-166.745,-205l-47.255,-1Z" style="fill:#fff;stroke:#fff;stroke-width:1px;"/><path d="M1573.44,6324.28l154,172c34.917,1.583 59.371,7.922 58,26l-46,68l-166,-207l-54,-2l54,-57Z" style="fill:#fff;stroke:#fff;stroke-width:1px;"/><path d="M1652.44,6214.28l156,174c21.125,-3.515 37.767,3.431 49,23l-49,69l-175,-188l-36,-11l55,-67Z" style="fill:#fff;stroke:#fff;stroke-width:1px;"/><path d="M1706.44,6104.28l165,177c20.11,-4.545 39.189,-0.843 56,21l-48,68l-173,-184l-40,-12l40,-70Z" style="fill:#fff;stroke:#fff;stroke-width:1px;"/><path d="M1785.44,6012.28l164,146c28.062,-0.816 46.02,7.03 51,26l-49,77l-166,-180l-41,-8l41,-61Z" style="fill:#fff;stroke:#fff;stroke-width:1px;"/><path d="M1872.44,5889.28l152,166c25.907,-9.985 39.592,-0.414 49,16l-47,83l-169,-176l-45,-14l60,-75Z" style="fill:#fff;stroke:#fff;stroke-width:1px;"/><path d="M1942.94,5776.28l156.5,165c19.945,1.387 37.65,5.016 51,13l-53,89l-170,-173l-39,-15l54.5,-79Z" style="fill:#fff;stroke:#fff;stroke-width:1px;"/><path d="M2019.44,5674.28l154,148l46,24l-47,77l-172,-163l-41,-7l60,-79Z" style="fill:#fff;stroke:#fff;stroke-width:1px;"/><path d="M2089.44,5566.28l157,146c18.818,-3.243 33.074,4.16 42,24l-53,78.5l-162,-158.5l-40,-12l56,-78Z" style="fill:#fff;stroke:#fff;stroke-width:1px;"/><path d="M2160.94,5449.28l203.5,168l-57,78l-157,-149l-44,-13l54.5,-84Z" style="fill:#fff;stroke:#fff;stroke-width:1px;"/><path d="M2219.44,5372.28l189,176l-28,45l-161,-144l-39,-25l39,-52Z" style="fill:#fff;stroke:#fff;stroke-width:1px;"/><path d="M1132.44,6944.28l176,220c23.275,-14.695 42.618,-16.282 56,2l-34,60l-198,-225c-21.048,-1.822 -37.143,-4.881 -45,-10l45,-47Z" style="fill:#fff;stroke:#fff;stroke-width:1px;"/></g><path d="M3682.44,4383.28l282,556l1401,671l-435,-686l-1248,-604.046l-0,63.046Z" style="fill:none;stroke:#fff;stroke-width:8.33px;"/><path d="M3964.44,4939.28l82,505l1198,536l-5,-435l-1275,-606Z" style="fill:none;stroke:#fff;stroke-width:8.33px;"/><path d="M5244.44,5980.28l599,676l-1239,-425l-553,-771.5l1193,520.5Z" style="fill:none;stroke:#fff;stroke-width:8.33px;"/><path d="M2689.44,7757.28l1834.5,-38l667.5,82l174,67l82,1223l-3014,-20l38,-1227l218,-87Z" style="fill:none;stroke:#fff;stroke-width:8.33px;"/><path d="M2075.44,7719.28l73,-1063l-126,-0l179,-425l130,-173.25l1633,-350.75l478,507.5l85,1361.5l-2452,143Z" style="fill:none;stroke:#fff;stroke-width:8.33px;"/><path d="M5775.44,7719.28l-58,-1063l-1270,-441.5l80,1347.5l1248,157Z" style="fill:none;stroke:#fff;stroke-width:8.33px;"/><path d="M3670.44,4321.28l-1021,369l-260,730l44,39l-0,30l-91,561l1598,-343l96,-258l-67,-503l-299,-625Z" style="fill:none;stroke:#fff;stroke-width:8.33px;"/><path d="M2649.44,4690.28l670,-637l49,-163l107,116l1052,594l43,96l178,121l-1065,-496l-1034,369Z" style="fill:none;stroke:#fff;stroke-width:8.33px;"/><path d="M1597.44,2953.28l-290,386" style="fill:none;stroke:#fff;stroke-width:8.33px;"/><path d="M1689.44,3022.28c-125.291,111.786 -222.795,239.45 -303,377" style="fill:none;stroke:#fff;stroke-width:8.33px;"/><path d="M1753.44,3063.28c-131.241,107.294 -219.726,232.62 -293,385" style="fill:none;stroke:#fff;stroke-width:8.33px;"/><path d="M1856.44,3146.28c-144.066,89.991 -245.282,215.041 -318.5,363" style="fill:none;stroke:#fff;stroke-width:8.33px;"/><path d="M1946.44,3210.78c-136.59,87.943 -251.994,206.151 -343.5,358.5" style="fill:none;stroke:#fff;stroke-width:8.33px;"/><path d="M2045.44,3260.28c-152.679,105.039 -266.417,227.757 -348.25,365" style="fill:none;stroke:#fff;stroke-width:8.33px;"/><path d="M2132.44,3327.78c-160.054,91.585 -281.424,209.95 -357.75,359.5" style="fill:none;stroke:#fff;stroke-width:8.33px;"/><path d="M2205.44,3390.03c-139.124,94.293 -254.961,211.873 -349,351.25" style="fill:none;stroke:#fff;stroke-width:8.33px;"/><path d="M2300.44,3442.78c-143.308,96.858 -262.217,218.116 -354,366.5" style="fill:none;stroke:#fff;stroke-width:8.33px;"/><path d="M2358.44,3507.53c-69.499,44.777 -130.38,95.037 -183.946,149.953c-65.494,67.144 -120.053,141.248 -166.054,220.797" style="fill:none;stroke:#fff;stroke-width:8.33px;"/><path d="M2455.44,3565.65c-158.274,97.783 -279.133,221.757 -373,364.625" style="fill:none;stroke:#fff;stroke-width:8.33px;"/><path d="M2536.44,3625.28c-172.473,111.355 -285.375,228.072 -387,358.75" style="fill:none;stroke:#fff;stroke-width:8.33px;"/><path d="M2611.44,3662.28c-159.429,107.788 -286.656,223.007 -401,363" style="fill:none;stroke:#fff;stroke-width:8.33px;"/><path d="M2694.44,3741.28c-151.194,92.162 -281.45,208.753 -394,346" style="fill:none;stroke:#fff;stroke-width:8.33px;"/><path d="M2793.44,3807.78c-170.886,97.368 -305.52,216.488 -412,352.5" style="fill:none;stroke:#fff;stroke-width:8.33px;"/><path d="M2895.44,3878.28c-176.456,96.754 -305.272,219.161 -398,361" style="fill:none;stroke:#fff;stroke-width:8.33px;"/></svg>